<?xml version="1.0" standalone="no"?>
<!DOCTYPE svg PUBLIC "-//W3C//DTD SVG 1.1//EN" "http://www.w3.org/Graphics/SVG/1.1/DTD/svg11.dtd" >
<svg xmlns="http://www.w3.org/2000/svg">
<metadata></metadata>
<defs>
<font id="axure_handwritingbold" horiz-adv-x="1138" >
<font-face units-per-em="2048" ascent="1487" descent="-561" />
<missing-glyph horiz-adv-x="569" />
<glyph unicode="&#xfb01;" horiz-adv-x="1251" d="M905 -104q-99 0 -129 112q-16 58 -16 182q-1 18 -2 53t-2 52q-3 70 -1.5 146.5t11.5 123.5q-7 33 0 70h-6q-7 43 6 123q12 68 8 114l-4 41q5 -2 8.5 -1.5t5.5 2.5l2 1q0 13 2 19v8q-22 55 15 107q13 26 43 26q12 0 24 -6h11h8q14 -2 26 -8q-1 -6 2.5 -11.5t6.5 -7.5l4 -2 q16 -8 35 -8l16 -2l12 -12q9 0 21 -4q28 -13 30 -17l-4 -32l-3.5 -10.5t-2.5 -10.5q-7 -18 -2 -33l2 -34q-14 -3 -20 -17q-1 -1 -3 -8.5t-8 -11.5q0 -8 5 -15q2 -4 5.5 -6.5t6.5 -2.5l2 -1l-4 -22q-1 -5 -12 -88h4v-41q0 -20 -7 -41q0 -1 -1 -5t-1 -6q-2 -21 23 -37 q-8 -1 -12.5 -8t-5.5 -13v-7q0 -29 -11 -47q11 -28 11 -82q12 -5 12 -15l-8 -45q-4 -23 -4 -59q0 -37 -7 -66q13 -8 15 -12l4 -10v-8q3 -27 6 -45q9 -97 10 -144v-32l-10 -2q0 -25 -18 -43q-5 -4 -16.5 -9t-13.5 -8t1 -14q-4 -3 -16.5 -5t-22.5 -3h-10q-3 0 -10 -1t-11 -1z M406 -43l-3 2q-1 0 -8 -1t-12 -1q-19 0 -29 4q-24 6 -30 12q-2 4 -2.5 10.5t0.5 11.5v5q1 8 -9 18q-14 9 -22 11l-27 6l-6 24q-19 99 4 199q-28 47 -8 123q-15 -2 -27 14q0 9 3.5 19t6.5 16l3 6q14 33 14 103q0 31 2 45l-20 22l14 43v10q-4 32 6 54q-15 55 0 137h-12 q-26 0 -41 12q-21 -6 -39 -6q-57 0 -72 41q-6 6 -6 21q-3 1 -14 12q-9 15 -9 26q-15 26 -8 72v8l2 23l21 10q33 16 72 16q7 0 19.5 -1t18.5 -1q16 -4 21 -4q11 0 22 8l17 9l16 -4q1 8 2 23t2 22q4 66 19 123l6 30q-7 37 12 70q6 15 6 20l2 39h23q1 41 32.5 80t69.5 60l6 4 l7 2h12q17 0 29 -9q30 9 65 9q115 0 193 -78q40 -40 55 -92v10l2 16l10 11q0 21 12 49q1 4 4 11t3 9l4 29l28 6q6 1 20.5 3.5t20.5 2.5q8 2 17.5 3.5t11.5 2.5l12 4l11 -2q1 0 7 -2t7 -2q6 8 14 8q5 1 17.5 -6t21.5 -14l10 -8q21 -12 23 -13q1 -1 4 -2.5t8.5 -4.5t13.5 -7 q23 -18 27 -26q2 -3 -1 -10.5t-7 -14.5l-4 -6v-2q0 -21 -6 -31q0 -2 -2 -4q9 -33 -11 -82q-1 -3 -3 -10.5t-3 -12t0 -6.5q4 -33 -4 -39l-33 -8q-9 -2 -34 -18q-47 -33 -78 -33q-21 0 -37 8l-23 8l-2 25q-2 10 -18 33q-29 43 -37 67q0 -4 -2 -12q-5 -31 -10 -33h-33 q-41 6 -64 10.5t-59.5 21.5t-56.5 42h-6q-21 0 -33 -16q-23 -24 -34 -74t-5 -98v0q0 -26 -10 -43q2 -6 2 -21q28 -16 35 -24q3 0 9 1t9 1q47 0 111 -25l26 -8q0 -8 2 -10l15 -5l4 -18q9 -28 -6 -53q-5 -11 -19 -21q0 -16 -14 -30l-13 -17h-18h-10q-11 0 -17 -6 q-2 -2 -3.5 -4.5t-2 -4.5t-0.5 -4v-4v-1h-26q-29 0 -41 -2q-5 0 -16 -1t-17 -1q-4 0 -12.5 1t-12.5 1q0 -37 4 -111q8 -156 -8 -221q18 -72 18 -157t-8 -157q-1 -14 -2 -40t-2 -39q24 -44 17.5 -101t-47.5 -92q-7 -10 -19 -10q-5 -1 -12.5 0.5t-12.5 3.5z" />
<glyph unicode="&#xfb02;" horiz-adv-x="1251" d="M897 -72q-2 -2 -4 -2l-16 -8l-17 6q-41 15 -53 41q-6 12 -6 27q-33 10 -47 45l-11 22l15 19q14 22 16 31q0 5 -3.5 9.5t-6.5 6.5l-4 2l6 27q49 214 53 594q0 8 -4 28q-9 61 10 96q-14 44 -14 80q0 23 6 47q-8 5 -10 19q-1 6 0.5 14.5t3.5 13.5l2 5q19 58 21 69 q-13 -6 -15 6l4 41v23q-5 101 25 143q-20 69 -4 133l-2 4l10 41q2 0 2 2q7 28 12 37q18 39 56 39q6 0 18 -4l12 -2l2 -4q23 -6 37 -18q23 -4 39 -31l6 -12v-7l13 -2l10 -26q13 -41 0 -84q-4 -10 -2 -21l6 -18l-10 -19q7 -10 12 -26q1 -2 1.5 -5.5t1.5 -11.5t-1 -8 q-4 -2 -7 -4.5t-4 -4.5t-1.5 -4t-0.5 -3l1 -2q2 -6 2 -23q8 0 8 -6l-6 -37q-5 -35 2 -92q3 -23 6 -59v-19l-12 -14l-2 -2q0 -2 1.5 -7t3.5 -11l3 -9q23 -63 14 -104l-6 -25l-10 -2q-1 -2 -3 -7t-3 -7q19 -40 16 -82q-3 -37 -20 -57q2 -13 3.5 -33t4 -54.5t4.5 -62.5 q8 -121 10 -139l2 -8l-2 -9q-11 -47 -8 -88q0 -61 -6 -127l-4 -38l-21 2q-6 -24 -6 -25l6 -4l2 -10q15 -36 -8 -97.5t-70 -89.5q-27 -18 -41 -18q-5 0 -9.5 5t-6.5 10zM410 -43l-2 2q-2 0 -9 -1t-12 -1q-19 0 -29 4q-24 6 -30 12q-2 4 -2.5 10.5t0.5 11.5v5q1 8 -9 18 q-14 9 -22 11l-27 6l-6 24q-19 99 4 199q-28 47 -8 123q-15 -2 -27 14q0 9 3.5 19t6.5 16l3 6q14 33 14 103q0 31 2 45l-20 22l14 43v10q-4 32 6 54q-15 55 0 137h-12q-26 0 -41 12q-21 -6 -39 -6q-57 0 -72 41q-6 6 -6 21q-3 1 -14 12q-8 13 -8 26q-16 28 -9 72v8l2 23 l21 10q33 16 72 16q7 0 20 -1t19 -1q16 -4 20 -4q12 0 23 8l16 9l16 -4q1 8 2 23t2 22q4 66 19 123l6 30q-7 37 12 70q6 15 6 20l2 39h23q1 41 32.5 80t69.5 60l7 4l6 2h12q17 0 29 -9q30 9 65 9q108 0 193 -78q20 -19 33.5 -42t19 -42t7 -37t1 -27.5t-1.5 -13.5 q0 -30 -6 -33q-2 -2 -11 -2t-18 1l-8 1q-41 6 -64 10.5t-59.5 21.5t-56.5 42h-6q-21 0 -33 -16q-23 -24 -34 -74t-5 -98v0q0 -26 -10 -43q2 -6 2 -21q27 -16 35 -24q3 0 9 1t9 1q47 0 111 -25l26 -8q0 -8 2 -10l15 -5l4 -18q9 -28 -6 -53q-5 -11 -19 -21q0 -16 -14 -30 l-12 -17h-19h-10q-11 0 -17 -6q-2 -2 -3.5 -4.5t-2 -4.5t-0.5 -4v-4v-1h-26q-29 0 -41 -2q-5 0 -16 -1t-17 -1q-4 0 -12.5 1t-12.5 1q0 -19 5 -111q8 -152 -9 -221q18 -73 18.5 -157t-7.5 -157q-1 -14 -2.5 -40t-2.5 -39q24 -44 17.5 -101t-47.5 -92q-7 -10 -19 -10 q-5 -1 -12.5 0.5t-12.5 3.5z" />
<glyph horiz-adv-x="2048" />
<glyph horiz-adv-x="2048" />
<glyph unicode="&#xd;" horiz-adv-x="2048" />
<glyph unicode=" "  horiz-adv-x="569" />
<glyph unicode="&#x09;" horiz-adv-x="569" />
<glyph unicode="&#xa0;" horiz-adv-x="569" />
<glyph unicode="!" horiz-adv-x="681" d="M180 1038q-18 -17 -18 6q-1 8 0 18.5t2 17.5l2 7q10 30 0 54q-11 27 -25 45q2 4 6 6t7 2h4q-6 15 -6 27t2 18l-2.5 2.5t-6.5 3.5t-10 -4q-5 18 -3 30t8 17l5 6q0 6 7 13q-19 34 -19 51q0 25 14 43q-7 22 0 47q1 0 3 3q1 1 1 1.5t1 1.5q6 23 18 35l14 18l25 -8l18 -6 q15 14 23 14q4 -1 9.5 -7t8.5 -12l4 -5q13 -13 19 -17h35h8h6q34 0 53 -8l15 -6l6 -14q28 -66 42.5 -131t16 -133t-1 -113t-10.5 -119q-9 -161 -8 -201q1 0 1 -29l-1 -30q-4 -96 16 -129l14 -25l-18 -18q-8 -12 -10 -37q0 -3 -1 -8t-1 -8l-2 -17l-15 -10q-8 -6 -17 -10.5 t-20 -8.5t-14 -5l-10 -27q-2 0 -6 -1t-7 -1q-20 3 -28 8l-19 23q-1 1 -2 2.5t-2 2.5t-2 1q-2 2 -8 2h-8l-21 2l-10 18q0 2 -4 10q-23 36 -33 43l-20 13l4 24q14 91 2 246q-4 96 -2 129q-6 36 -6 68q-25 35 -23 69zM516 190q3 -127 -84 -208l-8 -9l-10 -2q-14 -4 -37 -4 q-94 0 -137 84q-24 48 -39 137l-2 21l16 12q0 2 4 6q4 0 4 9q0 20 4 40q2 5 2 7l9 32q7 1 20.5 -3.5t15.5 -4.5q1 0 5.5 -0.5t6.5 0t5.5 3t7.5 7.5l2 5q13 6 32.5 7t32.5 -1l13 -2q82 -19 133 -119l4 -8v-9z" />
<glyph unicode="&#x22;" horiz-adv-x="970" d="M336 895q-75 20 -131 76q-44 51 -64 119q-7 20 -11 43.5t-6.5 41.5t-3.5 47.5t-1 43.5v48.5v45.5q3 64 0 123l-4 37l43 4q10 2 35 2q80 0 154.5 -31t98.5 -88l3 -4v-6q7 -67 -7 -203q-1 -7 -3 -29t-2.5 -29.5t-1.5 -25.5t-0.5 -28t1 -25.5t3 -28.5t5.5 -27l2 -8l-2 -8 q-6 -36 -47 -53h-2q-2 -33 -10 -39q-4 -2 -15 -1.5t-22 2.5zM610 938q-68 62 -86 162q-9 66 -2 176q4 108 0 162l-2 41l43 4q6 0 16 1t15 1q86 0 237 -55l19 -9l6 -16q8 -26 4 -70q-2 -4 -2 -14q29 -4 35 -12q-1 -7 -6 -18.5t-10 -18.5l-5 -8q-28 -33 -77 -287 q-2 -18 -17 -33l6 -20l-16 -17q-17 -20 -49 -20q-18 0 -41 10l-12 -4q-4 0 -18 11.5t-26 22.5z" />
<glyph unicode="#" d="M766 -74q-17 0 -51 17q-8 4 -15 4q-1 -2 -3.5 -5t-10 -7.5t-14.5 2.5q-5 4 -11 11t-9 12l-3 5q-25 48 -34.5 105.5t-8 98t7.5 110.5q11 101 9 176q-3 2 -5 4h-2q-8 -1 -25 -2t-24 -2q-47 -3 -67 -13q-4 -27 -4 -84q-1 -44 -2.5 -68.5t-5 -65.5t-10 -66.5t-17 -55 t-27.5 -49.5t-39 -33l-18 -10q-11 -2 -15 6q-2 4 -2 8t1 6l1 3l-10 4q-3 -6 -6 -8.5t-5.5 -1t-4.5 3.5t-4 5l-2 3l-15 -4l-18 10q-31 25 -44 66.5t-11.5 86t2.5 95.5q5 87 2 108h-6q-13 0 -15 -2l-12 -14l-16 -2q-12 -2 -41 -2q-57 0 -92.5 27t-65.5 84q-7 13 -10 25 t-1.5 23.5t3 18.5t6.5 18.5t6 14.5q10 7 10 18l2 23l17 8q41 23 75 23q6 0 16 -1t13 -1q12 -3 17 -3q11 0 26 17l17 20l24 -10q19 -8 39 -8q15 0 21 6q14 22 8 76q-27 -6 -49 -6q-65 0 -103 48.5t-39 135.5v16l15 11q0 4 2 8l6 20l20 6q61 13 84 15q64 13 78 16 q24 95 39 285q8 95 18 180l2 21l17 10q39 20 72 20q58 0 96 -59q29 -42 35 -119l2 -12l-7 -8q-3 -10 -10 -58q-3 -40 0 -53q11 -19 15 -33l-17 -24q-31 -23 -35 -129q10 1 72 10q51 8 74 10h2q-9 19 -2 37v2l2 4q4 15 4 133q0 66 1.5 100.5t11.5 77.5t30 64q24 27 57 27h13 q18 -4 33 -14.5t22 -19t18 -24.5q15 -23 29 -31l16 -10v-24q-4 -39 -4 -123q-1 -22 -2 -65t-2 -64l29 -13q12 -6 22 -6q11 0 31 8q36 9 51 9q38 0 76 -27l18 -12l-4 -27v-2q2 -2 7 -2q15 -6 34 -23.5t27 -41.5q-2 -2 -5 -4.5t-10.5 -11t-11 -15.5t-6.5 -17.5t4 -17.5 q-8 -11 -16.5 -18t-13.5 -8l-5 -1q-39 -22 -139 -34q-35 -2 -86 -13q-4 -42 -6 -76q-1 -5 -3 -21.5t-3 -23.5q26 13 45 13h6q20 10 41 10q24 0 49.5 -16t37 -28t38.5 -42q25 -30 31 -35l10 -8l2 -14q2 -24 -12 -48v-8q-2 -27 -35 -49q-4 0 -8 -4l4 -27l-29 -8q-19 -8 -45 -8 q-16 0 -74 10q-40 8 -53 8q-5 0 -9 -1l-5 -1q-7 -13 -17 -62t-14 -97q-8 -74 -8 -176q0 -27 2 -39v-61t-13 -60.5t-40 -54.5l-6 -9h-11q-4 -2 -14 -2zM508 807q-13 -39 -19 -76q-1 -9 -3.5 -29t-2.5 -28q112 3 176 24q1 4 3.5 16.5t4.5 27t3 28.5q4 29 4 66h-10 q-47 0 -125 -21q-3 -1 -31 -8z" />
<glyph unicode="$" d="M711 -209q-15 0 -45 10q-24 6 -27 6q-2 0 -7 -1t-7 -1l-37 -8l-8 35q-4 13 -29 47q-2 3 -11 17.5t-13 21.5t-9.5 19.5t-7.5 23.5h-12q-72 0 -176 49q-8 3 -33 13.5t-40 15t-28 6.5l-10 2l-8 4q-79 63 -135 158q-60 108 -54 192l2 25l23 10q10 3 43 8q7 0 22 5l-8 36l39 9 q3 0 9.5 1t9.5 1q9 0 18.5 -3t15 -6t13 -8t8.5 -6l24 16l23 -28q67 -77 29 -137q20 -38 34 -48q7 0 14 -1.5t12.5 -3t12 -4.5t10 -5t9.5 -6t8 -5.5t7.5 -5.5t6.5 -5q9 -9 21 -17q23 10 51 10q6 0 10 -2q18 45 2 168q-12 104 -4 154q-16 38 -16 98v19q-13 9 -76 26 q-35 9 -52.5 14t-43.5 20.5t-39 37.5q-87 41 -123 152q-25 104 2 204l6 19q-2 7 2 20q6 21 41 56q17 13 19 18q-3 30 14 47q30 32 109 55q71 26 73 41l6 41l31 -6q0 32 10 62q9 50 7 55l-9 35l31 10q40 18 84 18q48 0 78 -18l12 -6l6 -10q18 -39 25 -88q9 -41 15 -50.5 t20 -9.5q12 0 20 2l12 2l15 -6q21 -11 42 -24.5t34.5 -22t36.5 -26t31 -23.5t35.5 -28t33.5 -27q15 -15 30 -25l15 -12v-17q0 -8 4 -14q12 -35 10 -59l-2 -15l-10 -10q-41 -41 -84 -41q-33 0 -60 18t-61 52q-22 20 -36 31.5t-34 21.5t-38 10t-33 -6q-6 -78 30 -209 q25 -107 27 -131q21 -6 66 -31q2 -1 7 -4.5t6.5 -4.5t6 -3.5t7.5 -3.5t7.5 -2t9.5 -1.5t11 -0.5h47l-4 -27q26 -13 31 -16q12 -12 14 -17q43 -16 75 -45t53 -68.5t33 -76t23 -84.5l6 -23l-16 -14q-2 -2 -8 -20q-11 -44 -31 -58q-6 -95 -90 -182q-68 -69 -184 -121 q-10 -16 -2 -82q4 -37 5 -58t-7 -52.5t-29 -51.5l-6 -6l-10 -4q-18 -6 -39 -6zM840 375q4 12 14 37q11 26 14.5 37t4.5 29.5t-7 35.5q-16 5 -61 37q-60 38 -74 41q0 -2 1 -5t1 -5l4 -13l-4 -10q-6 -13 4 -57q15 -67 13 -103q5 -7 8 -20q2 -10 2 -31v-16q-2 5 25.5 19.5 t54.5 23.5zM434 1135q-16 -8 -45 -45q-3 -5 -16 -23l-4 -4h-2q-29 -26 -17 -57q10 -32 43.5 -60.5t65.5 -40.5q0 112 -25 230z" />
<glyph unicode="%" horiz-adv-x="1820" d="M1026 66q5 -6 6 -14.5t0 -13.5l-2 -5l-31 -17q-33 -17 -65 -49q-19 -18 -32 -27.5t-40 -18.5t-61 -9h-19l-12 14h-2h-2q-15 -7 -27.5 -1.5t-23.5 -0.5q-13 9 -23 33.5t-20 24.5q-9 -1 -15 -7l-18 41q-15 50 -18.5 107.5t0 93.5t12.5 111q4 29 8 86l2 8l2 4q23 49 39 133 q14 60 21.5 87t25 69t39.5 67q-4 22 0 37l4 10l8 9q10 10 19 12q12 33 24 47q16 28 33 37q-2 57 74 145q11 12 37 49q-8 -2 -25 -5t-24 -5q-68 -22 -105 -22q-10 0 -16 2q0 -9 -4 -25q-1 -2 -3.5 -5t-3.5 -5q0 -5 -1 -14t-1 -11q-2 -6 -2 -16l11 -12l-2 -17q-4 -27 -10 -51 t-17.5 -59t-13.5 -43q-1 -3 -2 -8t-2 -7l-5 -12l-12 -6q-30 -23 -53 -23q-8 0 -12 2q-53 -68 -127 -112q-97 -60 -199 -60q-144 0 -236 127l-14 25q1 1 2.5 2t4 5.5t1.5 8.5q-1 9 -3.5 16t-6.5 14.5t-6 14.5l-8 7q2 43 8 59l-5 9q-6 4 -14 3q-4 11 0 23.5t9 19.5l6 6 q8 12 8 54q-4 41 4 69l4 15l6 4q-3 10 1.5 17t8 8t11.5 3q2 8 10 25q1 3 2 5.5t3 6.5t3 8l4 17l15 8q10 4 12 10t2 23q0 23 8 47q6 18 10 22q4 3 10 3.5t10 -0.5l5 -1l1 3q2 3 6 6.5t11 3.5q-2 20 -22 28q3 7 12.5 13.5t18.5 9.5l8 2l125 25q30 20 37 30l14 17l20 -2 q18 -2 37 -21q7 0 15 -4v2q22 7 32 23q6 1 11.5 -3t7.5 -8l2 -4q1 1 3.5 2t9 2.5t12 0t12 -8.5t10.5 -20q42 -2 92 -37q4 -2 35 -17q25 15 68 15h16h18h11q8 14 -4 30q15 7 30 8.5t23 -0.5l8 -3q29 -11 45 -11q9 0 18 1.5t19.5 5t16 5.5t19 8.5t17.5 8.5q64 31 103 31h10 q8 22 35 22h6v2q10 6 35 11q16 5 16 6q6 3 16 16q41 47 84 47h4q23 0 47 -24l5 -4q2 -3 4 -3h4l18 3l15 -13q9 -14 12 -28q10 -2 20 6q4 -3 7 -14.5t5 -22.5l1 -10q4 -66 -21 -91l-6 -6q0 -4 -2 -6q-3 -18 -18 -37q-5 -10 -7 -12q-1 -2 -2 -5t-2 -14t2 -24q-51 2 -84 -57 q-33 -46 -49 -58v-34l-22 -11q-7 -3 -13.5 -7t-13 -10t-10.5 -10.5t-10.5 -14t-9 -13.5l-10 -16t-9.5 -15q-33 -65 -76 -100q-4 -10 -16 -33t-17 -37q-34 -71 -53 -113t-42 -105t-38 -122q-4 -15 -13 -45.5t-13 -46.5q-37 -133 -45 -180q6 -6 47 -6h22q27 4 37 0 q-4 -28 17 -64t16 -51q-5 -10 -2 -16q2 -3 5.5 -4t6.5 -4zM541 956q20 36 24 84t-14 82q-18 29 -55 35q-18 -31 -52.5 -54.5t-68.5 -23.5h-2q-4 -4 -8 -16q-18 -27 -25 -40t-14.5 -32t-5 -34t13.5 -31q13 -11 17.5 -21t2.5 -14l-2 -4q3 0 13.5 -3t13.5 -3q2 -1 5 -2t5 -2 q18 12 72 36q66 27 80 43zM1712 315q-19 -24 6 -26q-2 -11 -10 -21.5t-15 -15.5l-7 -4q-5 -5 -11 -23q-2 -8 -10 -32l-1 -1q-1 0 -3 -1.5l-4 -3t-4 -3.5l-4 -4t-3.5 -4.5t-2 -4.5t0.5 -4.5t3 -4.5q5 -5 -1.5 -12.5t-15.5 -11.5l-10 -5l-2 -1l-4.5 -3t-4 -3.5t-3.5 -4 t-1.5 -4t0 -5t3 -6t6.5 -6.5q-3 -6 -9.5 -10.5t-12.5 -5.5l-5 -2q-11 -8 -24 -33q-16 -29 -27 -41l-10 -14q0 -18 -13 -31q-13 -18 -47 -22q-2 -1 -3.5 -2t-3.5 -6.5t5 -12.5q-7 -2 -17.5 -2t-16.5 1l-7 1h-4q0 -27 -10 -31q-5 -3 -18 1t-23 9l-10 5h-2q-13 0 -25 -6 q-5 -1 -18.5 -4t-20.5 -3q-22 0 -37 11h-8q-10 0 -16 2l-17 4q-26 9 -34 -14q-3 6 -11 16t-15 17l-7 7l-35 37q-6 5 -22 33q-6 19 -11 19l-12 2l-8 8q-8 12 -8 20q4 12 4 17q1 5 -12.5 16t-12.5 31q-20 4 -20 20l8 27q0 1 1 10t1 10q-9 18 -10.5 40t0 31.5t6.5 33.5 q8 25 7.5 35.5t-9.5 19.5l-19 18l9 21q10 33 43 125l6 27l12 6l-4 16l22 12q10 6 33 15q17 8 21 11t8 17l6 17l18 6q11 3 52 29q39 30 73 30q32 0 56 -16q28 9 39 16l20 11q18 -11 18 -13l31 2l2 -14h8l39 -10l-4 -15q2 0 6 -4h2q46 -2 85.5 -33t64.5 -86q1 0 2 -1t2 -1h2 q29 1 39 -28q-4 -4 -4 -10t2 -10l2 -3q1 -1 4.5 -6t6.5 -10t3 -8q-1 -1 -3 -2t-4.5 -4.5t-0.5 -6.5l10 -8l-4 -8l-8 -10v-2v-15q25 -40 4 -77zM1456 346q10 68 -8 105h-4h-10h-11q-4 0 -24 4q-13 -9 -31 -9q-5 0 -33 7l-4 -4q0 -5 2 -13l8 -24l-22 -19q-79 -58 -88 -127 q-7 -54 43 -116q9 -3 18 -3q35 0 52.5 18t39.5 75l7 16l16 8q12 3 27 26.5t22 55.5z" />
<glyph unicode="&#x26;" horiz-adv-x="1478" d="M575 -55q-10 -25 -20 -27q-4 -1 -12 4.5t-13 11.5l-6 5q-22 21 -44 27t-31 2t-17 3l-10.5 10.5t-9.5 7.5t-8.5 4.5t-9.5 2.5t-9.5 1t-12.5 0.5t-14 0.5q0 5 -3.5 10.5t-6.5 8.5l-4 3q-25 -13 -37 7l-8 22q-12 -4 -19.5 3t-17.5 27.5t-18 31.5q-20 20 -27 34l-27 37 q-62 65 -59 170q2 63 37 166l2 2q6 18 23 25q15 96 59 168l10 20l27 -2h6h4q1 1 4.5 11t5.5 14q15 50 45 71q0 3 1 8t1 7q9 25 31 37q3 15 27 51q-45 57 -64 127q-16 77 4 160l2 26l17 10q7 41 51 70l25 35q16 26 49 43q13 6 20 18t11 24t6 15q6 3 13 1t11 -4t9 -5l5 -4 q11 7 19 10q23 13 31 21q1 3 4 6.5t12.5 9t19.5 2.5q4 -5 10 -7.5t11 -2.5h4q23 0 35 -10q12 4 31 4q12 0 18 -2l6 -2l6 -2q76 -41 133 -66q2 -1 11.5 -6t13.5 -8l14 -4l4 -17q3 -7 11 -22.5t12 -24.5q2 -3 8 -15.5t8 -16.5t7.5 -16.5t6.5 -17t5.5 -17.5t3.5 -17.5t1.5 -18 t-1.5 -18.5l-2 -14l-10 -9q-54 -54 -136 -155q-83 -100 -127 -144q4 -19 9 -24q24 -6 34 -37q0 -6 2 -10q34 -28 84 -107q2 -3 12 -17t14 -19.5t13.5 -18.5t17 -21t18 -19.5t22.5 -23t26 -22.5q4 4 17 33q11 30 22 47q4 6 9.5 12.5t9.5 10t11.5 10t10.5 8.5q19 12 25 20 q3 3 6 10t6.5 17.5t5.5 15.5q10 37 27 57q5 11 18 17v8q0 31 8 49q10 15 -8 17q4 11 10.5 22.5t11.5 16.5l5 6q21 18 41 18q23 0 43 -20q3 0 9 1t9 1q24 0 44.5 -16t27.5 -46l2 -10q6 -3 12 -8.5t6 -7.5q19 -8 31 8q4 -5 8 -16.5t5 -19.5l2 -9q2 -8 2 -23q8 -31 -7 -65 q-1 -2 -5 -8.5t-4.5 -9t-2 -9.5t1.5 -12q-9 -2 -16 0t-11 6l-4 4q-6 -15 -6 -34.5t3 -31.5l3 -12q-3 -4 -8.5 -5t-9.5 0l-4 1q-3 -39 -31 -80q-16 -24 -16 -35q-4 -14 4 -32q-4 -6 -10.5 -8.5t-10.5 -1.5l-4 1q-2 -2 -2 -8q-8 -29 -14 -43q-4 -2 -7.5 0t-4.5 5l-2 3 q-21 -34 -52 -39q-4 -30 -10 -45q-12 -18 -14 -20h2q14 -4 37 4l10 -31q6 -20 19 -37t20.5 -22.5t34.5 -24.5q35 -22 47 -34l16 -13l-2 -18q0 -33 -22 -55q-8 -12 -9 -22t0.5 -16.5t1.5 -7.5q-2 -3 -11 -5.5t-17 -3.5l-8 -1h-4q-42 0 -82 17.5t-63.5 36.5t-53.5 49 q-54 47 -66 47q-6 0 -26 -29l-8 -16q-1 -1 -3 -2.5t-9 -3.5t-15 2q-30 -32 -115 -82q-10 -5 -22 -13q-42 -27 -77.5 -42.5t-56 -19t-38 -5t-23.5 1.5q-19 -4 -12 -21q-13 7 -32 6t-26 9zM455 211q30 -27 71 -27q48 0 158 54q25 41 90 79q35 18 53 39l-2 2q-43 16 -75 49 t-66 115q-33 10 -53 62q0 1 -1 2t-1 2q-21 5 -37 28q-2 3 -14 46v4q-34 -43 -59 -81.5t-46.5 -85.5t-31 -91t-7 -95t20.5 -102zM633 1116h5q16 0 24 1.5t17.5 12.5t14.5 33q1 4 3 11.5t3 11.5q12 25 23 28q1 4 3 17.5t3 17.5q0 1 -1 3t-1 3q-12 -12 -37 -12h-6 q-6 -5 -26 -12t-25 -10q-64 -42 -64 -109q0 -9 5 -20.5t12 -12.5q7 9 19 18t20 14z" />
<glyph unicode="'" horiz-adv-x="487" d="M174 936q-63 63 -78 162q-9 66 -2 176q4 108 0 162l-2 41l39 4q5 0 14.5 1t14.5 1q76 0 215 -56l16 -8l6 -16q8 -26 4 -70q-2 -4 -2 -14q25 2 29 -10q2 -5 -2 -17t-9 -21l-5 -9q-26 -39 -70 -287q-2 -19 -16 -33l6 -20l-15 -17q-17 -20 -45 -20q-19 0 -36 10l-6 -7 q-6 -1 -11 3z" />
<glyph unicode="(" horiz-adv-x="681" d="M451 -426q-22 0 -41 8l-15 4l-6 13q-2 3 -8 11.5t-10 14.5q-87 132 -105 221q-61 75 -119 228q-4 8 -12 28q-39 100 -55 240q-18 150 -10 260q0 7 6 55q8 64 4 84l-4 13l6 12q12 23 16 76l2 16l13 10q5 4 18 27q2 3 7.5 11.5t8.5 11.5q0 49 33 129q1 4 11.5 31t15.5 44 l2 11l8 8q16 16 33 16q6 7 14 41q14 42 21 53q7 12 32 33q1 1 5 3.5t6 4.5q0 28 8 39h2q7 9 27 19q5 32 14 47q5 7 24 18q1 0 3.5 1t3.5 1q15 20 18 23q21 25 34 38t39.5 26.5t57.5 13.5q13 0 19 -2h16l10 -15q5 -8 29 -24q40 -26 55 -54l10 -18l-10 -19q-7 -14 -13 -29.5 t-7 -17.5q-14 -32 -41 -59l-9 -8l-10 -2q-4 -2 -14 -2q-13 0 -19 2q-16 -16 -43 -64q-30 -49 -40 -61q3 -21 -9 -45l-4 -6l-8 -7q-22 -16 -65 -120q-37 -87 -60 -121q-9 -54 -10 -70q-12 -84 -29 -137q7 -163 29 -282.5t74 -229.5l2 -6v-4q14 -67 65 -174q44 -99 58 -142 q17 -10 26 -37q6 -14 10 -47q0 -4 1 -12t1 -12v-27l-22 -16q-2 -2 -12 -17q-36 -59 -88 -59z" />
<glyph unicode=")" horiz-adv-x="681" d="M227 -434q-38 0 -69.5 20t-46.5 54q-31 74 28 145q9 30 39 102q2 4 10 21t11 26l2 5q52 106 63 167v7l2 4q6 10 23 33l10 20q11 24 18 74q2 7 5.5 22.5t5.5 22.5q11 50 12 59q8 40 25 82q18 49 20 107q-1 6 -2 18t-2 18q-18 193 -43 306q-42 121 -110.5 218.5 t-121.5 135.5q-18 4 -51 39q-41 53 -57 84l-4 18l6 19l8 24q16 78 88 90h2h19q31 0 57.5 -13.5t39 -25t34.5 -36.5q15 -20 22 -27q5 -5 27 -43q2 -5 6.5 -14.5t5.5 -12.5q2 -1 7.5 -3t7.5 -3q24 -12 32 -26q0 -1 1 -3t2.5 -4.5t2.5 -5.5q193 -286 220 -516v-2q5 -54 12 -69 q1 -2 2 -5l6 -12l-4 -14q-3 -16 2 -31q7 -35 8 -49q0 -25 2 -39q6 -83 3.5 -125t-19.5 -59v-2q-4 -36 -4 -54q-4 -64 -12 -96q-5 -10 -5 -20q-10 -52 -16 -66q-9 -37 -33 -51q-15 -47 -26 -84q-17 -55 -21 -64l-12 -26l-31 -6q0 -1 -1 -4.5t-1 -4.5q-13 -38 -22 -53 q-19 -96 -105 -221q-9 -15 -16 -29l-8 -12l-15 -4q-18 -6 -39 -6z" />
<glyph unicode="*" horiz-adv-x="796" d="M326 750q-4 0 -11 1t-8 1l-26 6v16l-5 10l-24 4l-8 19q-15 45 2 147q0 4 2 15t2 16q-8 -4 -12 -4q-74 -20 -111 -20q-33 0 -55 16l-11 6l-4 10q-2 6 -3.5 14.5t-2.5 10.5q-2 6 -8 18l-14 19l-2 14q0 12 8 25v26l39 4h6q21 0 47 6.5t35 12.5l4 10l16 4q3 0 8.5 1t8.5 1 q33 7 45 17q-89 63 -142 81l-6 5l-6 4q-5 5 -9 12t-6.5 12.5t-6 16t-5.5 14.5q-1 2 -10 29l-18 14v27v4v2l2 45l39 2q157 -25 237 -111q2 5 5.5 14.5t5.5 14.5q22 55 22 98v4v4q0 10 6 19q3 15 10 29l9 18l10 45h22h5q19 0 69 -29q6 -3 17 -9t18.5 -10t11.5 -5l25 -4l6 -25 q11 -54 -2 -151l18 10l15 -6q4 4 6 4q2 1 9.5 6.5t12 8.5t13.5 6.5t18 4.5l25 2l12 -18q2 -4 27 -21q16 -8 26 -15t22 -24.5t17 -41.5l8 -25l-22 -14q-32 -23 -158 -80q-10 -4 -31 -14.5t-32 -14.5h2l26 -4l4 -27q3 -7 47 -51q3 -3 10 -9.5t12 -12t9 -9.5q39 -47 27 -90 q-4 -10 -10 -18t-14.5 -14.5t-16 -11t-18 -8.5t-16.5 -6t-15.5 -4.5t-10.5 -2.5l-20 -2l-14 14q0 2 -2 2h-2l-23 -2l-12 19q-9 17 -24.5 33t-28.5 22q-11 -27 -11 -94v-21v-16l-12 -10q-41 -41 -100 -41z" />
<glyph unicode="+" horiz-adv-x="1196" d="M625 172q-73 0 -117 86q-27 49 -36 114.5t7 114.5q-6 10 -12 54q-1 4 -2 12.5t-2 11.5q-24 -12 -88 -22q-39 -2 -51 -17l-17 -20l-28 4q-4 2 -15 2q-13 0 -41 -4q-46 -8 -73 -8h-21l-14 2l-13 12q-23 27 -47 96q-6 15 -14 31l-6 18l4 17q9 25 27 43.5t50.5 33.5t50.5 21 t60 19q70 20 86 30l19 11l22 -7q6 -6 27 -6q28 0 57 13q0 1 -1 4t-1 4q-6 21 -6 51q0 24 21 49q2 27 2 84q0 48 1 71t8 61.5t21 66.5q-4 4 -4 12q-3 6 0 14.5t3 12.5t5.5 11t7 9.5t7 8.5t6.5 7t4 4.5t4 4.5l14 16l23 6q34 -2 74 -14q22 -4 37 -8l14 -2l8 -15 q26 -40 35.5 -87t8.5 -74.5t-7 -77.5q-1 -14 -5 -34.5t-4 -27t3 -30.5l4 -23l-21 -14q0 -1 1 -22.5t1 -22.5h13q28 0 94 4q52 6 106 6q165 0 246 -101l15 -18l-9 -22q-28 -54 -88.5 -85.5t-138.5 -31.5q-44 0 -84 12q-44 -28 -127 -39q-9 -20 12 -69l7 -19l-9 -18 q-7 -12 -8.5 -27t3 -33.5t8 -29.5t12.5 -33l6 -15l-6 -18q-1 -1 -2.5 -5t-3 -10t-3.5 -10q-16 -97 -79 -135l-2 -4h-5q-18 -6 -34 -6z" />
<glyph unicode="," horiz-adv-x="569" d="M199 -330q-33 0 -58 19l-20 24l14 31q29 37 43 83t25 116q-27 12 -43 14l-17 2l-10 12q-38 50 -41 123q0 74 41 127q16 19 45 35q4 2 10.5 6.5t8.5 5.5q13 16 57 41q51 29 92 29q13 0 19 -2q41 -9 65 -47q19 -29 25 -72q10 -61 6 -147v-4q-2 -24 -21 -62q-12 -25 -14 -33 v-16q-5 -49 -16 -72q-8 -19 -35 -41q-16 -12 -19 -18q-1 -2 -12 -35q-10 -35 -18 -43q-10 -13 -26 -28t-45 -31.5t-56 -16.5z" />
<glyph unicode="-" horiz-adv-x="681" d="M100 387h-26l-25 2l-8 25q-16 43 2 116q1 5 3 14t3 15t0 10l-4 21l14 14q20 19 57.5 30.5t59.5 13.5t78 7q76 4 108 13l9 4l8 -2l18 -6l21 -7l16 15l21 -2q19 -6 61 -11q56 -6 68 -20l4 -6l2 -4l4 -8l31 -11l8 -32q-2 -6 4 -21q16 -27 16 -43q0 -65 -55 -92 q-36 -19 -90 -19q-37 0 -82 9h-6q-80 -25 -320 -25z" />
<glyph unicode="." horiz-adv-x="569" d="M238 -57q-46 0 -80 37l-13 12l2 18q2 13 -14 62q-1 3 -6.5 23.5t-7.5 31.5l-2 14l4 11q1 2 12 45q11 44 23 69q25 51 73 51q7 0 11 -2q26 23 63 23q27 0 78 -19q4 -1 13.5 -4t13.5 -4l16 -6l6 -14q18 -35 19.5 -75.5t-4.5 -63t-19 -58.5q-12 -40 -12 -53l-6 -25l-21 -10 q-7 -2 -23 -11t-20 -11q-2 -1 -9.5 -5.5l-10 -6t-9.5 -5.5t-10.5 -5.5l-10.5 -4.5t-11 -4.5t-10.5 -4t-11.5 -3t-11 -1.5t-12 -1z" />
<glyph unicode="/" horiz-adv-x="569" d="M121 -66q-1 0 -4 3h-11l-8 6q-7 5 -14.5 11.5t-15.5 14t-13 11.5q-35 35 -55 43l-29 10l4 30q31 240 138 527q-18 45 -7 74q17 -9 31 16q5 14 4.5 23t-3.5 13l-3 5q9 23 33 47q9 6 14 16q4 6 4 35q0 21 4 49q9 27 31 54l8 16v16q0 34 7 52q5 15 17.5 40.5t14.5 30.5 q4 7 12 22.5t12.5 26t6.5 19.5q2 6 2 24q5 56 27 82q0 5 2 9q6 29 30 53q1 15 5.5 30t8.5 24.5t11 23.5l10 20q22 35 25 47l2 23l20 6q21 6 37 6q21 0 41.5 -9.5t30 -17t27.5 -24.5l14 -15v-14q4 -46 -4 -94t-19 -80t-30 -80q-47 -115 -47 -182v-12l-7 -9q-24 -37 -44 -108 t-9 -146q-1 -1 -4 0t-8.5 -5.5t-9.5 -20.5t-3.5 -22t3.5 -10l2 -3q-8 -20 -27 -31q-3 -25 -25 -80q-9 -23 -10.5 -30t4.5 -19l11 -28l-21 -23q-11 -8 -27.5 -38.5t-29.5 -78.5q-29 -98 -21 -143l4 -31l-14 -8v-25v-20l-16 -12q-7 -7 -25 -47q-14 -36 -27 -56 q-27 -37 -67 -37z" />
<glyph unicode="0" d="M612 -35q-80 0 -194 31l-23 4l-10 16q-39 6 -86 62q-12 10 -33 31q-4 2 -6 4q-35 18 -59 45q-26 29 -29 63l-25 17v22q1 15 -4 31.5t-10 25.5t-18 29q-30 43 -39 78q-8 33 -4 100q0 83 -17 105l-8 16v21q32 96 84 311q5 21 15.5 63t15.5 64l4 14l14 8q35 22 41 103v37h33 l6 12q22 44 49 57q3 10 6.5 19t9.5 17.5t11 15t13.5 13.5t13.5 11.5t15.5 11.5t14 9.5t15.5 9.5t14 8q25 11 57 35l13 8h12h4q11 0 26.5 -2t20.5 -2q4 -2 12 -2h2l15 10l20 -6q9 -2 21 -10q1 0 3.5 1t4.5 1l14 6l15 -4q4 -1 12 -4t12 -4q18 -11 29 -11q6 0 14 4l27 15 l18 -27q34 -45 115 -82l12 -4l8 -12q72 -148 154 -416l2 -6v-10q-5 -14 -8 -19q1 -9 2 -28.5t2 -28.5q1 -63 2 -119t-11 -123.5t-38 -128.5q9 -72 -47 -159q-1 -3 -15 -31q-12 -27 -20 -55q-19 -66 -41 -99q-6 -9 -23 -18q0 -19 -12 -31l-8 -8q-12 -31 -68 -53 q-59 -62 -168 -62zM539 160q52 0 82 30v3q0 31 10 47q2 5 11.5 12t10.5 8l-6 29l23 20q2 1 14 13q4 2 16 14q8 51 45 194q2 6 10.5 38t10.5 40t9 35.5t8.5 38.5t6 35.5t5 38.5t2 34.5t0.5 38t-4 35.5q-17 41 -21 117q-8 75 -20 109h-7h-6l-12 2l-10 8q-8 8 -35 26 q-52 29 -66 72q-18 6 -30 21l-4 4l-2 6q-2 4 -2 14q-6 -6 -7 -8l-10 -10l-12 -2q-20 -4 -36 -13t-30 -29t-22 -33t-19 -45t-15 -44t-15 -51q-31 -104 -45 -136q2 -4 2 -10v-12l-4 -37l-23 -12q-12 -73 -17.5 -123t-2 -113t21.5 -110q9 -21 6 -49q0 -13 -2 -19 q42 -151 191 -227z" />
<glyph unicode="1" d="M457 -31q-81 0 -131 47q-53 56 -47 166l6 27l34 10q1 0 3.5 -1t3.5 -1q4 0 24 8q38 19 62 19h2q2 24 -2 118q-5 115 2 168q2 33 2 105q0 143 12 201q2 6 5.5 12.5t7.5 12.5t5 9l3 2q4 38 0 127q0 29 -3 66q-25 -28 -75 -31h-6q-56 0 -86 35q-27 30 -41 78l-7 20l13 17 q16 24 35 43q24 27 33 45t22 69l4 11l10 8q9 9 25 12q24 61 96 109q24 14 31 20l26 12l21 -10q21 -14 33 -20q65 -43 96 -78l8 -8l2 -8q2 -20 2 -72q-4 -34 0 -57l12 -7v-22q2 -112 -10 -383q-18 -356 -6 -588q47 -3 84 -22q58 -25 80 -91l2 -10v-10q-8 -41 -62 -88 q-53 -41 -102 -41q-19 0 -27 4q-6 -1 -20 -4t-23 -4q-8 -2 -36.5 -8t-42.5 -8.5t-37.5 -5.5t-42.5 -3z" />
<glyph unicode="2" d="M203 -57q-35 0 -62 6l-18 4l-6 16q-5 12 -31 47q-1 2 -7.5 10.5t-8.5 11t-8 11.5t-8.5 14t-7 15t-6.5 18t-5 19.5t-4 23.5l-2 17l8 12q20 31 33 59q38 82 75 105q0 8 5 28q12 19 18 21l2 16l12 13q24 16 60 77q18 30 27 43.5t29 35t42 34.5q12 37 34.5 74.5t37.5 55.5 t49 56q2 3 13.5 16t14.5 17t13 16t13.5 17t12 16.5t12.5 18.5t10.5 18.5t10 21t7.5 21t7 23.5l5 20l14 8q19 6 33 27l2 23l22 16q1 0 3 1t3 1q3 3 13 6q3 29 14 51q11 31 6 33l-10 10v17q0 11 6 20q-42 19 -55 23q-1 1 -3 2t-3 2q-10 -10 -29 -10q-4 0 -9 1t-7 1q-2 2 -7 2 l-16 -17l-18 9q-19 4 -27 12q-39 -10 -75.5 -33t-47.5 -53q-18 -45 -55 -85t-76 -40l-45 12q-31 9 -35 31q-4 8 -16 20q-56 65 -43 123l2 10l8 7q18 20 33 51q12 20 19.5 30.5t24 25t36.5 22.5q0 2 4 18l10 21l25 4h6q63 0 67 34l11 27l26 4q13 0 25 -6q16 4 18 4 q1 0 4.5 -1t5.5 -1l27 19l23 -21l12 6l4 23l41 -6q4 -2 29 -7q1 -1 3 -2l4 -2t5 -2q14 11 37 11h2l24 -3l11 -14q27 -1 57.5 -14t49 -26t48.5 -36q41 -29 64 -41l10 -4l8 -12q71 -121 31 -254q-17 -71 -86 -190q-3 -4 -7 -11l-7 -12q-65 -107 -78 -151l-6 -15l-13 -6 q-12 -6 -22 -16.5t-16 -18.5t-16.5 -25.5t-16.5 -25.5q-35 -77 -82 -109q-17 -53 -101 -149q-6 -8 -26.5 -33t-28.5 -39q16 8 37 17q57 25 76 53l6 8l14 4h17q29 0 45 -22q24 2 61 10q18 6 45 6q31 0 53 -10q65 20 115 20q128 0 199 -100l4 -25q-2 -1 -4.5 -3t-7 -8.5 t-3.5 -12.5t5 -12.5t8 -10t4 -4.5q0 -44 -41 -80q-39 -39 -84 -41q-4 -2 -6 -2q-20 0 -60 15q-4 0 -11.5 2t-10.5 2l-12 -19l-35 6q-14 7 -51 7q-72 0 -209 -29q-24 -4 -37 -4q-19 -3 -39.5 -9t-54 -18.5t-43.5 -15.5q-129 -49 -205 -49z" />
<glyph unicode="3" d="M459 -53q-109 0 -193 47l-16 6l-4 20q-4 19 -53 58q-58 36 -80 72q-40 58 -19 133l8 28h4v6q3 29 25 43q25 25 43 25q17 0 29 -14l30 -21l21 23q2 2 8 2q1 0 4 -1t4 -1l13 -2l8 -11q14 -12 18 -32q0 4 13 4l34 12l13 -35q20 -51 -13 -88v-2q42 -10 68 -10q28 0 117 24 q29 13 59 19q35 31 59 65.5t62 98.5l14 18l21 2q16 24 20 58q2 4 8 17t9 19v2q6 11 20 17q-7 10 -10 20q-16 37 -17 45q-6 21 5 43q-11 25 -57 45.5t-99 20.5q-79 0 -131 -49l-12 -12h-19q-18 2 -47 2q-19 0 -27 -2h-45h-14l-31 6l-6 32q-3 30 -33 48l-28 38q12 9 16 15 q2 5 1.5 7.5t-1.5 5.5l-2 3q-10 23 -10 49v35l35 4q39 4 65.5 26t63.5 70q3 3 8 9.5t8 9.5l4 8l8 4q76 30 144 101q57 60 73 122q-23 23 -69 23q-28 0 -90 -12q-57 -11 -84 -11q-22 -11 -37 -26q-38 -34 -70 -45q0 -19 -16 -56l-19 -26l-30 4q-86 28 -121 63q-55 53 -49 150 l2 18l14 13q55 34 107 55q78 40 108 65l16 11l19 -4q32 -9 51 -9q18 0 52 6t40 7q58 12 82 12q21 0 27 -2q8 -2 37 -2q38 0 65 -8q56 -13 111 -56q60 -43 82 -106q34 -100 -43 -215q-7 -23 -24.5 -47.5t-30.5 -38.5t-40 -41q-5 -5 -16.5 -16t-17.5 -17q146 -17 202 -82 q6 -5 21.5 -19.5t23.5 -21.5q48 -34 66 -67q32 -45 14 -90q11 -29 12 -65.5t-3 -62t-13 -69.5q-12 -57 -14 -88l-8 -29l-25 -6q-17 -69 -63.5 -137t-114.5 -125q-64 -53 -162 -98q-93 -37 -188 -37z" />
<glyph unicode="4" d="M774 -66q-5 0 -20 5l-6 4l-5 6q-30 34 -48 69.5t-25 76.5t-8 69.5t0 79.5v61q0 36 10 84q9 52 6 70q-8 35 -117 35q-51 0 -125 -11l-22 -2v3t-5.5 5.5t-15.5 4.5q-7 2 -13.5 -2.5t-9.5 -9.5l-3 -5l-35 17h-4q-9 0 -39 -13q-59 -22 -84 -22q-23 0 -35 4l-12 6l-8 14 q-5 11 -15.5 29t-13.5 23q-16 28 -24 46t-15 48t-6 63l2 29q6 4 8 12q2 5 2 12.5t-1 12.5l-1 4q3 12 25 16q-3 12 0 31l4 10l6 4q35 40 70 172q3 10 4 15q21 78 34 112l15 41h12q12 99 66 213l12 25l24 -4q15 0 23 -4q6 -2 10 -2h4l25 -5l33 -30q1 -1 2 -3t2 -3 q15 -12 28 -25q15 -10 21 -22q-10 -13 8 -19h14l11 -2l-2 -22q-3 -24 -13.5 -59.5t-19 -61.5t-8.5 -31q-1 -6 4 -14t10 -12l6 -5l-16 -30q-30 -30 -66 -144q-28 -82 -49 -125q1 0 3.5 -1t4.5 -1q4 -1 76 -6q84 0 119 -16q18 6 35 6q7 0 18 -1t16 -1q6 -2 19 -2q23 80 32 186 t8 170t-5 197q-6 153 -6 161l2 54l53 -21q32 -17 74 -30q13 -3 34 -11l17 -6l6 -14q4 -7 14 -47q5 -33 15 -43q4 -5 8.5 -9.5t7.5 -6.5l2 -1v-20q-3 -72 4 -168q8 -70 6.5 -161.5t-20.5 -168.5q1 -32 3 -47.5t9 -34.5t21 -29t37.5 -20t60.5 -18l41 -9l-10 -38 q-4 -19 -19 -66q-2 -5 -5.5 -17t-4.5 -16l-8 -24l-27 -2q-15 0 -45 -15q-31 -22 -55 -24q-22 -164 -8 -287v-20l-11 -13q7 -34 1.5 -71t-19.5 -66q-28 -53 -70 -53h-14q-13 -13 -31 -13z" />
<glyph unicode="5" d="M506 -51q-15 0 -25 2h-20l-8 16q-12 15 -45 23q-45 20 -54 26q-17 17 -24 31q-8 2 -15 6t-13 9t-9 6l-8 6q-7 11 -18.5 17.5t-18.5 7.5l-8 1q1 1 2.5 3.5t4 8.5t1.5 11q-13 6 -29 21.5t-26 31.5q-17 24 -17 51q-22 7 -31 31q-15 33 15 90l14 25l10 -2l9 -4l-3 12 q13 16 39 16q10 0 13 -8q-3 5 6 14l24 15q2 -2 5.5 -4.5t14.5 -8t22 -7.5t27 1.5t30 14.5q3 3 6 -4q7 -22 17 -30t22.5 -11t19.5 -9q-7 -17 10 -51q14 -29 3 -55q26 -39 75 -39q42 0 90 27.5t76 66.5l8 17l19 2l12 -7q-2 11 21 23q40 31 47 43q1 2 2 6.5t2 11t2 9.5 q4 50 24 80q27 30 -16 96q-33 33 -55 69q-1 2 -4 7.5t-4 7.5q-42 5 -91 37q-66 14 -114 14q-62 0 -129 -37q-11 -6 -28.5 -17.5t-20.5 -13.5q-91 -59 -164 -73l-19 -4l-14 12q-50 44 -72 92q-31 64 -10 121q-25 103 33 231q-2 10 -2 33q-2 47 -0.5 94t6.5 86.5t20.5 77 t42.5 66.5l19 16l24 -6q16 -6 33 -23q12 5 41 11q3 0 11 1t10 1q2 1 3.5 3.5t5 11t-0.5 17.5q7 2 18 0t18 -5l7 -3q15 -6 35 -6q23 0 63 12q63 15 80 15q27 0 65 -15q18 6 19 6q39 20 59 21l33 2q16 12 37 12q20 0 33 -16q36 20 86 20q31 0 47 -4l49 -10q-10 -16 8 -16 q16 0 25 -6l4 -2t3.5 -1.5t3.5 -1.5t3 -2q35 -24 39 -32q-5 -2 -6 -7.5t1 -10.5l1 -5q15 -7 35 -31l10 -18l-10 -21q-41 -84 -187 -84q-10 0 -28.5 1.5t-28.5 1.5q-7 0 -21.5 1t-21.5 1q-42 -24 -141 -29q-29 -4 -41 -12q-15 -10 -15 -23l-4 -8l-35 8q-31 14 -57 14 q-33 0 -43 -20l-10 -29l-29 2q-16 2 -37 2t-39 -4q-1 0 -3 -1t-3 -1q-9 -12 -12 -45q0 -43 8 -59l8 -19l-16 -28q0 -2 -1 -6.5t-3 -13t-4 -15.5v-12q134 61 278 61q68 0 105 -8q22 -4 31 -17t18 -16q15 -6 25 -6q6 0 8 2l18 2l14 -16q17 -19 80 -37q32 -3 64 -19l24 -8 q1 -1 2 -2.5t2.5 -6.5t0.5 -9q-3 -6 -8.5 -11.5t-6.5 -9.5q8 -1 15.5 -4.5t14.5 -11t12 -13.5t11 -17t9 -17l9 -18t7 -15q14 -35 25 -49q2 -1 4 -3.5t5.5 -9t2.5 -12.5q-5 -4 -8 -10t-4 -10v-4q-8 -15 26 -64l4 -10v-12q0 -28 -4 -64q-7 -46 -2 -74l2 -22l-16 -14 q-14 -7 -17 -58l-2 -16q-14 -3 -22 -21q-11 -16 -29 -24q-72 -137 -213 -217q-144 -80 -313 -80z" />
<glyph unicode="6" d="M535 -51q-132 29 -234 131q-70 70 -139 194h-21l-10 21q-71 160 -74 346q0 162 43 344l4 14l9 9q22 18 45 84q1 2 5 13.5t5.5 14.5t5.5 12.5t6 14t6.5 12t8 12t8.5 10t10 9.5q2 38 39 70q20 23 20 34l2 27l27 12q29 9 55 60l13 18l20 2q1 0 2 0.5t4 1.5l6 2q5 3 19 8 q66 72 162 72q55 0 113 -26t104 -70q84 -87 90 -189q11 -6 14 -10q17 -17 8 -47l-4 -18q0 -23 -6 -37l-16 -29l-29 4q-2 0 -5 1t-5 1t-8 -1t-9 -1q-4 0 -13 -1t-13 -1q-11 0 -31 4l-27 4l-4 27v6q-16 10 -27 23t-18 32.5t-9 26t-7 29.5q-12 53 -29 63q-2 -2 -6 -2 q-36 -16 -53 -25.5t-33 -25.5t-22 -37l-5 -18l-18 -9q-25 -8 -41 -30.5t-35 -63.5q-18 -35 -22 -47q-13 -16 12 -24q-4 -6 -12.5 -15.5t-15.5 -15.5l-7 -6q-25 -21 -40 -59.5t-19.5 -67t-9.5 -82.5q-3 -34 -9 -70q9 11 37 27v4l2 14l8 8q24 21 48 21l12 8q4 4 8 4q2 1 4.5 3 t7 9.5t-1.5 16.5q12 -3 24 -2t21 5l9 3q0 1 1 3t1 3q1 2 4.5 7t6.5 10.5t7 9.5l18 18l25 -6q2 -2 8 -2q8 0 18 4t11 10l8 23l23 2q45 6 118 6q68 4 82 8h6h9q8 -2 24 -10q4 2 17 2h8l16 -2l10 -12q4 -5 23 -17q3 -1 8 -4t8 -4q12 4 19 4q8 0 10 -2l16 -2l7 -8q12 -15 24 -27 q63 -75 90 -127l4 -8v-8q6 -183 -63 -330q-65 -138 -189 -233v-39l-20 -12q-10 -6 -30.5 -19.5t-30.5 -19.5q-37 -26 -61.5 -40.5t-60.5 -28t-69 -13.5q-2 0 -11 4t-20 4q-9 1 -17.5 -0.5t-12.5 -3.5zM592 197q16 16 26 16h9l22 -4q51 32 87.5 85.5t51.5 119.5l11 28l22 2 q5 10 17 19q8 12 8 26q28 61 35 99q9 45 2 59q-4 6 -31 10l-31 5l-10 14q-120 -18 -233 -107q-106 -92 -132 -192q6 -16 14.5 -20.5t28.5 -4.5q25 0 39 2q7 0 21.5 1t21.5 1l41 -4v-39q-1 -3 -2 -8.5t-2 -7.5v-2q2 -23 -4 -35q-14 -2 -22.5 -11t-15 -23.5t-9.5 -18.5l-4 -4 l33 6z" />
<glyph unicode="7" d="M332 -47q-2 -1 -6 -3.5t-7 -2.5l-8 -2l-8 2q-30 9 -43 39q-12 3 -18 6l-29 14l4 29q7 21 0 35q-3 7 -9.5 9.5t-11.5 1.5l-6 -1l-2 29q14 167 107 397q27 71 35 108q4 12 13.5 43t14.5 45t13.5 34t17.5 34q2 5 25 35q3 2 6.5 5.5t7 7.5t4.5 5q16 55 76 131q55 79 51 101 q-4 27 4 39l29 6q34 6 102 96q-12 -4 -18 -4q-10 0 -25 6q-50 -8 -73 -10q-62 -7 -84 -23l-23 -8l-22 12q-14 11 -35 11q-17 0 -29 -2q-6 -1 -18.5 -2t-18.5 -2q-5 -10 -24 -23l-2 -2h-5q-34 -12 -81 -12q-44 0 -80 8q-41 6 -47 14q9 11 13.5 22t4.5 16v5l2 2v25 q-24 -24 -45 26l-4 7v6q0 4 -1 11t-1 11q-11 104 -6 140l16 45l39 -15q28 -14 72 -22q5 -2 22 -10.5t25 -10.5q-5 10 4 19l24 14l19 -18l9 -4.5t11 -4.5q-10 19 17 54q3 -10 11 -17t15 -8l6 -2l19 -2q17 0 22 -16q1 5 5.5 9t9.5 5l4 2q3 0 8.5 1t7.5 1q3 0 35 -8l4 -2h2 l33 6l10 8l29 -12q2 0 14 -4q43 43 115 43q28 0 61 -11q23 9 39 9q2 0 6.5 -1t6.5 -1h12h8l12 16l19 -2q16 0 30 -14h13q8 0 21.5 -3.5t15.5 -3.5q4 0 10 -1t8 -1h2q29 -6 39 2q0 -7 3 -15t6 -13l3 -4q7 -33 54 -84q12 -14 30 -41l4 -10v-11q-1 -26 -12.5 -50.5t-33 -47 t-38 -36.5t-43.5 -34q-2 -2 -6 -4t-6 -4q-48 -89 -143 -223q-49 -72 -71.5 -107t-57.5 -95.5t-53.5 -111.5t-26.5 -102l-4 -16l-13 -8q-26 -21 -45 -84q-1 -3 -4.5 -14t-4.5 -14.5t-4.5 -13.5t-6 -14.5t-6.5 -13t-8 -14t-9.5 -12.5t-11.5 -13q3 -15 14 -59l3 -13l-7 -8 q-7 -17 -14 -24q0 -68 -6 -101q-15 -96 -74 -114q-23 -11 -37 -11l-2 19z" />
<glyph unicode="8" d="M627 -45q-25 4 -84 4q-50 1 -80.5 4.5t-72 20.5t-68.5 49l-41 2l-9 33q-3 16 -34 57q-18 24 -26.5 37.5t-15.5 34t-3 36.5q5 14 8 19q-5 32 -5.5 61.5t5 57.5t11 49.5t17.5 50t20.5 45.5t24.5 47q2 2 6 9t5 8l12 22q3 -1 8 -0.5t12 11t5 32.5q8 0 12.5 3.5t5.5 7.5v3 q-27 9 -39 9q-10 0 -14 -2q-3 -1 -8 -2.5t-17 -3.5t-20 -1q0 10 -3 20.5t-5 15.5l-3 5q-4 5 -53 33q-3 1 -12 4.5t-14 5.5l-7 5l-6 6q-67 79 -81.5 177.5t26.5 198.5l2 3q8 16 23 26v23v14l10 8q19 22 61 65.5t49 51.5q13 25 39 25h8q50 61 162 106q3 2 60 27l10 6h12 q141 -12 248 -80q60 -39 92 -84q6 25 23 39q11 39 49 39q21 0 29 -4q1 0 3 -1t3 -1l34 6l9 -33q15 -43 25 -61.5t34 -49.5l10 -12l-2 -16q-4 -23 -9 -44.5t-14.5 -44t-14.5 -35.5t-19.5 -37t-17.5 -29.5t-20.5 -32t-18.5 -27.5q-54 -73 -70 -109l-6 -14l-13 -4 q-29 -15 -53.5 -39.5t-32.5 -44.5l27 -35q6 -9 16 -19t17.5 -16t21.5 -16t21 -16q77 -54 108 -99q47 -70 29 -174q8 -49 0 -90q-11 -64 -51 -78q-33 -90 -129 -162q-69 -50 -199 -102l-12 -6zM428 268q0 -21 16 -37q31 -36 119 -36q27 0 41 2q62 43 107 45q11 20 57 73 q50 50 59 86q10 53 -14 80q-28 42 -106 54l-17 4q2 14 -12 16h-4q-15 0 -19 2q-16 4 -26 -8q-3 14 -9.5 21t-11.5 8h-6q-27 -7 -41 -21q-22 -17 -22 -27l2 -16l-11 -12q-17 -20 -34 -23q0 -8 -2 -12q-4 -29 -13 -47q-13 -28 -26 -35q0 -5 -1 -15.5t-1 -15.5q-4 -56 -25 -86z M408 877q65 -35 98 -35q19 0 31 6q7 4 18 18q39 43 70 56l12 24l25 6q6 4 16 29q2 3 7.5 14t10.5 19t11 14q-10 10 -15 27q-1 7 0 15t2 12l2 5q25 0 39 33q-6 6 -10 6q-1 0 -9.5 5.5t-13.5 9.5l-12 12v14q0 26 -15.5 45t-37.5 27l-16 -14q-17 -19 -41 -19q-32 0 -48 33h-2 q-16 -4 -26 -4q-7 -8 -9 -15.5t-1 -11.5l2 -4l-25 -6q-6 -2 -16 -2q-18 0 -27 6q-4 -2 -10 -8q-4 -3 -17.5 -13.5t-17.5 -14t-13.5 -11.5t-13 -13t-8 -12.5t-6.5 -15.5l-2 -16l-12 -8q-32 -21 -41.5 -65.5t4.5 -78.5q22 -65 76 -65h14l14 2z" />
<glyph unicode="9" d="M1020 762q0 -11 4 -35q8 -39 4 -59q-3 -32 -24 -50q0 -159 -117 -319q-11 -75 -44 -123.5t-95 -103.5q-2 -35 -35 -76q-22 -25 -58 -43q-16 -12 -20 -16l-12 -13l-19 2q-38 4 -66.5 12.5t-58.5 25.5t-48.5 49.5t-24.5 78.5l-3 21l19 14q70 50 138.5 150t101.5 175l34 74 q-6 17 -8 29q-3 8 0.5 15t10 13t16 21t16.5 35q-29 -27 -82 -45q2 -19 -16 -35l-15 -2q-55 -13 -63 -35l-8 -22q-22 -4 -45 0q-25 -21 -62 -21q-25 0 -53 8q-4 0 -11.5 1t-10.5 1t-3 -2q-2 -1 -6 -4t-6 -4q-13 -10 -28 -10h-5q-32 5 -60.5 21.5t-42.5 30t-38 40.5 q-33 43 -61 57l-21 15v24q7 55 -20 158q-13 51 -18.5 82.5t-2 73t22.5 69.5q-12 116 74 234q70 89 163 147q97 62 183 74q65 14 106 14q99 0 158 -53q6 2 20 2h8l31 -2l4 -31q0 -25 54 -75q57 -50 98 -70l18 -10v-21l-2 -32q2 -7 9.5 -11t14.5 -4h7l-14 -39 q-4 -7 -6.5 -14.5t-3.5 -17t-1.5 -16.5t1 -20t2 -19.5t3.5 -22t4 -21t4.5 -23.5t4.5 -22q16 -72 20 -115q1 -15 -10 -71q-6 -24 -6 -39zM713 963q11 37 16.5 81.5t0.5 95t-23 83.5q-18 34 -45 43q-10 2 -29 2q-47 0 -119 -35q-4 -2 -13.5 -6t-13.5 -6q-56 -27 -73 -39 q-2 -2 -41 -58q-22 -46 -49 -67q-8 -49 -9 -103t10 -111.5t35 -88.5q20 -26 54 -33q55 25 99.5 55.5t68 52.5t63.5 64q11 11 33 34t35 36z" />
<glyph unicode=":" horiz-adv-x="681" d="M283 -47q-42 0 -80 35l-10 14l2 16q1 9 -15 64q-3 10 -16 55l-2 13l6 12q3 8 12 43q8 34 21 71q28 50 78 50h6q31 22 65 22q17 0 78 -18q19 -9 27 -11l16 -4l4 -14q18 -35 20 -75t-4 -63.5t-18 -58.5q-14 -47 -14 -55v-24l-25 -11q-23 -8 -43 -22q-71 -39 -108 -39z M397 729q-25 0 -41 19q-32 -9 -45 -9q-24 0 -47.5 10.5t-35.5 20t-35 29.5q-5 4 -14.5 12t-14.5 12l-14 11v20q0 99 73 178q76 82 160 82q92 0 137 -100l4 -10l-2 -13q-2 -13 -2 -57q0 -37 -6 -55q-6 -21 -33 -41q-16 -76 -47 -97q-21 -12 -37 -12z" />
<glyph unicode=";" horiz-adv-x="681" d="M250 -322q-28 0 -55 19l-33 27l26 30q47 58 66 197q-21 12 -43 14l-14 2l-11 13q-38 49 -41 124q0 78 41 127q12 16 45 35q3 2 9.5 5.5t7.5 4.5q22 22 59 41q54 31 90 31q15 0 21 -2q40 -9 63 -47q21 -30 27 -72q9 -53 4 -147v-4q0 -24 -18 -64q-13 -22 -15 -32 q-2 -2 -2 -17q-6 -54 -14 -72q-4 -7 -10 -14.5t-14 -15t-11 -11.5q-14 -7 -18 -18q-4 -4 -15 -33q-4 -31 -16 -45q-10 -13 -26 -28t-45.5 -31.5t-57.5 -16.5zM397 729q-25 0 -41 19q-32 -9 -45 -9q-24 0 -47.5 10.5t-35.5 20t-35 29.5q-5 4 -14.5 12t-14.5 12l-14 11v20 q0 99 73 178q76 82 160 82q92 0 137 -100l4 -10l-2 -13q-2 -13 -2 -57q0 -37 -6 -55q-6 -21 -33 -41q-16 -76 -47 -97q-21 -12 -37 -12z" />
<glyph unicode="&#x3c;" horiz-adv-x="1196" d="M918 154q-16 14 -48 28q-76 37 -100 80q-78 19 -182 82q-85 45 -144 66l-8 2l-4 4q-11 8 -22 15.5t-24 14.5t-22.5 12t-25.5 12t-23 10.5t-26 11.5t-25 10q-10 4 -33.5 14t-37 16t-33 15.5t-36 19.5t-32.5 21l-10 8l-6 22l-23 5q-16 8 -18 30q0 9 -8 11t-11 -2 q-4 5 -5 13.5t0 14.5l1 6q5 44 21.5 80t36 57t52.5 40.5t54 28t57 20.5q91 27 123 59l6 8l11 2q36 9 71 21t74.5 29t64 27.5t72.5 33.5t66 31q220 111 375 155l39 6l10 -39q2 -8 14 -30q0 -1 3.5 -7t4.5 -8l4 -8t4 -9t3 -9.5t3 -11t2 -11t1 -12.5t-0.5 -13t-1.5 -14l-2 -18 l-17 -10q-53 -33 -119 -62q-120 -57 -153 -90l-8 -8l-9 -4q-28 -9 -53.5 -19t-58.5 -25.5t-44 -20.5t-54.5 -27t-45.5 -23q-55 -32 -182 -92q0 -10 -12 -18q40 -28 117 -60q87 -42 108 -57q14 -7 35 -21q50 -37 88 -37h2h17l12 -14q14 -16 94 -45l18 -27q75 -20 158 -116 l12 -17l-6 -18q0 -11 -6 -17q8 -16 8 -28l2 -27l-24 -12q-3 -1 -29 -14q-36 -15 -63 -39l-25 -17z" />
<glyph unicode="=" horiz-adv-x="1196" d="M303 328q-33 0 -57 24q-2 -2 -10 -2q-36 -8 -64 -8q-58 0 -100 31l-13 8l-4 10q-24 77 0 123q19 36 80 57l2 2q30 48 115 48h16h17q35 0 43 4l28 8l31 -21q12 -4 16 -8q111 19 349 35q269 22 352 35l31 2l10 -23q1 -3 4 -10t4 -10q67 -127 14 -195l-10 -10l-12 -2 q-20 -5 -44 -9.5t-43.5 -8t-49.5 -7.5t-46.5 -6t-53 -5t-50 -4t-54.5 -3.5t-51 -3.5t-56 -3.5t-52 -2.5q-122 -6 -223 -15q-26 -3 -60 -14q-40 -16 -59 -16zM864 813q-63 0 -225 18q-152 15 -184 15q-40 0 -56 -2q-7 -6 -34 -15l-11 -8l-14 4q-2 2 -6 2q-10 4 -43 4h-35 q-12 -2 -43 -2q-98 0 -162 37l-20 8l-2 21q-4 40 8 90q1 4 6 29l8 39l37 -6q17 -5 45 -5q37 0 103 15q61 14 110 14q33 0 60 -6q37 16 69 16q38 0 100 -24q49 12 105 12q75 0 156 -18q24 14 53 14q26 0 59 -10l6 10q5 3 13.5 5.5t29 -4t35.5 -30.5q5 -2 13.5 0t11.5 0 q5 -2 8.5 -10.5t4.5 -16.5l1 -8q2 -10 -2 -26q27 -13 29 -51l2 -15l-10 -12q-4 -4 -12 -10.5t-11 -9.5q-10 -7 -10 -17l-4 -31l-29 -4q-80 -12 -160 -12z" />
<glyph unicode="&#x3e;" horiz-adv-x="1196" d="M133 225q-2 0 -8 6l-4 5h-15q-31 0 -50 19t-21 50q-2 46 29 98.5t79 65.5q25 30 64.5 61.5t54.5 34.5q-4 6 -3.5 11t3.5 8l2 4l90 39q60 27 125 65q114 69 205 92q0 2 2 2q-9 3 -30.5 11.5t-32.5 11.5q-189 67 -312 82l-10 2l-10 10q-23 20 -90 47q-32 12 -52.5 21 t-48 28t-45.5 43q-2 3 -4 6.5t-6 14t0 14.5q12 0 18 17q4 19 0 30q-7 25 -4 50q7 41 47 53q12 4 21 4q38 0 111 -45q3 0 9.5 1t10.5 1q63 0 102 -49q36 -2 95 -27h10q31 0 70 -29l16 -8q17 -8 29 4q3 -7 9 -13t11 -8l4 -3q2 0 6 1t6 1q4 0 14 1t17 1h15q20 -2 24 -4 q-1 -5 1.5 -10.5t5.5 -8.5l3 -2q26 -6 33 -10q3 0 8 1t8 1l48 -6q24 -6 47 -6q47 0 57 4q3 -10 9 -16t11 -6l5 -1h2q8 0 16 2q15 2 29 0q0 -6 4 -12.5t8 -10.5l4 -3q1 -1 35 -8q21 -4 35 -9l26 -6l2 -26q2 -19 31 -45q16 -16 25 -27t17.5 -33t6.5 -47l-10 -41q-1 1 -2.5 2 t-6 2t-7.5 -2q-5 -3 -8 -7t-3 -6v-3l-22 -10q-320 -134 -610 -320q-1 -2 -4 -4l-3 -2l-2 -4q-2 -9 -7 -16t-8.5 -9.5t-15.5 -9.5t-16 -10q-19 -14 -14 -29q1 -3 -5.5 -9.5t-12.5 -11.5l-7 -6q-8 -9 -17 -16.5t-16 -12.5t-18 -9t-16 -6.5t-17 -5t-15 -3t-17 -2.5t-15 -2 q-42 -3 -82 -18q-3 -1 -8 -2t-16.5 -2t-18.5 0z" />
<glyph unicode="?" horiz-adv-x="1251" d="M641 -43q-42 0 -81.5 9.5t-72.5 34.5t-41 62q-18 64 29 127q44 57 109 72h6h8q33 -3 60 -18t42 -30.5t29 -43.5t18 -39.5t11 -34.5q2 -2 2 -6q1 -3 2 -8.5t2 -18t0 -20.5q-2 -4 -6 -6t-7 -2h-3q-3 -6 -3 -10q-10 -24 -28 -33q0 -19 -4 -23q-3 -3 -10 -5.5t-13 -3.5l-6 -1 q-14 -2 -43 -2zM623 311q-7 0 -19 -4q-24 -8 -37 -8q-3 0 -7.5 1t-6.5 1q-23 7 -29 18q-8 -6 -20 0q-6 3 -9 12.5t-3 18.5v8q-3 34 -27 58l-8 10v10q-19 129 8 215q35 95 135 166q18 21 58.5 55t70.5 46q3 1 10.5 5.5t10.5 6.5q38 38 86 59q32 38 46.5 91.5t4.5 97.5 q-15 63 -80 84l-8 4l-6 4q-1 2 -4 5t-4.5 5.5t-2.5 5.5h-6q-10 2 -28 2q-8 0 -16 -1t-9 -1l-8 -24l-31 6q-16 2 -49 2q-88 0 -164 -45q-74 -47 -90 -113l-8 -33h-8q-9 -27 -15 -43l-12 -32l-27 8q-20 -15 -37 -15q-6 0 -10 2h-8l-8 9q-12 8 -27 14q-3 3 -24.5 16.5 t-30.5 22.5q-22 22 -27 37q-14 7 -26 22l-7 13l3 12q10 107 73 201q79 111 191 133q10 4 37 4h20h19q16 0 22 2q-4 25 6 31q7 2 17 0.5t19 -3.5l9 -2l6 -1q5 -1 11 -1q21 0 75 13q45 10 68 10q33 0 49 -19q90 -10 154 -43q86 -39 147 -106q117 -123 111 -272l-2 -48l-19 5 q1 -3 2 -8t2 -7q17 -82 -2 -127v-2h-2q-17 -38 -44 -74t-52 -60.5t-64.5 -53t-62.5 -43t-65 -39.5l-13 -6l-12 2h-8q-29 0 -54.5 -16t-39.5 -42q-26 -47 2 -96l6 -10v-12q0 -5 -2 -11q20 -37 16 -75l-4 -17l-12 -10q-2 -2 -21 -8l-4 -2l-2 -6q-10 -20 -27 -23q-7 -2 -16 0 t-15 5z" />
<glyph unicode="@" horiz-adv-x="1996" d="M1042 -428q-7 -7 -24.5 -16.5t-28.5 -10.5q-1 1 -2.5 3.5t-7 5.5t-10.5 2l-27 -5q-58 11 -88 15q-85 13 -127 18l-35 4q13 29 -16 43q-12 -6 -31 -6q-14 0 -22 2l-27 6l-4 27q-2 8 -6 10.5t-25 3.5q-4 2 -8 2l-57 11q6 4 6 14q0 3 -4.5 4t-9.5 0.5t-7 1.5q-1 1 -2.5 3 t-5.5 5t-7 4t-6.5 -2t-4.5 -12q-4 2 -8.5 13.5t-7.5 22.5l-3 11q-5 13 -16 17q-29 10 -43 28q-10 13 -15 29h-18l-12 18q-16 26 -78 88q-31 31 -47.5 49.5t-38.5 50t-30.5 63.5t-4.5 67q-19 27 -43 94q-18 53 -24 63l-9 15l6 20l-14 17l4 18q2 14 2 39q-4 25 2 53 q-12 48 -13.5 95.5t9.5 96.5t21.5 81t29.5 82q41 107 48 157l4 23l22 8q29 12 52.5 34.5t54.5 61.5q3 3 14 16.5t14.5 18t14 16.5t16.5 17t16.5 14t19 14t19.5 10.5t23 8.5q0 1 -1 7t-1 7q-2 1 -4.5 3.5t-6.5 11t3 18.5l47 10q20 3 90 41q93 56 156 62v6l4 26l28 7 q10 4 37 4h23h16q18 0 21 6q6 22 14 26q4 2 11 1.5t13 -1.5l7 -2q9 -2 22.5 -5.5t18.5 -4.5l2 2q2 3 5.5 6.5t12 9.5t14.5 5q6 0 13 -6.5t11 -12.5l3 -6q2 -2 8 -2q9 0 25 4q12 4 18 4l8 8q35 25 60 25q23 0 39 -16q12 4 12 20q6 1 15 0t14 -3l6 -1q24 -8 43 -8q8 0 14 2h23 q16 0 26 -2h6l7 16l38 -20q11 -7 48 -15q49 -9 73 -20h11q21 0 49 -16q26 -13 32 -13q5 0 7 2q22 5 28 9q7 -4 12.5 -14.5t6.5 -18.5l2 -8q9 0 18 -3l10 -2l7 -6q29 -23 104 -75q47 -33 67.5 -49t56 -48t60.5 -66t45 -77l2 -6v-4q3 -19 0 -31q1 -2 5 -5l4 -3l22 -27 q-1 -1 -3 -2t-4.5 -6.5t-0.5 -11.5q1 -4 5 -9t8 -8l3 -2q1 -25 -22 -39q15 -33 17.5 -80.5t-1.5 -80.5q-4 -69 0 -82l2 -4v-7q0 -1 0.5 -6t0 -8.5t-1.5 -8.5t-3.5 -9t-7.5 -7q0 -34 -20 -67q-8 -12 -13 -17q-3 -5 -3 -14t3 -18l2 -8q-4 -17 -18 -25q5 -41 2 -59l-2 -23 l-21 -8q-27 -11 -36 -18.5t-17 -22.5q-11 -23 -20 -33l2 -4l-15 -47q-15 -43 -49 -43q-11 0 -20 6q-16 -25 -21 -45l29 -6q1 -1 4 -2t4 -2q18 -4 28.5 -8t27 -12.5t26.5 -23.5t14 -36l11 -45l-7 -6q0 -21 -10 -33l-18 -27l-13 -2l-6 -6q-2 -10 -7 -18t-15 -15t-14.5 -9.5 t-16.5 -8.5q-12 -4 -18 -10l-15 -11q-3 -15 -16 -28l-25 -23l-24 17q-2 0 -7 -1t-8 -1q-4 -22 -14 -35q-17 -21 -41 -21q-6 0 -18 4q-5 -8 -17 -12q2 -3 5 -6.5t8 -14.5t0 -16l-45 -8q-3 -1 -8.5 -2t-8.5 -2q8 -19 0 -33l-51 12h-12q-17 0 -31 -11t-35 -36q-4 -4 -4 -6 q-21 -33 -33 -39q2 13 -5 21.5t-15 11.5l-8 2q0 2 -2 2q-1 0 -2 -0.5t-4 -2.5t-4.5 -4.5t-1.5 -6.5t3 -8l-32 -7q-75 -19 -86 -34l-19 -25l-28 12q-32 9 -48 9q-12 0 -26 -7q-9 -28 -23 -32q-7 -2 -16 1.5t-14 8.5zM821 -152q35 -16 152 -16q39 0 53 -2h31q145 0 241 68l9 6 h10q58 7 101.5 32.5t97.5 71.5q35 30 56 46t57 33.5t71 23.5q2 4 8 10q9 9 27 18l-19 2h-4q-4 0 -8 -1l-4 -1l-6 -26l-25 -4q-9 -3 -16 -3t-13 3q-68 -74 -192 -74q-25 0 -37 2q-2 0 -2 -2q-17 -23 -41 -29l-6 -2h-8q-28 2 -51 10.5t-41.5 25t-27 27t-24.5 31.5 q-18 27 -39 45q-21 -24 -53 -45.5t-54 -32.5t-63 -30q-76 -35 -92 -53l-14 -15l-18 4q-6 0 -17 1t-16 1q-119 13 -182 35l-15 6l-6 11l-18 30q-43 71 -70 86l-14 11l-7 16q-10 41 -18 135q-4 48 -8 74q-1 7 -3 21.5t-3 21.5q-13 74 -11 104q0 11 3 23t12.5 35t15 34.5 t23.5 49.5q25 52 28 67q11 47 43 72q5 30 15.5 53t27.5 40t28.5 25.5t33.5 22.5q43 22 67 58l15 18l24 -2h4q6 0 12.5 2t11.5 3.5t12.5 6.5t11 7t12.5 9t12 9q53 45 92 45q9 0 29 -4q40 12 80 12q41 0 80 -15.5t59.5 -30t48.5 -38.5q2 -2 8 -2q148 -26 177 -141l4 -13 l-4 -12q-7 -13 -11 -31q-5 -23 -10 -32q0 -3 1 -11t1 -12q0 -15 -12 -61q-12 -35 -14 -62l-7 -43q-6 8 -16 8q-3 0 -5 -1.5t-2 -2.5l-1 -2q0 -11 8 -24q19 -38 6 -66q-6 -15 -16 -22l10 -35v-8q-6 -31 -43 -99l-18 -30q1 -3 3 -6q0 -2 0.5 -3t0.5 -2h8q13 0 74 21 q8 2 23.5 7.5t17.5 6.5q8 8 14 12q4 17 -2 31q3 4 13 8t19 5l9 2h4q7 0 22 -5q4 3 11.5 9.5t11.5 9.5q90 72 123 129q-8 19 0 37q7 20 28 28q21 69 23 138.5t-7.5 113t-23.5 70.5q-47 93 -156.5 170t-252.5 96q-7 0 -23 4q-42 6 -51 6h-6l-15 -10l-20 6q-33 11 -68 11 q-46 0 -65 -13l-12 -12l-19 2q-14 2 -37 2q-42 0 -84 -20q-54 -23 -96 -29q-52 -42 -135 -74q-34 -15 -49 -22.5t-39 -22.5t-39 -32.5t-25 -41.5l-4 -12l-10 -6q-32 -21 -57.5 -60.5t-57.5 -103.5q-30 -61 -55 -98q-9 -32 -11 -67t4 -85.5t9.5 -72t15.5 -86.5 q22 -124 25 -152q38 -38 29 -80q78 -98 196 -184q65 -49 116 -72.5t75 -23.5h2h8zM815 309q4 0 11 -1t10 -1q53 0 116 29.5t113 71.5q-9 13 -6 26q0 23 18 41l10 8l7 2q1 1 4.5 6t5.5 7q12 16 20 22q5 39 31 133q8 26 11.5 36.5t10.5 35.5t7 36.5t2.5 39t-2.5 41.5h-10 q-48 0 -91 -6q-16 -3 -27 -6.5t-14 -5.5l-2 -3l-8 -16l-18 -4q-36 -8 -68.5 -25.5t-60.5 -43.5t-43.5 -65t-12.5 -85v-21l-14 -12q-17 -17 -27 -66q-8 -33 -8 -67l27 -25l-31 -29q2 -3 8.5 -11t8.5 -11q14 -17 22 -31z" />
<glyph unicode="A" horiz-adv-x="1478" d="M113 -41q-4 10 -37 43q-53 53 -66 90l-4 33l17 12q0 21 10 39q4 2 6 4l-4 8t-4 11q0 27 20 47l6 6q-5 53 31 92q3 27 25 55q6 9 18 21q-11 29 2 88q11 36 4 72l-6 24l19 17q9 6 16 6q4 17 -6 35q9 4 23 5t24 0l10 -1l2 2q4 11 21 32l-2 5q-5 14 -21 22q-3 8 3 15.5 t13 10.5l7 3l4 10q4 11 8 12q-1 1 -2.5 3t-5 7.5t-5 10t-0.5 9.5t5 7q5 3 11.5 3.5t10.5 -0.5l4 -1q3 25 19 68q8 17 21.5 28.5t22.5 14.5l9 2v4q0 27 2 39q8 21 18 28q-7 58 37 93l9 6h16q-10 27 0 35q4 -4 8.5 -4.5t7.5 1.5l2 1q0 2 3 4t4 4q-8 23 0 37q6 -3 11 -2.5 t8 2.5l3 2v32l4 19l21 10q59 29 77.5 47t42.5 76l9 22l14 3q-6 14 0 26l27 12q37 11 63 11q66 0 174 -64q17 -18 21 -24q-4 -8 -4.5 -15t0.5 -11l2 -3l-2 -6q0 -2 4 -10q12 -29 10 -52q48 -70 98 -200q50 -129 98 -193q5 4 33 8q11 0 17 2l28 -4l15 -20q0 -6 37 -10l38 -5 l5 -24l16 -4l10 -37q8 -32 -2 -59.5t-22.5 -39t-34.5 -28.5q-3 -2 -9 -6.5t-8.5 -7t-5.5 -6t-4 -7.5q-12 -51 68 -143l10 -10v-17q1 -23 39 -104q47 -75 49 -141q0 -10 9.5 -30t11.5 -26q15 -26 22.5 -46t3 -55.5t-30.5 -70.5l-8 -14l-18 -4q-1 0 -5 4q-3 3 -3 2 q-1 -1 -4 -8.5t-7 -9.5h-4h-4l-20 -5q-3 0 -12 3.5t-11 3.5q-1 0 -6 -5.5t-6 -5.5q3 0 -12 -10l-7 -4q-44 44 -80 104t-51 95.5t-43 109.5q-40 96 -41 99q-5 5 -10 10.5t-9.5 13t-7.5 13.5t-7.5 16t-6.5 15l-7 17.5t-7 16.5q-2 5 -9 21t-11 23.5t-10 19.5t-12 20.5t-13 15.5 q-60 -15 -131 -43q-157 -55 -254 -69l-4 -2q-3 -3 -5.5 -5t-5.5 -6.5t-4 -9.5q0 -14 -8 -14l-24 2h-7q-68 0 -110 -27l-2 -22l-47 -49q0 -3 -4 -7q-1 0 -5 -4q-4 -6 -14 -16q-4 -4 -6 -8q-14 -29 -25 -84q-8 -37 -13.5 -59.5t-18 -56t-27 -54t-38.5 -38.5t-54 -24l-39 -4z M502 662h2q224 77 319 77q19 0 25 -4q28 25 65 31q-12 33 -67 125q-61 100 -72 151q-9 6 -20 21q-10 25 -11 29q-28 -57 -67 -62q-49 -67 -98 -172q-34 -71 -68 -131q-7 -18 -10 -37q-1 -3 -3 -10t-3 -10z" />
<glyph unicode="B" horiz-adv-x="1478" d="M651 -55q-54 0 -110 16q-6 -2 -19 -2q-12 0 -22 -4l-29 -6l-16 24h-4h-5h-12q-21 0 -31 4q-111 34 -182 117q-71 85 -71 211v39h26l6 14l31 -2q41 -1 60 -7t44 -23q1 0 9 -4l4 -7q-4 78 -8 117q-1 14 -6 62.5t-6.5 65.5t-5.5 62.5t-5.5 66.5l-4.5 63t-4.5 67.5t-3 64 t-2 68.5t-0.5 65.5t1 69.5v15v47q-9 -14 -27 -29l-22 -16l-23 12q-13 7 -31 21q-14 12 -30 12h-39l-2 37q-1 70 29 128t77 95q-13 26 -6 43q6 22 27 29q40 10 55 10q36 0 76 -21q76 8 84 9q114 20 170 20q59 0 151 -20l10 -4l13 -11q4 -7 31 -14.5t49 -7.5h8l6 -2 q83 -35 188 -121q39 -30 58 -43l8 -8l4 -15q14 -48 16 -69q14 -61 27 -97l10 -16l-10 -14q-3 -6 0 -27q6 -15 6 -39q0 -28 -12.5 -57.5t-26 -47.5t-37.5 -46q-22 -26 -32 -43q24 8 45 8h4h14l10 -12q18 -16 56 -31q24 -10 39.5 -18.5t44 -34.5t55.5 -66v-4v-2 q65 -155 -6 -311q-33 -68 -88 -122.5t-125 -84.5q-1 0 -5.5 -5.5t-7.5 -9.5q-3 -9 -16 -22l-8 -4l-4 -4q-140 -62 -246 -95.5t-201 -33.5zM614 166q2 0 4 -1t3 -1q6 2 18 8l12 6l13 -2q6 -2 22 -2q55 0 166 51q6 2 27 11.5t30 13t26 10t30 9.5t26 5q19 22 60 50q50 32 67 67 q6 15 6 27q2 9 13 35q-35 80 -117 122h-51q-47 3 -82 3q-89 0 -158 -10t-158 -38q0 -34 -0.5 -46.5t2.5 -42.5t4.5 -40t6 -38.5t6.5 -38.5q22 -89 24 -158zM477 1247q33 -112 33 -315q0 -84 6 -172q19 5 49 18q59 19 82 19q17 0 35 -6q2 2 6 5t6 5q35 22 64 22q6 0 26 -4 q6 4 50 37q36 25 54.5 39t40.5 38t28 46t4 55t-17 72q-12 5 -24 13t-19 13.5t-21 18.5t-20 18q-27 35 -47 45q-53 31 -139 31h-33q-7 0 -18 -1t-17 -1q-38 0 -82 6q-14 -2 -35 -2h-12z" />
<glyph unicode="C" horiz-adv-x="1478" d="M664 -74q-36 0 -66 6q-315 62 -438 320v4l-2 2q-2 6 -7.5 22t-7.5 25q-57 186 -70 270q-24 160 27 263q14 24 35 36q2 16 2 52q1 37 3 57.5t10 54t26.5 60.5t48.5 49v45l21 12q6 3 11 6.5t11 9t9.5 8.5t10.5 10.5t9.5 10t10.5 12t9 11.5q4 4 19 18.5t21.5 20.5t20.5 17.5 t23.5 17.5t23.5 13t28 11q15 45 65 76q24 14 35 29l8 10l17 4q8 2 24 2h14q14 15 25 18q21 9 49 9q16 0 74 -15q30 -10 45 -10q8 0 14 6l15 12h16q70 -3 123 -32t108 -80q1 1 11 6q4 4 8 4l10 6l12 -2q58 -7 89 -58t26 -114q-3 -52 -29 -84q-27 -47 -82 -47h-14 q-14 1 -26 7.5t-26 22.5t-20 23.5t-24 32.5q-6 7 -14.5 19.5t-16 22t-14.5 15.5q-19 19 -27 19t-12 -4l-12 -8h-15q-56 4 -90 34q-20 2 -47 2q-25 0 -38 -5t-40 -21q-4 -2 -24 -17v-2l-6 -28l-23 -15q-78 -24 -195 -198q-56 -89 -92.5 -201t-25.5 -211q21 -166 71 -276 q69 -150 172 -150q15 0 23 2q20 4 35 4q225 33 303 76q3 2 11.5 9.5t12.5 10.5q3 3 9 9.5t10 10.5t10 9t12 8q18 11 35 11q2 0 5.5 -1.5t4.5 -1.5h7q0 1 2 3q14 14 20 22q64 64 113 82q12 6 33 6q12 0 16 2q3 1 41 23q3 2 15 9t18 10t17 7.5t21.5 6.5t22.5 2q6 0 31 -5 q29 -4 39 -30q1 -1 2 -4t2 -4h2l14 -29q17 -46 -20 -88q-11 -11 -62 -51q-52 -29 -82 -66q-118 -142 -264 -192q-9 -3 -18 -3h-13q-1 -1 -4 -3t-4 -3q-30 -20 -67 -30q-8 -2 -25 -7.5t-25 -7.5q-7 -2 -34 -10t-36.5 -10.5t-32.5 -8t-37 -8t-33.5 -4.5t-36.5 -2z" />
<glyph unicode="D" horiz-adv-x="1478" d="M512 -106q-24 0 -50.5 12.5t-43.5 32.5q-16 2 -39 16q-13 8 -21 8h-2q-12 -2 -41 4q1 10 0 19t-3 12l-1 4v0l-16 2q0 17 -6 59q-15 67 -8 113q12 63 71 88q0 77 -8.5 201t-21.5 205q-3 25 -13 59q-20 70 -22 111q-6 68 -6 139q0 139 -13 186q-3 -1 -7.5 -2t-6.5 -2 q-49 -22 -86 -22q-20 0 -41 6l-8 2l-8 8q-34 36 -44 106t5 121l6 23l18 6q35 18 47 25q117 49 195 49q45 0 78 -8q9 17 23 24t24 5l10 -1l23 -14l16 14l18 -4q12 -6 15 -6q23 -7 57 -12q2 2 8 2q37 16 70 16q17 0 27 -2q6 -2 10.5 -5t7.5 -5.5t4 -3.5q13 -10 14 -10h2 q15 0 25 2h31q36 0 63 -19h6h11q60 -6 149 -110q10 -5 19 -11q65 -32 104.5 -60.5t67.5 -76.5q75 -33 96 -174q3 -1 7 -2t7 -2q23 -2 31 -12q-4 -4 -5 -11.5t0 -13.5l1 -6q0 -1 1 -3t2.5 -6t2.5 -7q13 -13 18 -31q0 -2 1 -5.5t1 -4.5q12 -19 13 -21l6 -14l-2 -15 q-5 -16 4 -59q1 -2 3 -11.5t3 -13.5t2.5 -13.5t2 -15t1 -14.5t-0.5 -16.5t-2.5 -16t-5 -17t-7.5 -17.5q6 -41 0 -78t-27.5 -73.5t-37.5 -57.5t-48 -59q-6 -8 -19.5 -24.5t-20 -25.5t-15 -22t-14.5 -25l-11 -16l-14 -4q-45 -11 -104 -52t-103 -87l-26 -31q-4 10 -10.5 14 t-11.5 3l-5 -1q-14 -18 -37 -18q-29 -41 -113 -53q-10 -4 -29 -15.5t-28 -15.5q-92 -59 -137 -76q-5 -23 -25 -43q-18 -24 -53 -24zM492 1225q11 -139 33 -345.5t28 -234.5q35 -127 35 -262q0 -51 2 -78q2 2 8 2q10 5 43 8q30 39 117 52q48 8 65 20q4 2 13.5 12t13.5 13 q22 31 39 43l18 12q37 26 57 41t50 39t45 41.5t35 42.5t28.5 48.5t15.5 53t6 62.5t-9 71q-18 32 -138 215q-123 88 -372 150q-4 -6 -10.5 -9.5t-10.5 -3.5l-4 -1l-12 2q-4 0 -10 1t-9 1q-21 8 -47 8q-18 0 -30 -4z" />
<glyph unicode="E" horiz-adv-x="1366" d="M522 -72h-18q-31 3 -109 21q-60 17 -100 22h-25l-8 27q-19 56 -28 128t-10 111.5t-1 129.5q4 163 -12 260q-2 5 -6.5 9.5t-5.5 6.5l-11 27q-4 109 -36 244t-93 337q-23 71 4 105q16 26 50 26q14 0 26 -6q95 -35 172 -35q27 0 39 2q55 5 320 54q190 41 317 49h4h2 q40 -3 66 -21q21 -6 26 -6h7l36 -4l7 -37q0 -4 10 -14q1 -2 8 -10.5t10 -14.5l11 -12l-7 -20q-14 -38 -55 -56q-15 -9 -17.5 -11t-2.5 -7l-5 -41l-38 2h-11q-12 0 -30 -6q-11 -6 -21 -8l-22 -6l-13 14l-18 -10q-62 -2 -139 -35l-25 -10l-12 14q-2 -1 -7.5 -3t-7.5 -3 q-50 -13 -55 -13q-4 0 -18 -1t-21 -1q-9 0 -28 1t-27 1q-14 2 -45 2h-27q-12 -3 -51 -16q-54 -24 -94 -24q-13 0 -21 2h-10l-8 8q-4 4 -8 4q2 -6 8 -51q0 -19 2 -25l6 -6q1 -1 10 -11.5t13 -17.5q6 -20 6 -59q0 -27 2 -37q6 -39 18 -76q3 -19 12.5 -61.5t12.5 -65.5 q17 2 104 21q60 16 119 22q19 0 55 4q39 3 74 9q8 2 23.5 6t23.5 6q86 20 127 20q103 0 144 -90l6 -33l-25 -20q-2 0 -2 -2q-4 -2 -4 -49l-2 -23l-16 -12q-48 -28 -116.5 -47.5t-117 -26.5t-133.5 -16q-106 -10 -170 -23q-52 -9 -72 -26q8 -20 4 -49l21 -23l-17 -47 q-2 -2 -2 -4q0 -5 5 -15q11 -40 10 -53q24 -6 53 -6q61 -5 82 -18q116 30 285 37q84 5 135 10.5t119 23t122 47.5l9 5h10q35 -2 63 -35q11 -11 15 -11l32 -20l-4 -43q-8 -8 -2 -27q11 -32 -4 -53q-14 -23 -26 -29v-2q-1 -3 -9 -24l-3 -9q-4 -9 -9 -18l-8 -16l-21 -4h-8 q-8 0 -20 4q-8 -17 -15 -25l-16 -22l-25 10q-4 2 -14 2q-19 0 -57 -10q-54 -13 -78 -13q-21 0 -33 5q-46 -33 -133 -33h-37h-35h-4q-25 0 -75 -4q-54 -4 -74 -4q-21 0 -29 2h-6q-7 0 -24.5 -3t-20.5 -3q-52 -9 -72 -9z" />
<glyph unicode="F" horiz-adv-x="1251" d="M541 -59q-77 26 -129 194q-38 120 -60 258q-4 30 -8 39q-1 0 -6 -1.5t-10 -0.5q-1 1 -5.5 8t-5.5 8l-14 -12l-29 25q-65 41 -61 96q-23 36 -24.5 66t12.5 90l6 28l29 2q10 0 12 2q40 0 55 9q-12 91 -12 202q-4 140 -12 191q-10 -4 -33 -4q-29 0 -49 12q-24 -8 -33 -8 q-26 0 -35 18q-2 2 -2 4q-18 9 -27 27q-14 22 -14.5 58t6.5 64.5t17 53.5l8 21l20 4q23 5 37 12q32 16 68 27l8 2l10 -2q10 -2 27 -2q38 0 104 41q11 7 19 10q22 14 32 14q2 -10 7 -20t9 -15l5 -4h10q21 0 25 8l8 15l16 2h13q22 0 40 -15q27 11 68 11q39 0 51 12l15 14 l20 -4q36 -8 96 -8q55 0 84 2t90 2h25q18 6 39 6q36 0 66 -15t38 -44q6 -22 2 -35l19 -4q12 -10 12 -37q0 -31 -26 -53q0 -14 -9 -29q-24 -49 -141 -53h-6q-19 0 -39 16q-6 -4 -27 -4q-10 0 -34 4q-4 1 -11 2t-10 2q-1 -1 -5 -3t-5 -3q-27 -16 -45 -16q-4 -2 -11 -2 q-16 0 -40 4q-5 0 -16 1t-15 1q-11 0 -31 -4q-45 -10 -111 -14q-79 -11 -88 -17q-1 0 -1.5 -2t-1 -5t-1.5 -5q-3 -3 -9.5 -14.5t-10.5 -16.5q-10 -90 -9 -188.5t21 -177.5l8 -5l9 13l12 2q9 2 29 5t30 5q84 13 146 29l2 2q28 35 59 35h6q6 -3 10 -3q10 0 62 9q27 3 65 6 l39 2l4 -6q-2 -5 -2 -13.5t1 -13.5l1 -6q1 -1 4.5 -3t4.5 -3q21 -9 39 -27l18 -16l-8 -25q-10 -31 -27.5 -56.5t-35 -44t-47.5 -35t-50 -25.5t-58 -20.5t-56.5 -16t-59.5 -13.5q-117 -23 -168 -49q2 -10 12 -92q9 -79 16.5 -125.5t27.5 -109t48 -99.5l13 -18l-6 -23 q-1 -2 -7 -26q-5 -22 -7.5 -31.5t-15.5 -27t-34 -25.5q-13 -2 -27 -4z" />
<glyph unicode="G" horiz-adv-x="1593" d="M891 -53q-45 4 -148 4q-169 0 -247 18q-125 27 -191 117q-23 6 -44.5 22.5t-34 31.5t-29.5 40q-38 53 -60 66l-12 4l-4 14q-72 188 -51 428q1 9 2 25.5t2 25.5q3 55 5.5 84.5t15 71t34.5 66.5q-3 14 2 51q7 23 4 39l-6 32l31 13q43 11 49 57l4 25l23 6q30 9 47.5 39 t23.5 61q9 31 15 47q7 6 14.5 5.5t12.5 -4.5l5 -3q21 37 62 37q6 31 12 41l12 23h25q4 0 8.5 2t7.5 2l15 16l45 -12q6 -2 14 -2q28 0 43 30l6 19l19 4q156 41 284 49l15 -16q35 -3 47 20q8 -7 16 -18t12 -18l4 -7q6 -15 50 -41q2 -1 11.5 -7t12.5 -8t11 -8t11.5 -9.5 l9.5 -9.5t8.5 -11t6 -12.5t4.5 -14.5q8 -32 -20 -71l-8 -11l-13 -4q-54 -14 -122 -14q-79 0 -121 18q-32 -4 -84 -22q-61 -21 -88 -27q-1 -1 -2 -3t-2 -3q-1 -2 -11 -12l-6 -8l-8 -4q-80 -42 -207 -193q-40 -47 -66 -131t-32 -182q-13 -223 61 -338v-2q20 -37 44 -65 t52.5 -46t52 -29.5t59.5 -18.5t56 -10t60 -7q5 0 13 -1t11 -1q7 17 27 26l19 8l18 -10q2 -2 4 -2q6 0 18 4q24 8 39 8q9 0 21 -4q68 45 147 60q0 20 6 32q12 27 39 37q-4 28 -8 84q-7 110 -35 158l-14 27l23 20q7 7 14 31h-10q-98 0 -252 -94l-21 -11l-22 13q-14 10 -76 18 q-41 5 -59 10l-23 6l-6 23q-8 36 2 80q7 34 -2 63l-6 25l18 16q31 28 71 45.5t89 25t82 10t84 3.5v6l4 35h33q8 1 71 15q65 14 109 14q21 0 31 -2q53 14 63 14q7 0 19 -4q2 0 11 2.5t23.5 6.5t32.5 8l27 6l16 -25q4 -6 10 -6q7 0 11 2h14q34 0 49 -18q11 -15 14 -29q0 2 1 5 t4.5 7t9.5 -4q5 -6 9 -20.5t6 -25.5l1 -11q0 -71 -51 -107q-36 -22 -92 -33q-59 -14 -64 -24q-10 -15 11 -70l2 -6v-8q0 -4 1 -18t1 -23q4 -58 4 -94q33 -7 39 -43l2 -6l-2 -7q-2 -9 -6 -45q-1 -9 -5.5 -46t-5.5 -50t-2.5 -48.5t2.5 -41.5l4 -14l-8 -13q-24 -40 -53 -67 t-49 -36.5t-53 -21.5q-63 -19 -99 -49l-16 -14l-21 8h-2q-21 0 -58 -17.5t-60 -37.5l-13 -8z" />
<glyph unicode="H" horiz-adv-x="1478" d="M287 -115q-9 0 -11 2q-25 0 -59 15l-20 8l-4 20v9q-13 59 -9 86q-4 8 -10 14q-2 5 -7.5 13.5t-6.5 10.5l-8 11v12q-6 86 -31 424q-35 524 -37 786q-4 35 4 43q5 3 13 2.5t16 -2.5l8 -2q13 9 27 11l12 4l10 -6q120 -45 170 -138l6 -12l-6 -16q-15 -42 -16.5 -82t14.5 -58 l23 -20l-15 -23q-11 -23 2 -123q8 -57 10 -75h3q5 0 88 16q81 25 110 25q21 0 39 -6q30 12 62 12q19 0 43 -4q32 -4 47 -4q6 0 30 4q38 8 62 18q61 20 123 25q0 93 -6 184q-9 79 -6.5 200t28.5 249l6 30h33h2q48 0 156 -51l20 -10l2 -19q11 -72 15 -235q0 -75 2 -122 t11.5 -112t27.5 -122q20 0 38 -21l2 -4l5 -4q14 -24 14 -51.5t-6 -42.5t-17 -37q-20 -45 -18 -60q0 -10 3.5 -24t7.5 -23t12.5 -29t11.5 -28q37 -72 45 -113q7 -26 10 -49q25 -115 25 -149q0 -41 -39 -97q-19 -22 -21 -34q-14 -29 -28 -39q-9 -3 -18 2.5t-14 12.5l-5 7 q-29 21 -39 21q-2 -2 -4 -2l-27 -11l-20 23q-21 24 -37.5 58t-29.5 85.5t-18.5 77.5t-17.5 86q-14 89 -26 117q-15 19 -15 57v8q-107 -2 -256 -16.5t-241 -32.5l-27 -4l-12 21q-2 0 -2 2q-31 -9 -86 -17h-7q-10 -39 5 -207q2 -19 8 -92l18 -6q28 -11 33 -45q2 -12 2 -41 q-2 -4 -2 -18l18 -4l-6 -35q-7 -38 -22.5 -69t-31 -48t-44.5 -45q-8 -7 -17 -16t-21.5 -22t-20.5 -21l-15 -17z" />
<glyph unicode="I" horiz-adv-x="569" d="M352 -55q-11 2 -28.5 4t-20.5 2q-31 0 -67 8q-32 4 -59.5 30.5t-35.5 55.5q-6 14 4 55q5 15 5 19v16l8 6q0 5 4 9q4 13 -6 43l-6 18l-3 10v8q20 127 20.5 215.5t-9.5 147.5q-1 12 -6 70q-2 16 2 51q11 51 -7 114v7v2q-3 119 13 276q-26 40 -13 102q3 21 3 52q-3 27 0 51 q11 59 20 76q21 41 70 41h16l10 -9q11 -8 19 -8q33 -3 47 -26q39 -17 51 -82q6 -36 2 -70q-1 -2 -2 -6t-2 -6q10 -10 10 -25q3 -22 -14 -39q0 -4 4 -8q0 -1 4.5 -12t6.5 -19.5t1 -17.5l21 -8l-13 -37q-10 -25 0 -78q7 -25 6 -59t-16 -64q2 -7 3.5 -15.5t2.5 -10.5 q0 -13 2 -17l15 -12l-2 -21q-13 -94 -2 -172q8 -89 2 -174q16 -13 16 -45q-4 -29 -16 -49q-1 -1 -2 -3t-2 -3q14 -43 -2 -80v-2q2 -10 -3 -25l11 -4l2 -20q24 -133 22 -164q-2 -61 -43 -86l-8 -6l-10 -2q-1 0 -3 -1t-3 -1l-9 -2h-10z" />
<glyph unicode="J" d="M537 -55q-222 0 -451 188l-12 8l-2 15q-1 1 -3 5t-3 5q0 1 -1.5 2t-1.5 2q-15 5 -28 18q-12 12 -17 31t-5.5 28.5t-0.5 35.5q2 10 2 24l-2 29l25 12q35 14 65 14q12 0 70 -10q2 -1 31 -8l24 -2l9 -25q2 -4 18 -20q3 -3 8 -9t8 -9q24 -10 60.5 -28t50.5 -24 q27 -17 41 -24.5t35 -14t43 -6.5q58 0 194 51q17 34 18.5 77t-5.5 77q-6 32 -3.5 83t21.5 91q-2 4 -8 10q-2 2 -6 6.5t-6 6.5l-7 12v14v29v27v18l13 12l4 4q0 1 -1 3.5t-1 3.5q-15 22 -15 47q-2 99 -73 381q-21 80 -23 92q-86 0 -172.5 25.5t-120.5 86.5q-35 71 13 148 l14 22l24 -2q61 -5 152 -24q115 -21 156 -21q65 0 131 29l24 14l19 -20h2q13 0 41 8q30 10 61 10h10q4 6 10.5 10.5t11 6t10.5 3t7 1.5h25h18l13 -17q15 -17 20 -51l19 -12l4 -29q-9 -93 -50 -131q-29 -29 -104 -41l-35 -2l-8 12q-16 -11 -39 -14q-4 -4 -8 -6l-2 -2 q19 -122 53 -213q19 -61 28 -102.5t18 -157.5t11 -299v-10l-4 -9q-8 -17 -2 -65q9 -68 -4 -103v-116v-35v-3t-3.5 -5t-10.5 -2l-14 8q-1 -1 -5.5 -5t-5.5 -5q2 -4 2 -13q4 -20 -10 -43h-2q-84 -84 -182 -84h-12q-85 -24 -168 -24z" />
<glyph unicode="K" horiz-adv-x="1478" d="M330 -72q-77 27 -99 123q-8 39 -8 156q3 112 -8 143q-9 23 -25 29l-22 10l-4 23q-2 22 -17 59q-26 67 -18 117l4 18l19 10q5 2 22 19q10 10 25 22q2 98 10 271q8 159 10 258q0 27 -2 41q-1 25 -2 49t7.5 50.5t27.5 47.5q-4 34 8 80q10 50 10 66v51q1 4 3 5.5t4.5 1 t5 -1.5t4.5 -2l2 -1l35 -14l10 -5q55 -22 82 -24l24 -2l11 -21q16 -33 24.5 -53t15 -50t3.5 -58q-5 -60 -23 -156q-36 -190 -25 -291q3 -23 13 -57q2 -4 5 -14.5t5 -14.5q64 45 121 121l4 6l6 2q48 32 100.5 77t85 76t88.5 87q68 65 96 91t84.5 72.5t104.5 77.5l17 11l16 -4 q71 -20 105 -43t42 -56q6 -23 -6 -47.5t-28 -40.5t-48 -45q-36 -31 -79 -80q0 -22 -17 -37q-58 -58 -94 -80q-84 -68 -109 -104l-10 -18h-14q-1 0 -6 2t-6 2v-13l-7 -10l-6 -6q-27 -23 -73.5 -59t-63.5 -50q-144 -107 -213 -176q29 -15 55 -34q62 -41 109 -56q2 -1 22 -14 q20 4 27 4q34 0 53 -31q404 -153 563 -336l15 -14l-6 -20q-12 -44 -46 -69.5t-77 -25.5q-33 0 -60 15l-2 -13l-47 31l-18 12q-25 15 -33 23q-8 -4 -27 -4h-18l-12 12q-29 29 -82 53q-64 29 -103 68h-4q-15 0 -45 10q-6 0 -10 4l-25 -8l-16 25h-8h-6h-8q-35 0 -58 4 q-41 11 -106 61q-63 43 -82 51q31 -128 -23 -329l-4 -13l-8 -6q-3 -7 -21 -14q8 -17 -4 -23l-34 2q-19 0 -31 3h-6q-2 -3 -6 -5l-17 -10z" />
<glyph unicode="L" horiz-adv-x="1251" d="M369 -94q-24 10 -41 35q-14 14 -21 14l-22 4l-11 16q-109 241 -94 492q-1 4 -4 11t-4 11q-10 25 -12 27l-13 16l5 21q13 46 16 102.5t0.5 97t-8.5 105.5q-8 82 -8 129q-2 25 12 78q10 40 10 49q0 14 -10 64q-12 40 -12 65q-4 31 12 49q10 10 12 11q0 15 -8 51 q-8 31 -10.5 47t0 45.5t16.5 52.5l14 27l29 -6q85 -16 143 -50l13 -4l6 -14q35 -88 41 -208t-4 -234q-9 -240 0 -346q1 -2 4.5 -12t5.5 -15q8 -27 10 -45q10 -70 6 -201q-4 -138 15 -217q321 96 538 96q92 0 164 -20l27 -10v-29q6 -12 12 -21q21 -30 25 -45q9 -29 -9 -57 q0 -31 -14 -47q-21 -21 -47 -21q-4 0 -6 -2.5t-2 -5.5v-2l-45 4q-9 0 -21 4l-12 -2h-10q-17 0 -39 11q-2 0 -2 -2q-15 -11 -31 -19l-31 25h-2q-26 -13 -53 -13q-14 0 -20 2q-20 -20 -50 -20q-6 0 -26 4q-102 -50 -181 -69t-233 -33h-10z" />
<glyph unicode="M" horiz-adv-x="1705" d="M1597 72q0 -18 -10 -35l-8 -14q9 -36 -16 -46q-6 6 -17 9.5t-18 3.5h-8h-2q-9 0 -29.5 -3.5t-28.5 -4.5q-30 -10 -51 -13h-14l-13 8q-35 25 -43 60t-4 82q3 48 -4 73t-37 44l-12 10l-4 16q-22 125 -25 232q-9 136 -22 213q-2 2 -5 7t-5 7q-4 8 -25 22v41q0 39 -4 74 q-12 -25 -37 -37q4 -45 -10 -96q-6 -33 -55 -147q-36 -74 -50 -113v-29q0 -128 -22 -182l-12 -25l-13 2q-19 -22 -22 -28q5 -27 -15 -33q-9 -3 -17 -2t-15 4l-6 2q-28 7 -48 41l-6 6h-16l-14 17q-42 57 -79.5 138t-59 144t-50.5 162q-13 39 -14 41q-44 110 -80 229 q-4 -30 -10 -32l-11 6q-2 -14 -12 -76q-17 -133 -22 -203l-2 -35q-7 0 -11 -8q-3 -6 -8 -37q0 -10 -6 -16q3 -33 4 -51t-7.5 -45t-14.5 -41t-17 -37q-37 -68 -37 -115v-35q-14 2 -39 -16q0 -23 -2 -33q-7 -31 -4 -59l4 -23l-18 -14q-36 -29 -64 -100l-6 -17l-18 -6 q-18 -6 -39 -6q-51 0 -86 51q-18 22 -31 27l-31 12l9 33q8 38 28 112.5t25 94.5q73 254 90 397l4 31q7 18 23 18q-2 82 32 223q29 147 31 162q3 22 0 43q0 5 -0.5 15.5t-0.5 19t1 16.5q7 63 33 123q22 64 24 107v49q9 5 17 4.5t13 -3.5l5 -3q3 5 17 14q18 21 41 21 q12 0 20 -4q0 4 2 7t4 4l2 1l25 -6q103 -21 156 -95q44 -64 47 -184q10 -10 14 -12l18 -6l5 -25q26 -224 126 -485q46 83 107 295v8q3 20 0 53q0 51 6 76q4 15 16.5 42.5t16.5 37.5q31 52 35 78q0 2 1 5.5t1 4.5q2 23 8 37t27 39l12 18l20 -2h15q77 -7 110 -27 q39 -29 72 -123q1 -7 10 -20q27 -23 33 -51q7 -35 10 -41q7 -23 12 -70q4 -22 21 -45q2 -7 10 -25.5t10 -26t6 -26.5t-1 -26q18 -35 14 -105q-5 -59 10 -67l17 -9l4 -18q5 -19 -2 -37q4 -3 7 -7.5t4 -7.5l1 -3l12 -43q6 -24 6 -60q0 -33 2 -45l6 -18q1 -1 2 -3t6.5 -5 t12.5 -2q5 -5 6 -16t-4 -21q-8 -11 -8 -29l8 -14q19 -19 16 -45q10 -7 13 -19q2 -3 4.5 -8.5t6 -17t1.5 -17.5q-4 -1 -6 -3.5t-2 -4.5v-2q3 -8 -2 -20q17 -26 20 -48q3 -15 12 -26q27 -35 27 -60q-9 3 -14 2.5t-6 -3.5l-2 -3q0 -2 4 -10q2 -3 4 -8t5 -16.5t1 -18.5 q-3 -8 -8 -12t-9 -4h-4z" />
<glyph unicode="N" horiz-adv-x="1478" d="M240 -61q-5 7 -27 18q-47 23 -68 63l-4 7v8q-5 71 -2 162q0 17 1 48.5t1 47.5q0 49 6 92q7 66 3 111q0 2 -1.5 9t-1.5 11q-8 38 -6 53q2 14 19 37q4 4 4 6q0 3 -2.5 11t-3.5 10q-17 21 -17 51q0 20 19 49q1 1 3 5t3 5q0 12 -12 52q-2 7 -5 19t-4.5 19t-3 18t-0.5 21 q0 23 13 58l4 12l-8 8l-3 17q-6 50 5 131q9 42 4.5 92t-33.5 96l-8 14l4 15q2 8 6 14t11 11l7 6q20 12 13 30l-4 39l49 2q13 -2 26.5 -5t28 -8.5t23 -9t26 -11t21.5 -9.5q4 -3 26 -14l15 -6l4 -8q120 -216 286 -404l15 -10l-4 -21q-7 -28 63 -90q4 -4 19.5 -21t21.5 -23.5 t19 -22t19 -26t13.5 -25.5t11 -30t3.5 -30q42 -37 88 -96q14 -15 45 -49.5t47 -51.5q2 20 2 66v19v20.5t0.5 19t1 20t2.5 18t4 18.5t5.5 16t8.5 16q3 51 29 261q16 103 23 171t5.5 155.5t-18.5 168.5l-6 29l29 12q34 12 65 12q21 0 74 -16q42 -13 57 -14l13 -2l10 -9 q20 -18 20 -51q15 8 17 -8q2 -8 1.5 -16.5t-1.5 -14.5l-2 -6q0 -1 -1 -4t-1 -4q0 -2 -1 -6t-1 -6q11 -11 14 -29v-8v-4q-11 -57 -18 -137q-15 -189 -52 -275q3 -143 -4 -311q-12 -314 11 -477l2 -39q0 -1 0.5 -2.5t-1.5 -4t-6 -1.5q-27 0 -32 -5l-2 -16l-25 -10 q-40 -19 -70 -19q-11 0 -21 1.5t-20 5.5t-16.5 6.5t-15.5 10t-13 10.5t-13 12.5t-10.5 11.5t-10.5 13l-9 11q-15 31 -36 41l-27 13l-8 26q-13 20 -23 31q-19 28 -67 72q-121 116 -160 178q-20 33 -42 62t-61 75t-49 59q-46 49 -102 125l-2 4l-2 2q-2 3 -5 10.5t-5 10.5 q-8 25 -13.5 32.5t-25.5 14.5l-4 2q1 -10 4 -26t4 -23q2 -6 5 -16t3 -11v-10l-2 -8q-2 -5 -5 -14t-5 -13l-11 -33q-3 -19 9 -98q14 -77 14 -112q0 -14 -14 -56q-7 -27 -7.5 -36.5t7.5 -26.5l10 -17l-6 -18q-10 -34 -12 -77.5t10 -78.5l12 -24l-16 -17q-13 -16 -13 -63 q-5 -66 -10 -86l-6 -17l-12 -6q-20 -8 -33 -8q-5 0 -29 6q-12 4 -14 4l-2 -2l-35 -6z" />
<glyph unicode="O" horiz-adv-x="1593" d="M659 -37q-10 -2 -24 -2.5t-19 -1.5h-34h-50l3 18q-5 0 -14 -1t-13 -1q-7 0 -27 5l-26 6v10q-24 8 -47 31q-6 3 -11 8q-18 12 -26 12q-1 -2 -2.5 -4.5t-6 -6.5t-8.5 1l-22 14q-102 73 -149 149.5t-93 215.5l-2 8l2 6q3 16 10 23q-11 22 -2 73q6 15 6 33q0 11 -6 23 q-9 33 -8 45q2 16 21 55q10 25 10 29q3 9 0 22q0 58 26 82q1 15 -1.5 17.5t1.5 18t3.5 17.5t5 17.5t6 17.5t6 17t6.5 16q21 37 23 63l2 23l20 10q4 2 13 5t14 5q-6 19 0 39q10 30 35 45q18 13 16 29q-4 37 -4 43q4 3 9 3t8 -1l3 -2l25 37q54 73 104 90v2q7 17 29 25 q2 2 4 5.5t4 4.5q25 19 76 45l20 8q3 3 3 4l14 17l22 -2q28 -4 64 -19q7 7 22 10q1 1 9 5l32 8q16 2 17 -6l8 -19q6 -11 16 -18q6 -9 23 -21q30 15 47 15h8h2h2q15 -5 19 -5q6 0 15.5 3.5t10.5 3.5q36 12 72 14h25l8 -14q3 -1 11 -4.5t11 -4.5q5 -2 18.5 -6.5t20.5 -7.5 q1 0 3.5 1t4.5 1q9 0 16.5 -2.5t11.5 -4.5t10.5 -7t8.5 -6l3 -2q16 -6 20 10q7 -4 15 -11.5t12 -13.5l4 -6q29 -41 73 -78q43 -40 68.5 -71.5t26.5 -63.5l12 -18q10 -15 12 -17l31 -16l2 -23v-12v-2q27 -10 39 -22q-6 -6 -8.5 -13t-1.5 -11v-3q12 -9 22 -35v0l4 -4l13 -53 q8 -29 10 -39q25 -86 25 -123q1 -23 -3 -47q11 0 13 -12q2 -6 1.5 -10.5t-1.5 -7.5l-2 -3q0 -10 -2 -16q-7 -43 -17 -78q16 -54 -43 -113q-9 -9 -16 -49q-6 -30 -25 -61q-12 -25 -49 -63t-65 -60q-23 -16 -64 -53q-34 -32 -49.5 -46t-50 -32.5t-68.5 -22.5q-2 -2 -5 -6 t-5 -6l-10 -17h-21h-22q-39 0 -43 -4l-9 -32h-30q-42 0 -109 -13q-25 -8 -90 -18q-28 -4 -53 -6q-6 0 -9.5 1.5t-4.5 4t-1.5 5t-0.5 4.5zM475 250q69 -57 232 -57q103 0 192 26q2 3 16 17q60 40 99 49q36 50 84 86l28.5 28.5t30 31.5t19.5 26.5t19 36.5t7 38v15l15 8 q2 1 5 3t5 3q2 2 4 2q8 157 -47.5 315.5t-145.5 237.5q-77 25 -116 25q-20 0 -37.5 -6t-27.5 -12t-30 -21q-51 -41 -94 -53q-5 -1 -11.5 -2t-22.5 -3.5t-17 0.5v17q-15 -6 -31 -6q-32 0 -49 30l-2 7v8q-3 13 0 20h-6q-4 -4 -14 -11.5t-13 -10.5q-1 -2 -2 -6t-2 -5 q-9 -36 -20 -47q-10 -10 -33 -16q-82 -123 -116 -288t-9 -320q19 -49 45 -78q6 -12 22 -42.5t23 -45.5z" />
<glyph unicode="P" horiz-adv-x="1366" d="M506 -96h-4h-19l-12 14q-26 35 -44.5 90.5t-25.5 89.5t-20 109q-21 122 -35 164q-1 1 -39 28q-23 18 -34.5 27.5t-26.5 31.5t-21 48q-5 34 10.5 69t32 53t33.5 31l21 21q3 17 -21 41l-8 8v16q-3 58 20 86q-18 46 -18 122t8 139q8 82 8 112q-28 -7 -46.5 -18.5 t-20.5 -20.5v-12h-2l24 -10l-6 -31q-5 -22 -18 -35l-9 -6l-12 -4q-6 0 -6 -2l-12 -12h-19h-20h-8h-4q-29 0 -52 18q-1 2 -34 25q-25 18 -41 22q2 5 6 10t7 7l3 2q-11 11 -14 22l-7 15l9 16q4 4 6 8q0 1 1 3t2.5 5.5t2.5 5.5q-21 -9 -31 7q4 15 15.5 28t20.5 19l9 6 q3 3 25 16q2 1 8 5.5t8.5 6t8.5 6t8.5 7t7.5 6.5t7.5 7.5t5 7.5t4 8t1.5 8l2 18l15 8q80 57 123 71.5t141 20.5l2 11l27 6h2q48 8 55 8q18 0 33 -6q85 24 180 24q176 0 381 -86l4 -2h2q76 -48 131.5 -133t67.5 -174q16 -130 -68 -223q-19 -70 -67 -118t-121 -95 q-49 -34 -64 -49q-17 -26 -39.5 -44t-51 -29.5t-48.5 -16.5t-51 -11q-74 -16 -99 -32q-8 -16 -27.5 -31t-30.5 -21t-40 -20q-14 -7 -23 -10q1 -19 3 -38.5t8.5 -45t9.5 -36t13.5 -44t11.5 -37.5q23 -70 34 -133q15 -75 -24 -129q-43 -49 -125 -49zM524 713q17 -29 13 -58 q52 18 90 43q10 8 49 27q16 5 20 8l2 2q9 23 25 39q6 6 13 11t11.5 7.5t13 5t10.5 3t12 2.5l10 2q22 0 32 10q7 8 16.5 15t21 14.5t16.5 11.5q16 9 32 25q10 10 20 23.5t15.5 22.5t17 29t15.5 27q17 35 25 47q15 18 22 39q24 71 -12 121q-29 40 -87 62t-116 22 q-7 0 -22.5 -1t-22.5 -1l-8 -2l-8 2q-52 10 -99 10q-62 0 -114 -18q13 -56 -11 -162q-1 -12 -4.5 -36t-5 -41t-0.5 -32q2 -37 6 -84q7 -100 2 -196z" />
<glyph unicode="Q" horiz-adv-x="1593" d="M1333 -137h-6q-30 2 -53 28q-3 9 -19 17h-2q-27 0 -41 12q-32 24 -67 88q-21 40 -33 45q-31 -25 -96 -39q-34 -10 -41 -14q-13 -20 -25 -25q-30 -21 -98.5 -31t-130.5 -10q-75 0 -105 15q-136 15 -237 76q-102 60 -170 163q-62 91 -94 228q-33 135 -33 268v21l16 12l4 2 q0 6 -2 8q0 7 -4 31q-2 19 0 33q21 -6 25 12q3 15 -8 18l8 35q13 64 39.5 125.5t51 100t69.5 102.5q3 2 30 41l4 2v2q41 35 58 45q5 4 15 12.5t15.5 13t13.5 12t15 16t14 18.5l13 14l16 2q11 0 29 18l10 15l35 37q10 1 13 -4t1 -10l-2 -5q6 6 14 6q20 20 51 31.5t58 11.5 q11 0 31 -4q26 7 41 15q74 32 127 34q-10 17 4 29l41 -8q71 -17 102 -17h8l13 21l30 -12q3 -2 21 -11q25 -8 76 -27t69 -24l17 -2l8 -18q5 -13 39 -35q2 -1 10 -7.5t10.5 -8.5t10 -8.5t10.5 -10t8.5 -10t8.5 -12.5t6.5 -13.5t5.5 -15.5t3 -17q14 -14 23 -26q25 -25 31 -29 l24 -20l-14 -27q-1 -5 2.5 -16.5t8 -22t10.5 -25t8 -18.5q20 -55 20 -72q4 -57 -4 -147q-5 -64 0 -76l4 -8v-10q-10 -138 -30 -236.5t-64 -199.5l-8 -19l-23 -4h-2q0 -12 -2 -14q-6 -42 -47 -58l-12 -4q0 -4 -2 -6l-4 -24l-23 -7q-12 -4 -14 -6q6 -12 12 -18q14 -20 33 -35 l6 -6q12 -9 47 -29q69 -40 95 -65q29 -29 52 -72q1 -3 3 -7.5t4.5 -15.5t1.5 -18q-2 -8 -10 -11.5t-16 -3.5l-7 1l-35 -25q-67 -57 -119 -57zM418 295q5 -4 11 -10t13 -13.5t11 -11.5q33 -32 50.5 -46.5t48.5 -30t62 -15.5h13q24 8 59 8q25 0 57 -4q28 11 107 18h14q2 2 2 5 q25 30 45 38q-3 32 -47 76q-23 24 -36.5 41.5t-25.5 50t-9 66.5l2 20l22 11q37 18 70 18q10 0 16 2l6 4h9h12q52 0 74 -51q2 0 2 -2q32 -13 53 -37q13 -13 31 -22q77 116 117 272.5t36 323.5q-6 141 -49 204q4 -52 -14 -86q-37 -78 -168 -102l-45 -8l-9 24q-24 -7 -47 9 q4 5 4.5 13.5t-1.5 14.5l-1 6q-10 31 2 54q15 25 37 36q0 17 -8 29q-9 12 -33 21q-20 7 -37 18h-10q-3 0 -11 1t-11 1q-4 2 -11 2q-34 -8 -102 -72q-60 -52 -86 -61l-2 -2v0l-5 -15t-9 -20q-16 -34 -72 -43q-4 -2 -12 -5t-13 -5.5t-8 -5.5q-13 -15 -28 -53q-6 -8 -16 -27.5 t-11 -20.5q-10 -14 -35 -20q-10 -19 -12 -29q-15 -61 -23 -108l2 -21q-14 -16 2 -45q4 -5 -1 -14t-12 -15l-7 -6q-5 -3 -12 -5t-13 -3t-8 -2q8 -53 -12 -78q-2 -2 -17 -12q2 -33 11.5 -65t16.5 -46t26 -49q28 -49 45 -100z" />
<glyph unicode="R" horiz-adv-x="1478" d="M356 -98q-82 27 -120 110q-17 55 -21 142q-3 48 -8 75q-1 1 -6 11q-10 14 -15 28q-13 45 -15.5 97.5t0.5 88.5t11 95q10 95 8 162q-5 165 5 331h-15q-10 2 -28 2h-11l-18 -2l-12 15q-18 21 -30 45.5t-17 41t-11 46.5q-1 6 -4 21t-4 24l-8 27l29 14q29 14 67 14q6 2 17 2 v15l20 12q7 3 70 22q67 15 82 43l8 17l14 4q23 4 59 8q59 10 76 29l19 20l28 -10l4 -2q1 0 4 1t5 1q8 2 28 6l-2 29l41 2q49 2 127 10q110 8 156 8q195 0 291 -112q48 -13 88 -43q37 -29 49 -74q14 -7 24 -25q24 -36 -2 -88q0 -1 -1 -3t-1 -3q13 -18 11 -33 q-28 -289 -418 -561q8 -1 31.5 -5.5t39.5 -6.5q36 -4 69 -14t67 -30.5t51.5 -32.5t54.5 -40q69 -51 88 -61q51 -33 82 -64q44 -39 72 -55l41 -27l-13 -12l-4 -33q-6 -55 -61 -73q-1 0 -4 -1t-4 -1v-5l-2 -38l-37 2q-38 1 -76 19.5t-60.5 37.5t-54.5 51q-22 19 -36 35 q-24 6 -97 49q-58 40 -90 49q-3 -2 -41 -16l-14 -4l-17 10q-14 9 -61 25q-47 12 -68 24q-49 -4 -135 -4q-72 0 -115.5 -7t-82.5 -32q16 -39 26 -96t12 -88.5t5 -95.5v-45v-33l-33 -6q-20 -4 -40 -13.5t-26 -15.5l-16 -18zM416 633q18 0 35 -17q51 31 135 68q65 32 94 47 t85.5 47t86.5 55.5t74.5 63t73 79.5t60.5 95t56 119q-38 59 -168 59q-70 0 -131 -16h-4h-6h-10q-81 0 -189 -55q-5 -2 -39.5 -16.5t-54.5 -20.5q-20 -4 -25 -4q-3 0 -8.5 1t-7.5 1q-23 -20 -49 -23q25 -35 31 -92q6 -60 12 -82l4 -22l-14 -15q-18 -18 -41 -18h-6 q-2 -37 2 -131q4 -80 2 -123h2z" />
<glyph unicode="S" horiz-adv-x="1366" d="M547 -55q-50 30 -84 30q-4 0 -12 -4q-7 -10 -13 -10l-24 10q-49 32 -99 58q-67 31 -109.5 60t-70.5 71l-12 24l-31 9v30q-31 5 -31 23q-1 8 0.5 17l2.5 15l2 5q2 3 3.5 7t2.5 5q-1 0 -2 1t-2 1q-31 43 -25 92l2 31l29 4q3 1 9 3.5t14.5 6t11.5 4.5q4 2 19.5 9t23 10 t20 6.5t23.5 3.5q32 0 47 -18l8 -7l2 -14q1 -14 6.5 -24t9.5 -13.5t17 -13.5q38 -32 45 -49q55 -19 108 -72q15 -13 45 -35q24 4 37 4q11 0 27 -4q0 6 8 8q5 1 12 -1t11 -4l4 -3q4 8 14 10q35 10 61 -16q43 16 80 16q1 0 76 -6q30 -6 57 -6t39 4q9 5 23 23q14 14 29 24 q0 4 -5 19v14q0 29 29 41h16q5 2 12 4.5t11.5 4t5.5 3.5v2q4 51 -29 86.5t-110 77.5q-21 12 -47 25q-27 27 -58 37q-4 2 -24 2q-29 5 -31 6q-14 6 -47 33l-10 10q-2 -1 -5.5 -2t-4.5 -2q-26 -13 -39 -13t-27 7q-13 6 -43 13t-37 9q-92 23 -143 53q-54 9 -87.5 38.5 t-58.5 72.5q-15 25 -49 55l-8 6l-2 9q-42 95 -27 206q14 111 68 195l4 10l10 6q55 31 142 58t135 61q21 13 37 27q16 -3 23.5 -10.5t7.5 -13.5l-1 -7q21 8 56 8q24 0 82 -12q2 0 6 -1t6 -1q21 12 45 12q36 0 100 -33q51 -22 62 -24l12 14l23 -12q16 -12 24 -16 q20 -17 33 -17l18 -2l11 -16q2 -4 8.5 -15.5t9.5 -17.5q90 -144 55 -215q-30 -49 -116 -49h-15q-29 2 -43 16l4 27q4 24 -10 36.5t-59 30.5q-44 14 -62 35q-121 17 -174 17q-127 0 -203 -54l-10 -12l-16 4h-4q-11 0 -21 -10q-10 -13 -14.5 -36t0.5 -42q48 -64 87.5 -83 t84.5 -19h24h29q65 0 119 -31q8 4 14 4h8l15 -2l10 -10q27 -25 94 -41q30 -6 48 -11.5t42 -19t41 -33.5q96 -5 127 -55q85 -53 135 -139q27 -41 39 -86.5t6 -81.5q-1 -7 -1 -14t0.5 -12t2.5 -11.5t3 -10t4 -11.5t4 -11q22 -40 18 -82q-4 -24 -41 -61l-10 -10q12 -20 6 -39 q-11 -26 -49 -31h-2q-4 -18 -8 -29q-41 -53 -107.5 -86t-124 -44t-135.5 -17q-15 -10 -29 -10q-12 -4 -34 -4q-36 0 -86 8q-54 4 -74 4q-32 0 -59 -8l-15 -4z" />
<glyph unicode="T" horiz-adv-x="1251" d="M643 -57q-61 0 -104 43q-37 43 -52 96q-12 32 -19 76t-8.5 71.5t-4.5 87.5q-12 208 -6 295q4 40 6 56q6 55 -2 80l-7 10l3 12q8 62 12 238q0 130 8 200q-24 6 -59 6q-50 0 -142 -18q-100 -18 -178 -20h-6l-6 2q-13 5 -31 20q-17 17 -20 19q-15 3 -27 -5l-8 31 q-9 28 -11.5 49.5t2.5 39t9.5 26.5t13.5 24q8 8 8 13q1 27 11 41q8 2 15.5 1.5t11.5 -1.5l5 -2q10 -2 27 -2t37 8q20 12 41 12q16 0 26 -4q46 37 103 37q26 0 90 -19q40 -12 55 -12q25 0 51 37l13 25l26 -11q4 -1 18 -2t21 -2q33 0 49 -4q25 -9 35 -29h4q2 0 6 1t7 1 q7 0 32 -10q45 10 54 10q30 0 51 -18q20 4 31 4q27 0 51 -6q24 -4 37 -4h6q2 2 4.5 5.5t12.5 8.5t20 4q2 -9 6.5 -15.5t8.5 -8.5l3 -2q1 -1 2 2.5t6.5 11t14.5 12.5q12 6 20 2t12 -12l4 -8q16 -3 27 -14q8 2 27 2q90 0 176 -131l10 -11l-2 -16q-2 -54 -66 -80q-12 -6 -14 -8 q-14 -7 -14 -21l-23 7q-191 50 -450 53q2 -2 2 -10q6 -21 6 -50q0 -30 -8 -43q6 -86 6 -223q4 -201 20 -332q6 -26 -12 -47q-6 -9 -12 -12q8 -101 8 -207q8 -176 25 -264l2 -21l-15 -14q-5 -5 -7 -8l-3 -4q-6 -19 -10 -25l-6 -12l-17 -4q-21 -8 -49 -8z" />
<glyph unicode="U" horiz-adv-x="1478" d="M537 -49q-3 1 -14.5 3t-14.5 3q-56 8 -70 33q-32 7 -60 22.5t-56 44.5t-39 42t-39 48q-28 42 -33 48l-10 12v16q2 20 -17 82q-18 97 -18 105q-7 7 -10 16q-9 14 -17 20l-14 13l2 20q3 30 18 64q6 14 15 32q-25 58 -36.5 129t-10.5 132t2 127v143l-2 10l4 8q23 40 30 142 q7 68 19 127l8 34l35 -4q2 0 4 2q6 2 23 2q16 0 24 -6q14 6 43 6q22 0 62 -10q18 -6 26 -6h2q33 2 41 -6q-2 -5 -1.5 -11.5t1.5 -13.5l2 -6q10 -100 -16 -309q-1 -9 -5 -45.5t-5.5 -50t-4.5 -45t-4 -50.5t-2.5 -46t-1 -51t1.5 -48q5 -122 37 -276q42 -195 129 -291 q4 -4 10 -4q28 5 51 31.5t52 76.5q11 22 39 68q25 21 51 39l41 41q88 174 152 452q29 140 53 480q0 9 1 26.5t1 26.5l2 16l12 8q32 29 86 29q22 0 94 -14q18 -4 50 -8l22 -3l8 -18q14 -33 21 -69t7 -65t-1 -61q0 -93 4 -120l2 -11l-2 -6q-6 -18 -27 -39q-12 -8 -16 -12 q1 -28 20 -270q8 -68 15 -168q4 -40 4 -56q9 -118 18 -147q9 -32 0 -104q-8 -38 -5 -58.5t22 -34.5l12 -6l2 -16q12 -69 2 -111t-49 -80l-14 -16l-23 4q-17 3 -35 10q-26 11 -41 11q-8 0 -10 -2l-12 -7l-13 5q-72 15 -100 73q-13 32 -22 107q-3 46 -13 92v16l4 17 q12 17 15 53q-11 -17 -21 -43q-24 -52 -38 -79.5t-38.5 -68.5t-51.5 -67.5t-58 -42.5q-4 -21 -14 -31l-7 -8l-8 -2q-64 -28 -170 -47q-8 -2 -21.5 -6t-24 -6.5t-19.5 -4.5q-7 -2 -27 -4q-6 2 -10.5 11.5t-9.5 11.5z" />
<glyph unicode="V" horiz-adv-x="1366" d="M768 -102q-15 3 -33 6q-30 6 -47.5 10.5t-42.5 19t-39 37.5l-2 4l-2 5q-2 5 -8 22.5t-10 26.5q-80 211 -142 338q-27 62 -28 65q-17 35 -21 51q-21 4 -33 23q-12 17 -16 51q-2 5 -5 17.5t-5 17.5q-19 39 -60 98q-46 67 -65 111q-6 16 -6 39v10q-1 2 -15 16q-22 18 -28 33 q-17 24 -49 123q-12 37 -25 70q-3 11 -12 20q-20 29 -23 45q0 10 -2 14q0 13 -2 17l-4 4q-2 4 -8.5 12t-11 15t-7.5 14q-5 21 0 41q-3 1 -7.5 3.5t-11 11t-3.5 18.5q2 9 7 17.5t9 12.5l4 4q2 1 6.5 3.5t6.5 3.5q2 0 2 2q0 4 -2 8q-2 1 -4.5 4t-7 14t0.5 25q12 5 27 6.5 t24 0.5l9 -1q24 -8 53 -8q63 0 109 -27l8 -6l6 -12q9 -22 10 -27q23 -60 41 -76q10 -12 16 -20q-4 -3 -5 -8.5t0 -10.5l1 -4q0 -4 11 -37q7 -15 14 -38q3 -16 0 -25q84 -136 94 -215q10 -19 24.5 -44t18.5 -34q42 -60 74 -145q51 -72 119 -219q55 -117 69 -140q9 36 9 51 q15 73 24 99q11 31 49 96q5 9 13.5 26.5t13.5 27t10 22.5t6 22q6 47 37 142q2 9 15 50.5t18 65.5q6 26 33 74q10 15 18 39q59 164 90 277t45 233q5 47 23 49q12 1 22.5 -5.5t15.5 -13.5l5 -7q13 -13 49 -13q67 0 104 -24l13 -11l4 -12q10 -39 11 -78.5t-2.5 -70t-17.5 -74 t-24 -68.5t-31 -75q-19 -193 -155 -517q-33 -79 -68 -174q-11 -31 -18 -77q-1 -3 -2 -10q-23 -89 -55 -134l-1 -2q11 -29 0 -67l-4 -11l-8 -4q-10 -9 -20.5 -22t-16 -21.5t-17.5 -28.5t-16 -26q-17 -32 -29.5 -52t-34.5 -45t-48 -40l-15 -8z" />
<glyph unicode="W" horiz-adv-x="1933" d="M762 -84q-56 0 -92 39q-9 0 -17 4h-10l-18 4l-9 14q-2 1 -2 3q-1 1 -3 2t-7.5 2t-9.5 -2q-5 7 -8.5 14.5t-4.5 11.5l-1 4q-6 24 0 39q-1 1 -10.5 6t-15.5 8.5t-12 9.5t-7 11l2 20q-27 -3 -43 7q-7 4 -9.5 15.5t-0.5 20.5l1 9l2 2q-1 2 -9 11t-11 13q-27 27 -39 54 q-11 32 -6 51q-13 13 -25 33q-4 6 -12 14l-12 14q4 11 0 17q-2 3 -6.5 5.5t-8.5 3.5l-4 1l-2 29q-1 8 -4 20.5t-4 17.5q-12 41 -10 76q-34 43 -60 142q-11 40 -28 79q-6 11 -10 17l-15 20q1 0 1.5 1t1.5 5.5t-1 14.5q-1 5 -5 12t-8 11l-3 5l6 29q0 12 -16 41q-27 53 -25 82 q-17 -25 -29 0q-5 11 -5.5 25t1.5 22l2 8v8q0 1 1 4t1 5q-1 2 -3 4t-10.5 4.5t-18.5 -4.5q-2 9 0.5 22t6.5 22l3 9q4 11 -25 66q-28 47 -33 65q0 3 -1 7.5t-1 6.5q-28 3 -38 19q-3 13 0 23.5t7 14.5l5 5v4q-12 21 -15 39l-18 12v21q-2 14 -2 32q-3 27 2 66l8 37h35h2 q5 0 17.5 2.5t15.5 3.5q27 10 53 10h14l13 -2l10 -8q49 -47 98 -160q1 -2 8 -17t8.5 -17.5t7.5 -15.5t8.5 -17t8.5 -14t10 -15t9.5 -12.5t11.5 -13.5t12 -11l13 -8l4 -14q27 -126 110 -322q84 -201 107 -307q29 -41 63 -152q16 -58 35 -96q8 104 59 291q53 176 62 284 q0 25 4 39q4 4 9.5 4t9.5 -2l3 -2q2 38 27 115q31 83 31 145q-2 30 -2 48q10 11 36 3.5t33 -1.5q43 32 88 32q24 0 54 -6l22 -4l6 -22q30 -101 52 -244q2 -9 7.5 -40t7.5 -41.5t7.5 -37.5t8.5 -40t9 -36.5t11 -38.5l11.5 -34.5t14 -36.5t15.5 -33l4 -6v-8q6 -106 106 -322 l6 -12q12 27 9 45l-2 20l14 15q19 18 34.5 48t22.5 50.5t21 65.5q29 102 53 147q19 141 57 291q2 11 9 42.5t9 42.5t8.5 42t8 42t6.5 42t5 42t4 43t2 43.5t0 43.5q-2 27 0 37q4 3 14 4.5t17 1.5h8h6q30 0 67 -23q22 19 49 19q30 0 52 -25l12 -8l2 -10l6 -2q25 -11 31 -39 q24 3 28 -15l-12 -36q-10 -41 -10 -119q0 -39 -1 -60.5t-8.5 -52t-21.5 -51.5q7 -28 4 -49q-3 -28 -24 -45q-21 -164 -111 -455q-30 -103 -51 -188l-4 -9l-6 -6q-30 -38 -64 -118q-17 -42 -29 -65.5t-34 -56t-50.5 -51t-64.5 -24.5l-8 -2l-8 2q-14 2 -36 8.5t-24 7.5 q-54 13 -69 13h-23l-16 -2l-15 12q-102 98 -147 272q-10 10 -25 35q-2 3 -5 8t-5 8t-4 4q-16 13 -20 15q-2 3 -2 9.5t1 11.5l1 5q0 16 -19 54q-2 6 -7.5 15.5t-8 15.5t-5 15t-2.5 18t3 20l-4 16l-13 6q-25 -155 -20 -223v-12l-4 -9q-16 -34 -45 -124q-44 -143 -93 -213 l-8 -15l-14 -4q-28 -4 -45 -4z" />
<glyph unicode="X" horiz-adv-x="1366" d="M158 -115h-8q-41 10 -54 27h-2q-2 0 -6 1t-6 1l-14 2l-11 14q-37 54 -24 131q14 67 53 109q-3 12 0 25l4 22l23 8q18 6 26.5 16.5t16.5 32.5q21 52 49 70q0 15 4 27q6 12 29 35q14 14 12 22l-6 29l20 14q11 7 25 10q8 35 30.5 74.5t38.5 60.5t50 62q40 48 67 94 q-6 14 -13 26.5t-12 22.5t-13.5 22t-13 18.5t-15 18t-13 15.5t-15 16t-14 13.5t-15.5 15t-15 14.5q-98 86 -156 189q-8 10 -55 57q-31 33 -41 43.5t-36.5 41.5t-37.5 50t-26 48t-20.5 57.5t-4.5 58.5v17l12 12q71 67 152 67q28 0 47 -8l20 -6l7 -18q36 -113 168 -183 q32 -12 36 -22q2 -9 -3 -16.5t-11 -11.5l-6 -3q-4 -7 -4 -14q7 -10 29 -25q3 -3 13.5 -11t17.5 -14.5t12 -13.5q4 -4 8 -16q23 -3 37 -23.5t14 -44.5q3 -4 6.5 -7t7 -6.5l4.5 -4.5q1 0 2 -0.5t4.5 -1t8.5 -0.5q57 -14 96 -29q21 -8 27 -22q-4 -5 -5.5 -12.5t-1.5 -11.5v-5 q0 -22 17 -49q5 5 53 65q18 28 29.5 44.5t33.5 39t48 37.5q-4 59 51 103q35 27 37 53q6 21 6 33q7 6 13 5.5t9 -4.5l4 -3q10 29 33 45q4 32 43 61q14 14 15 16l4 27l22 4q30 6 58 6q50 0 122 -28q30 -15 45 -15h15l12 -10q19 -15 20 -41.5t-6 -44.5q0 -2 -1 -8t-1 -8 q-7 -21 9 -33q-4 -9 -15 -15.5t-21 -8.5l-9 -3h-13q-1 -1 -2 -4t-2 -4q-1 -3 -3.5 -9t-5.5 -12.5t-7 -11.5q-15 -25 -72 -57q-2 -2 -4 -2q8 -23 -10 -49q-7 -8 -41 -25q-1 0 -3.5 -1t-4.5 -1q-20 -28 -27 -45q-12 -32 -39 -61q-26 -33 -145 -166q7 -21 0 -41l-4 -10l-11 -9 q-32 -22 -35 -53q-1 -7 0.5 -15t5.5 -17t8 -17t12.5 -19.5t13.5 -19t16 -21t16.5 -20t17.5 -21t17 -20.5q98 -106 119 -174q28 -15 56 -39t44 -41.5t43 -50.5q67 -88 117 -113l16 -6q2 -1 4.5 -3t6 -8.5t-4.5 -14.5q53 -21 68 -52l10 -30q-8 0 -12 -5t-4 -9v-5 q-1 -2 -1.5 -8t-2 -12.5t-4.5 -12.5l-9 -12l-12 -6q-26 -13 -41 -18q-55 -33 -117 -37h-10l-12 6q-67 41 -136.5 105t-109.5 109.5t-110 129.5q-4 5 -25.5 31.5t-27 33t-24.5 29.5t-27 32t-25 28t-28.5 30.5t-26.5 26t-29 26.5q-4 -8 -18.5 -35.5t-22.5 -41.5 q-35 -82 -74 -121q0 -56 -25.5 -96.5t-72.5 -81.5q-80 -202 -236 -289q-21 -11 -39 -19q-10 6 -15 15.5t-5 15.5v6z" />
<glyph unicode="Y" horiz-adv-x="1366" d="M489 -39q-20 39 -51 55q-33 -3 -39 17l7 33q6 34 49 61q2 0 10 4q22 85 100 154q0 37 31 88q20 28 22 51l3 18l10 15q2 2 7.5 2.5t6.5 1.5q7 22 43 80q3 6 10.5 18.5t10.5 18.5q-11 6 -45 36q-43 38 -68.5 63t-58.5 65t-52 77l-18 23q-241 271 -369 473q-8 12 -14 20 q-61 84 -55 154q2 25 8 33q4 3 11 4.5t12 1.5h6q2 0 9.5 1t10.5 1q24 4 37 4q18 0 27 -6q8 0 20 1t16 1q90 0 140 -53q22 -26 53 -103q30 -85 70 -102l14 -6l6 -13q10 -21 24.5 -44t23.5 -35.5t29.5 -39t26.5 -34.5q54 -61 95 -127q41 -25 98 -99q41 -52 61 -67 q36 48 84 154q7 18 21 43l8 22h12q7 21 19 45q10 12 6 16q2 23 -12 29q7 10 16 17.5t15 9.5l5 2l9 4q2 4 2 25v20q2 50 61 90q15 10 19 14q6 23 34 78q34 79 37 105l4 28l31 4q25 5 27 5q17 0 39 -11q3 -1 18 -4h18l13 -14q21 -29 28 -70t6 -60.5t-6 -70.5q-4 -16 -4 -26 q-3 -28 -10.5 -55.5t-23.5 -60t-25.5 -50t-34.5 -58t-31 -51.5q-74 -99 -92 -162v-8q5 -28 -2 -41q-16 -38 -61 -100q-8 -14 -29 -50.5t-34.5 -62t-20.5 -47.5v-2q6 -23 -4 -35q-3 -9 -33 -57q-19 -28 -21 -35q-24 -50 -75 -145q-5 -10 -30.5 -57.5t-37.5 -73.5 q-8 -18 -33 -37v-2q2 -19 0 -33l-32 -8q-9 0 -14.5 -5t-14.5 -22q-20 -30 -31 -41l-14 -16l-23 8q-6 2 -14 2q-10 0 -25 -6l-36 -12l-31 -7z" />
<glyph unicode="Z" horiz-adv-x="1251" d="M1219 -41q-7 -27 -13 -31l-12 9q0 -2 -1 -4.5t-4 -7t-7 -3.5l-41 17q-11 8 -31 8q-11 0 -31 -4q-5 0 -18 -1t-19 -1q-47 0 -75 22q-12 -4 -41 -4q-33 0 -60 8q-32 11 -61 13q-10 2 -27 2t-67 -5q-32 -4 -66 -4q-47 0 -115 21q-145 -17 -204 -17q-23 0 -35 3 q-31 -17 -90 -21q-49 0 -64 -12l-18 -15l-23 9q-30 12 -65 18l-19 4l-8 21q-6 23 -6 59q-27 -11 -27 14q0 10 2 20t5 15l2 4q7 13 14 39q12 30 19 46t24.5 39t38.5 34q25 69 61 100q-8 0 -12 4q4 6 18.5 18.5t26.5 21.5l12 10q7 5 15 24q0 1 3 6t4 6.5t4 7t5 7.5t5.5 7 t6.5 7.5t7.5 6t9 6t9.5 5t11 3.5q20 30 23 36q41 89 104 121q0 7 2 11q0 2 1 6t1 8v26l21 11q25 8 42.5 27t37.5 53q38 75 100 104q7 29 24 53t28 33.5t34 26.5q5 5 17 15.5t17.5 16.5t13.5 19t13 29l4 12l13 8q65 54 96 107h-63q-143 0 -306 -25q-3 0 -39 -6l-18 -17l-33 7 l-2 -2q-2 -1 -6 -2.5t-6 -2.5q-3 -11 -21 -22l-10 -6h-12h-35h-49h-47q-92 0 -154 24l-12 6l-8 13q-21 39 -4 110q1 4 2.5 11t2.5 11.5t1 6.5l-2 33l37 6q25 4 43 12q59 23 96 23q16 0 24 -2v2l41 4h15q14 0 20 -2h17h4v2q-6 21 8 35q11 0 24 -3t20 -5l7 -3q8 -4 19 -4t43 4 q6 1 24.5 4t26.5 3q22 0 47 -7q0 4 6 7q6 14 20 16q6 1 11.5 -2t7.5 -6l2 -4q23 -9 25 -9q1 0 2.5 1t5 2t6.5 2q20 4 37 4t35 -6q42 14 67 14h8q-10 8 2 22l45 -24q15 -6 37 -6q19 0 23 4q39 16 53 28q8 -5 8 -12t-4 -12l-4 -4q8 2 21 2q12 0 20 -2l-2.5 5t-4 13t2.5 17 l59 -35q3 -1 8 -3t8 -3.5t5 -3.5h2q27 6 47 6q58 0 90 -35q34 -26 62 -72q8 -15 12 -29q1 -7 -5.5 -13t-12.5 -9l-7 -2q-154 -106 -221 -275q-4 -16 -8 -26q-7 -4 -14 -4t-10 2l-3 2h-2l-6 -6q-53 -61 -63 -74q-55 -74 -84 -129l-17 -25h-22q-6 -6 -6 -26l-7 -10l-10 -13 q-96 -106 -237 -280q-54 -74 -131 -158h53h39h45q46 0 71 10l23 8l18 -16q25 -18 47 -18q38 0 76 -13q18 6 39 6q17 0 25 -2h14q9 0 18 9l21 16l23 -16q30 -21 118 -21q76 -4 99 -10q46 -11 71 -47q46 4 60 -4q7 -3 8.5 -12t-0.5 -17l-2 -8q0 -9 10 -19q31 -31 37 -61 q0 -51 -16 -78q-8 -1 -15.5 2t-11.5 7l-4 3q0 -2 -2.5 -9t-9 -18t-15.5 -16q-4 13 -10.5 20t-10.5 8z" />
<glyph unicode="[" horiz-adv-x="681" d="M348 -449q-61 13 -106 70l-23 23q-2 2 -8 2q-2 1 -11 3.5t-15.5 6t-10.5 8.5q-32 40 -39 152q-2 60 6 137q-12 25 -8 96q4 66 -6 94l-6 11l2 12q8 19 18 27q-2 56 6 137q11 102 11 129v2q3 26 18 45q0 8 -4 20q-18 112 6 174q0 5 -1 15t-1 14q-7 47 12 66v2q-5 98 7 366 q2 8 2 33q-16 25 -25 80q-8 49 -18 63l-7 9v8q-6 41 15 65q11 13 41 25h4l2 22l33 2h4q18 0 28 -6l9 11q56 16 118 16q116 0 187 -41q36 -22 57 -86q3 -19 14 -37l7 -6v-10q4 -17 -7 -39q4 -33 -2 -41q-3 -4 -12.5 -4.5t-18.5 1.5l-8 1q-9 1 -27.5 4t-27.5 4q-48 10 -92 10 q-33 0 -45 -12q-2 -1 -5 -3t-5 -3q20 -81 16 -197q10 8 12 0l2 -43q-6 -116 -10 -323q0 -219 -18 -344q7 -31 -4 -80q-12 -77 6 -121l10 -27l-20 -18q0 -2 -4 -10h2q20 -36 16 -70q4 -23 -10 -37l-8 -8l4 -8q1 -2 2 -7.5t2 -7.5v-2l24 -43l-22 -24v-4q2 -6 2 -19 q32 -23 119 -35q2 -1 5.5 -1.5t6 -1.5t6 -1.5t6.5 -1.5l25 -4l6 -22q6 -12 24 -25q39 -35 46 -80l4 -16l-13 -15q-44 -55 -129 -55h-22q-3 0 -10.5 1t-10.5 1q-4 0 -12 -1t-12 -1q-13 -18 -31 -18h-10q-5 0 -15 1t-14 1l-8 -17z" />
<glyph unicode="\" horiz-adv-x="569" d="M510 -94q-12 4 -23 4h-14q-2 0 -7.5 -1t-8.5 -1q-21 0 -39 6l-10 2l-7 6q-42 31 -75 174q-21 21 -23 35q-6 22 -2 47q3 13 0 23q-3 19 -27 106q-12 43 -24 90q-3 11 -10.5 40.5t-12 51.5t-6.5 43q-38 116 -45 152q-1 2 -12 68q-3 45 -14 79q-2 8 -13 31q-9 23 -12 56v55 q0 4 0.5 11.5t0.5 13.5t-1 10q-1 12 -23 75q-3 9 -10 28t-10 28q-68 225 -105 317q-8 23 -12 35q4 7 15 12t20 7l8 1q13 3 19 9q12 12 39 12q12 0 20 -2q38 -7 49 -29q1 0 2 -1t2 -1q32 -16 41 -51l6 -6q35 -52 35 -86q10 -48 45 -162q2 -8 6 -20q27 -29 43 -84v-3 q5 -22 11.5 -67.5t11.5 -67.5q22 -127 53 -202l4 -9v-10q-2 -46 23 -123q0 -6 4 -26q8 -51 53 -179q71 -220 111 -374l2 -9l-2 -8q-4 -34 -33 -57l-2 -2q4 -14 0 -37q-4 -5 -14.5 -7.5t-18.5 -2.5h-8z" />
<glyph unicode="]" horiz-adv-x="681" d="M463 -463q-24 4 -107 29q-52 18 -84 18q-35 0 -69 -28l-10 -11h-17q-21 0 -43 13l-4 -7l-25 9q-14 3 -28 12l-4 -2l-27 18q-52 38 -63 84l-13 9l4 24q11 59 53 97t97 38q19 0 27 -2l34 -8v-2q28 8 39 8q16 0 35 -14q15 0 21 -2h16q-6 66 -6 286q2 27 2 72q0 66 -10 144 q-10 109 -11 145q0 9 13 35v2q0 120 8 354q4 70 4 115v10l10 12q1 1 3.5 5t4.5 6q-4 29 4 94q9 91 5 112q-32 7 -101 52q-45 27 -61 32q-29 10 -47 25.5t-25 36.5t-8.5 33.5t-1.5 33.5v33q-2 35 6 49q7 4 18 2.5t21 -5.5l10 -5q6 -2 21 -2q24 0 36 2q32 4 48 4h2 q13 0 43 -12q3 -1 8 -2.5t9 -2.5t7 -1h12h48q70 0 125.5 -14t105.5 -60l16 -14l-4 -21q-11 -92 -30 -188q-44 -229 -39 -416v-98q-13 -361 30 -774v-4v-7q-6 -35 -6 -102q-4 -99 -12 -141q-15 -93 -74 -109l-8 -2z" />
<glyph unicode="^" horiz-adv-x="1196" d="M315 584q-60 0 -95.5 26t-63.5 70l-9 16l5 19q7 29 10 65q13 108 45 142q9 55 31 109.5t41 88.5t53 88q7 12 23 39t24.5 42.5t20 38.5t18.5 44t10 43l2 15l10 8q19 22 29 73l6 33l37 -2q156 -12 238 -115q60 -69 100 -210q51 -143 102 -203l15 -13l-6 -22q-3 -2 -3 -6 q23 6 31 -6l-8 -39q-5 -18 25 -90q20 -32 22 -52q27 -27 29 -59l2 -31l-31 -6q-7 0 -33 -22q-36 -31 -53 -39l-12 -4l-12 4q-51 9 -84 65q-25 28 -43 33l-31 8l4 33q1 12 -1.5 25t-9 31.5t-8.5 27.5q-3 9 -10 28.5t-10 28.5q-31 -12 -45 2l8 39q10 58 0 78l-8 13l-14 20 q-1 2 -4 8.5t-5.5 14t-3.5 12.5q-2 9 -9 23t-9 20q-6 8 -14 24q-1 3 -7.5 16.5t-9.5 22.5q0 1 -1 3t-1 3q-18 -51 -41 -94q-17 -49 -24 -57q5 -8 8 -31q8 -33 -6 -45q-8 -3 -16.5 -2t-15.5 5l-7 3q-11 -28 -17 -35q-2 -4 -8 -10q0 -2 1 -7.5t1 -8.5v-11l-10 -6 q-27 -41 -37.5 -72.5t-19.5 -82.5q-18 -90 -45 -146l-7 -22l-20 -2h-23z" />
<glyph unicode="_" horiz-adv-x="1024" d="M385 -299q-8 0 -20 12q-20 -4 -78 -4q-35 0 -66 2q-157 12 -223 29l-23 6l-4 21q0 2 -2 4q-14 47 2 75q-1 1 -2 3t-3 7.5t3 10.5q3 6 13 8.5t19 2.5l9 -1h6q3 0 7 4q4 0 6 2l14 8l16 -4q18 -6 35 -6h15h22l47 4l2 -6q8 2 25 2q34 0 55 -6q2 0 5.5 -1t4.5 -1q17 4 29 18 q7 0 11.5 -3t5.5 -6l1 -3q8 2 29 2q17 0 23 -4q12 8 32 8l17 2l12 -8q7 -4 29 -8l4 -2v6l35 -6q18 0 26 -2q28 -4 39 -4q5 0 25 4q12 6 20 6q4 0 10 -3.5t10 -7.5l3 -3l4 4q8 10 10 16l17 2q2 0 26 -6q16 -4 23 -4q4 0 6 2q16 19 26 21q4 1 8 -2.5t7 -7.5l2 -3h8 q41 -6 57 -14q14 18 41 18h6q17 11 52 17q1 0 4 1t4 1q10 4 20 20q13 -2 21.5 -9t10.5 -13l3 -6q15 -5 23 -9l20 -20l-4 -10q1 -1 5.5 -4t6.5 -3l9 -2l2 -12v-6q14 -14 18 -43q2 -14 2 -23q0 -26 -4 -30q-2 -2 -8.5 -2.5t-12.5 0.5h-6q-5 -5 -14 -11l-10 -6l-10 2h-17 q-31 0 -55 -6q-50 -8 -78 -8h-10h-2h-2q-28 4 -66 4q-10 0 -35 -1t-41 -1q-58 -4 -73 -4q-47 0 -99 10q-28 -4 -53 -4h-16q-10 2 -27 2q0 -6 -5 -9t-10 -3h-5z" />
<glyph unicode="`" horiz-adv-x="681" d="M428 1135q-10 0 -19.5 0.5t-18.5 1.5t-15 2t-14.5 3.5t-12.5 3t-13 4t-11 4.5t-12 4.5t-11 4.5l-4 2q-109 51 -176.5 137t-75.5 181l-2 16l12 12q12 16 37 29q16 8 19 14l6 23l30 6q5 0 13 1t10 1q10 0 14 -2h6q23 -3 35 -18q6 2 17 2h12q79 0 100 -43q8 -13 8 -33l15 4 l18 -18q29 -31 37 -56.5t4 -54.5q-3 -18 2 -35q8 -25 54 -74l10 -12v-16q0 -25 -10 -47q-20 -47 -64 -47z" />
<glyph unicode="a" d="M909 -63q-20 20 -35 38q-6 7 -23 29.5t-29 35t-31 26.5l-5 4l-4 6q-20 40 -24 114q-5 -11 -13.5 -15.5t-15.5 -0.5q-74 -105 -133 -149q-97 -78 -215 -78q-79 0 -152 30l-12 7l-6 10q-35 49 -43 59q-3 5 -16.5 25t-17.5 26t-16 25t-16.5 27.5t-15 26.5t-16 29t-14 28.5 t-14 31.5t-11.5 30.5t-11 33.5l-4 4l2 8q13 88 13 182q1 14 2 47.5t2 49.5l2 37q1 0 1.5 0.5t3 2.5t3.5 4.5t2.5 7t-0.5 9.5q-4 16 1 24t12 8l8 1q0 14 28 16q-8 25 8 41q10 16 25 19q0 12 2 18q1 6 4 10.5t5 8t6.5 7t6.5 5t7 4.5t6 4q9 5 12 7.5t5 9.5t1 20q-2 31 4 39 q7 11 17.5 12t16.5 -4l7 -4q11 36 39 22q3 17 21 37q10 8 21 5t20 -10l8 -7q14 9 14 18q2 3 3.5 7t5 16t-0.5 20q14 6 23 3t13 -9l5 -6q2 2 5 2q16 4 28 4q8 0 12 -2q-1 13 7 19q6 3 13 2t13 -3l6 -3h13q33 0 59 -11q24 6 57 6q76 0 131 -34q59 -38 78 -84q26 -5 47 -15.5 t30.5 -18.5t25.5 -24q22 -26 43 -34l20 -11v-24q-2 -64 -10 -164q-19 -199 -8 -311q16 5 20 -11v27q-2 12 10 18l41 -6l15 -10q13 10 28 10q17 0 33 -12q12 -10 12 -43q11 -16 15 -29q8 -27 10 -47q1 -6 4 -19.5t4 -19.5l6 -22l-16 -15q-27 -27 -49 -88q-29 -60 -52 -83 q-39 -39 -108 -50l-20 -4zM281 260q34 -7 65 -51q13 -18 23 -25q25 14 41 25q61 37 87 63q38 37 78 101q16 56 55 113.5t79 95.5q6 36 13 94.5t9 71.5q-21 9 -57 36q-28 24 -39 27q-12 2 -27 10q-12 4 -16 4q-42 0 -54 -5t-42 -32q-4 -3 -13.5 -11t-13.5 -11l-25 -27 q-2 17 -18 17q-54 -54 -51 -92v-25l-23 -8q-33 -20 -49 -92q-12 -74 -4 -129v-33l-20 -23q1 -11 1 -14t-1.5 -13t-2.5 -16q0 -36 5 -51z" />
<glyph unicode="b" horiz-adv-x="1251" d="M397 -92q-16 12 -22 16q-1 0 -3 1t-3 1q-3 2 -15 2h-10h-22l-13 19q-43 68 -65 134.5t-26.5 109.5t-8.5 128q0 31 -2 43q-11 44 -25 58q-2 2 -5 4.5t-11 7t-14 -1.5q-5 9 -6.5 19.5t0.5 16.5l1 7q1 11 27 68l6 12q-3 31 -10 89t-10 85q-32 247 -45 414.5t-2 331.5l2 28 l28 8q28 4 39 4q40 0 94 -38q18 -13 21 -15q2 2 5 4t11.5 5t14.5 1l16 -36q15 -49 23 -111.5t9 -93.5t3 -109q0 -141 16 -223l8 8q24 12 34 20.5t14 24.5l10 23q4 3 11 6.5t25.5 1t34.5 -19.5q46 20 109 20q48 0 68 -2q40 -4 59 -4q17 0 25 2l22 2l14 -21q8 -12 23 -16 t49 -8q22 -1 36.5 -3t35 -8.5t37 -20.5t28.5 -36q25 -13 43.5 -46t25 -55t19.5 -73q22 -91 39 -108l6 -6l5 -9q30 -77 12 -161q-11 -67 -64 -146q-75 -110 -213 -209q-39 -29 -139 -63q-47 -16 -82 -33l-16 -4l-17 4q-6 2 -20 2h-16q-2 0 -8 -1t-9 -1t-11.5 1t-12.5 1 q-24 -17 -84 -27q-41 -6 -45 -10q1 -14 -19 -20q-8 -2 -16 -0.5t-14 4.5zM498 211q12 0 32 -4q8 13 11 14v10l18 13q22 12 55 12h21h18h11q-13 27 16 33q1 -2 3.5 -5t9 -7t12.5 -1q8 4 12.5 9.5t4.5 9.5l1 4q1 1 5 -2.5t11 -6.5t13 -1q5 0 15.5 4t16.5 4q19 39 54 57 q-1 1 -2 3.5t-3 10.5t3 15q4 7 14.5 12t19.5 7l9 1q11 0 28 35q18 32 25 64q-71 221 -262 221q-98 0 -191 -53q6 -59 -10 -142q-1 -6 -6 -41q-2 -19 8 -53q14 -58 14 -80q-3 -32 -6 -63q-6 -60 6 -80h13z" />
<glyph unicode="c" d="M496 -68q-10 6 -68 15q-61 4 -86 16h-4l-2 2q-138 83 -207 242q-65 149 -59 330q1 12 2.5 24.5t3 21.5t5 22t5 18.5t6.5 19t6 16.5t7 17.5t6 15.5q28 61 28 99v26l23 10q15 6 30.5 23.5t22 30t21.5 41.5q23 64 51 86l18 10q6 2 26 11t29 15q7 3 12.5 5.5t7.5 3.5t3 2 q12 4 20 4q7 0 11 -2q10 8 12 35q7 1 13.5 -1t8.5 -4l3 -2q11 21 24 29l6 4h8q175 33 193 35l12 2l13 -6q123 -63 192 -166q69 -105 84 -238l2 -16l-10 -14q-44 -53 -107 -68l-16 -4l-12 8q-61 37 -103 158q-20 50 -32.5 72t-28.5 26q-28 -13 -64 -24q-101 -42 -127 -49 q-47 -85 -116 -175q-18 -29 -31 -47q-39 -204 49 -379q60 -35 211 -63q110 32 160.5 68t91.5 120l18 37q2 -1 5 -2t11 -3t13 -1q4 3 7 8t4 9l1 4l39 -7q116 -18 160 -86q31 -55 4 -127l-2 -8l-8 -6q-129 -112 -254 -170q-152 -68 -328 -80h-14z" />
<glyph unicode="d" horiz-adv-x="1251" d="M479 -51q-194 0 -295 135q-53 65 -69 158q-11 72 4 147q-10 10 -10 25q-9 137 92 278q79 109 174 160q0 31 8 47q1 2 3 5t3 5l12 31l31 -4q13 0 25 -4l2 2q18 41 65 41q23 0 51 -8q24 -6 46 -6q6 0 8 0.5t4 4t4 11.5l8 35l37 -4q24 -4 41 -4q29 0 53 -3q0 6 1 18t1 17 q2 23 0 33.5t-12 34.5l-6 12l6 17q17 50 20.5 100t-0.5 86q-4 93 15 174l4 8l6 6q21 21 66 25q1 0 4.5 1t5.5 2.5t2 4.5q-4 17 6 21q11 2 22.5 0t20.5 -5l10 -4q29 -13 47 -30.5t25.5 -44.5t9 -44t2.5 -55q2 -14 2 -41q7 -116 -10 -151q29 -90 20 -318q0 -10 -1 -31t-1 -30 q23 -59 30.5 -139.5t0.5 -151.5q53 -194 51 -289q24 -40 27 -90q0 -71 -33 -108l-10 -11h-14q-12 -1 -31.5 -7t-24.5 -7q-36 -16 -63 -16q-32 0 -57 14l-19 10l-2 21q0 6 -6 18q-14 23 -14 45q-9 -8 -48 -37q-54 -40 -73 -61q-11 -14 -25 -18q-6 5 -14.5 7.5t-13.5 2.5h-5 q-118 -41 -219 -41zM481 201q29 0 43 -2t41 -2q6 0 11.5 0.5t8 1t3.5 0.5q6 6 10 6q61 45 92 45h2q28 38 90 63q21 11 23 11q-2 18 -2 55q4 85 -15 129l-14 35l31 14q7 27 -2 90q-2 15 -19 86q-33 0 -79 8q-272 -94 -345 -299q5 -5 5 -8q11 -23 0 -61q-1 -3 -3.5 -9.5 t-3.5 -9.5q17 -45 19 -63q15 -49 28 -64.5t56 -25.5h20z" />
<glyph unicode="e" d="M446 -49q-127 34 -204 102q-94 82 -103 199l-24 10l4 27q3 48 -6 57q-4 6 -47 10q-54 7 -93 31l-20 12v23q0 66 45 131q10 16 12 22l13 31l32 -8q10 -4 23 -4h12q6 2 16 2q16 0 39 -10q1 1 2.5 2t2.5 2q8 43 32.5 89t42 69t60.5 77q34 37 73 99l4 6l11 6q6 3 21 8t22 8 q44 12 49 31q2 25 18 41q10 3 19.5 0t13.5 -8l4 -4q11 6 53 18q22 6 23 6q2 1 4 2.5t5 5.5t1 7q6 3 14 3t12 -2l5 -1q21 -7 59 -7h37q24 3 47 3q76 0 133 -27l15 -6l4 -17q7 -23 33 -41q14 -8 22 -15t18 -26t13 -45q8 -46 0 -87.5t-34.5 -81t-45 -61.5t-55.5 -60 q-25 -25 -35 -29l-10 -10l-13 -2q-12 -4 -32 -4v-3l-9 -28l-28 -2l-8 -2t-7 -2t-7.5 -3.5t-6.5 -4t-6.5 -5.5t-6.5 -5t-7 -6l-6.5 -6.5l-7.5 -7.5l-7 -7q-8 -4 -26.5 -18.5t-34.5 -23t-33 -10.5q-6 -6 -6 -10q-5 -21 -21 -33q-9 -2 -21 1t-20 7l-8 3l-2 2q-10 0 -16 2 q-31 -18 -101 -27q-55 -10 -61 -22q0 -2 1 -6.5t1 -6.5q3 -7 8 -28v-4q49 -72 199 -72q42 0 65 4q35 5 105 39q20 5 78 22q36 12 77 19q7 2 15 3.5t15.5 2.5t10.5 2q1 2 2 5t2 5q27 31 43 35q6 2 17 2q21 0 37 -12q1 1 8 18q1 1 7 10t11 15t15.5 13.5t23.5 10.5l29 9l14 -27 q18 -27 29 -61.5t13.5 -53t8.5 -71.5l3 -27l-21 -10q-133 -85 -309 -148q-168 -55 -385 -61h-6h-7zM412 627q-1 -5 -6.5 -20.5t-8.5 -24.5q29 9 78 34q56 33 107 37q23 34 57.5 55.5t67.5 24.5q9 13 57 47q40 29 47 45q-34 11 -74 11q-38 0 -76.5 -13t-67.5 -30t-65 -48.5 t-58 -54.5t-58 -63z" />
<glyph unicode="f" horiz-adv-x="681" d="M410 -51q-14 0 -50 4t-45 4h-4q-29 -2 -43 6l-2 35q1 8 -4 53q-9 63 -2 90q-20 41 -21.5 78.5t9.5 79.5q-23 35 -26 92.5t5 106.5q4 54 4 80q-2 10 -2 20l-12 -6q-16 -8 -24 -10q-20 -4 -25 -4q-22 0 -37 12q-18 -6 -31 -6q-14 0 -20 2l-14 4l-7 6h-2q-29 6 -37 29 q-9 21 -2 41q-30 72 11 133q19 31 69 47l6 3q7 3 11 5q25 12 96 25q-5 129 -8 161q-3 104 -2 115q4 35 18 78q18 81 21 147v9l4 6q21 35 78 73q6 6 17.5 14t19.5 15t12 14q8 15 18 33q12 2 20.5 -1.5t10.5 -8.5l2 -4q24 8 33 8q25 0 59 -18q64 -34 127 -97q25 -23 76 -59 q14 -15 28 -25q-1 -8 -5 -14t-8 -8l-3 -2v-2q33 -33 31 -66q-1 -18 -21 -57q-24 -43 -57 -43q-10 0 -14 2q-6 -2 -19 -2q-29 0 -49 33q-33 8 -49 22q-10 18 -14 33q-3 0 -7 4q-13 9 -32 33q-22 -4 -41 -10q-29 -29 -29 -152q0 -112 16 -211h2q2 2 11 2h2q4 0 13.5 -1 t14.5 -1q6 -2 21 -2v0h18q40 0 92 -6l11 -2l8 -10q3 -3 8.5 -9t7.5 -8q25 -25 66 -55q10 -8 16 -16q2 -5 0.5 -11.5t-3.5 -13.5l-3 -6q-13 -28 -35 -47t-56 -31t-56 -17t-64 -12q-8 -1 -24.5 -3t-24.5 -3q-21 -52 -12 -174q8 -113 30 -215q38 -24 41 -113q0 -71 -14 -118 q-15 -33 -41.5 -54t-58.5 -24h-2h-2z" />
<glyph unicode="g" horiz-adv-x="1251" d="M670 -467h-15h-16q-82 2 -120 9.5t-52 35.5v2h-4q-71 15 -86 23q-6 3 -21 8q-62 17 -73 53q-3 2 -11.5 5t-11.5 5l-4 4q-12 -4 -18 -4q-34 0 -54 33q-3 5 -5.5 11.5t-5 13.5t-3.5 10q-3 12 -8 22q-77 99 -62 183q15 76 117 133q21 10 29 10q2 -4 9 -8.5t13 -7.5l6 -2 q6 -4 19 -4l33 -5l4 -32q10 -101 106 -164q100 -68 226 -68q107 0 186 51q26 50 30 117t-3 115t-25 131q-1 7 -4 19l-4 16q-12 -4 -21 -4q-15 0 -30 10q-144 -74 -297 -74q-183 0 -275 115q-53 62 -72 190q-18 125 15 234q35 101 129 209q101 110 215 155q66 25 242 74l10 2 l10 -2q24 -6 55 -24q35 -17 47 -19l25 -2l8 -20q11 -22 47 -54q14 -13 20 -18.5t14.5 -21t8.5 -31.5q-1 -26 -21.5 -49t-62.5 -54l-22 -14l-23 12q-18 12 -41 12q-46 0 -86 33q-37 -1 -70.5 -11.5t-56.5 -23.5t-51 -40t-43.5 -45t-44.5 -54q-6 -8 -24.5 -30t-28.5 -35 q-1 -8 -3 -25t-3 -25q-7 -52 -8 -86.5t17 -60t64 -47.5q16 -4 52 -4q45 0 91 13.5t73.5 27.5t66.5 37q7 4 39 20q6 79 -16 199l-5 24l21 17q3 2 6.5 5.5t8 8.5t7.5 8q43 48 82 54h27q62 0 96 -37q30 -33 35.5 -98t-2.5 -128q0 -6 -1 -18t-1 -18q-4 -40 18 -152l2 -4 q2 -9 13 -23q17 -29 20 -41q9 -39 2 -100v-18q-1 -10 4 -58q0 -4 1 -11.5t1 -10.5q3 -26 -14 -43q5 -38 8 -51q14 -113 13 -123q6 -141 -82 -232q-71 -71 -181 -104q-95 -31 -200 -31z" />
<glyph unicode="h" horiz-adv-x="1251" d="M293 -53q-92 39 -109 145q-10 70 2 170v4l-2 2q-14 17 -14 35q-2 31 -5 91t-5 91q-7 162 -19 252l-16 19q1 1 2.5 3.5t4 10.5t1.5 16q-1 11 -5.5 20t-8.5 14l-4 5q1 14 8.5 25.5t14.5 16.5l7 5l-3 5q-3 5 -5 6q-22 22 -20 53v2v2q15 97 0 248q-19 174 2 295l4 18l18 10 q44 21 72 21q45 0 72 -39q14 -19 20 -51q6 -21 17 -43l4 -8v-7q1 -11 -4 -38q-3 -9 -3 -17q0 -7 17 -35q8 -10 14 -26q7 -25 -4 -64q-10 -26 -2 -57q30 -126 39 -348q31 42 82 90q18 12 33 24q26 13 26 23l6 33l33 2q15 0 39 6q48 10 105 10q41 0 59 -4l14 -2l11 -12 q3 -2 10 -4t16.5 -5t13.5 -4q2 0 11 -2t12 -2.5t11 -2.5t12 -3.5t11 -4t11 -5t9.5 -6.5t9.5 -8q13 -15 22 -43q5 -20 10 -25q16 -18 50.5 -71.5t41.5 -77.5q5 -18 -2 -35q18 -13 25 -33q25 -62 33 -246q13 -141 18 -162q4 -8 4 -14q45 -149 -4 -215q-44 -47 -131 -47h-6h-16 l-13 12q-31 30 -50.5 70.5t-29 98t-12.5 97.5t-6 115q-4 144 -16 209q-16 37 -17 39q-29 73 -55.5 102t-87.5 29h-25q-35 -20 -80 -74q-21 -28 -79 -121q-5 -10 -5 -26q-4 -26 -10 -41q-9 -21 -22 -31q-11 -45 -19 -113q-8 -94 -2 -243l2 -39l-10 -12q-42 -39 -96 -74 l-19 -10z" />
<glyph unicode="i" horiz-adv-x="569" d="M248 -55q-41 0 -60 32q-4 5 -8 15q-14 6 -26 24q-1 1 -2 3.5t-2 3.5q-13 14 -17 18.5t-12 15.5t-11 20t-4 19q-2 26 19 94q-1 1 -2 4.5t-2 4.5q-25 30 -25 59q2 43 25 162q14 67 18 102q4 37 4 119q0 80 4 119q2 23 19 57q9 15 9.5 21.5t-7.5 27.5l-12 23l18 20 q42 45 92 45q34 0 92 -28q20 -10 35 -15l21 -8l4 -20q14 -61 16 -141t-2.5 -133t-15.5 -146q-10 -93 -13.5 -132.5t-3.5 -105.5t11 -112l2 -11l-2 -10q-31 -94 -129 -139l-2 -2q-15 -6 -31 -6zM258 1147q-23 0 -35 2l-16 2l-10 12q-99 113 -74 236l4 24l25 9q40 12 55 53 q4 22 20 28q7 2 17 0t16 -5l6 -3q3 -1 8.5 -4t8.5 -4q19 -14 30 -14q13 0 21 2l8 2h6q17 -1 29.5 -7.5t19 -18t8.5 -16.5t5 -15l2 -5l20 -6l6 -24q25 -109 -37 -187q-53 -61 -143 -61z" />
<glyph unicode="j" horiz-adv-x="569" d="M262 -473q-5 0 -16.5 1t-16.5 1q-8 2 -20 2h-2h-6h-4q-12 -2 -33 -2q-73 0 -113 16q-20 10 -65 17l-9 2l-6 4q-60 35 -92 117q-31 79 -12 149q15 54 58.5 83.5t107.5 29.5h14l12 -10q30 -27 36 -62t-1 -53q-6 -28 0 -39q6 -17 12 -23q17 11 29 21l21 14q30 20 51 105 q16 80 20 184q9 134 -49 479q-10 61 -13.5 85t-11.5 75.5t-10.5 78.5t-6 64.5t-3 64t3.5 48.5l4 41l41 -4q14 -1 28 -5.5t21.5 -7.5t22.5 -11t18 -9q22 -13 41 -18l25 -9l4 -26q12 -88 53 -258q22 -95 32.5 -141.5t28.5 -139.5t23 -154t8 -139.5t-8 -146t-33 -127.5 q2 -3 3 -6.5t2 -8t2 -6.5q0 -10 -7 -24q6 -5 0.5 -41.5t-28.5 -71.5q-17 2 -29 -14q-5 -6 -5 -13.5t2 -11.5l3 -4l-12 -14q-26 -34 -49 -39q-8 -25 -29 -35q-13 -8 -37 -8zM158 1167q-21 0 -31 2h-10l-11 9q-29 23 -50.5 63.5t-18.5 75.5q5 19 8 24q-19 31 -4 68l8 21l14 2 q2 26 19 51q31 39 96 39q68 0 129 -39l27 -17l-10 -30q-2 -12 14 -45q13 -31 18.5 -46t4 -51t-22.5 -69l-10 -17l-17 -2q-30 -7 -45 -14q-60 -25 -108 -25z" />
<glyph unicode="k" d="M371 -57q-65 0 -122 35.5t-67 93.5q-7 30 6 112q14 62 8.5 96t-40.5 44l-31 14l6 33q12 53 33 108q28 76 24 133q0 16 -10 99q-6 32 -14 100q-3 28 2 107q5 45 1.5 91.5t-24.5 80.5l-6 12l2 10q9 83 -8 219q-17 140 -8 209q0 33 6 37q4 2 13.5 2t17.5 -1l8 -1 q11 -1 20.5 -3.5t19.5 -6t16.5 -6.5t16.5 -9t14 -8t15 -9.5t13 -8.5t10.5 -7t12 -8l10.5 -6t13 -5.5t13 -2.5l23 -6l6 -25q20 -71 32.5 -160t15.5 -140.5t9 -166.5q9 -203 16 -264q82 76 93 86q71 68 108 102t101.5 81t115.5 67l23 10l18 -16q15 -12 26.5 -29.5t15 -24.5 t11.5 -28q7 -28 19 -45l10 -16l-6 -17q-19 -52 -88 -94q-47 -30 -55 -53q-7 -11 -9 -23q-6 -4 -15 -5t-15 0l-6 1q-3 -11 -29 -47q-28 -38 -103 -86q-56 -41 -71 -59v-11q0 -26 -13 -43q-6 -8 -18 -20q2 -1 6.5 -4.5t7.5 -5.5q19 -12 42.5 -23.5t40.5 -18t47 -17t44 -15.5 q2 -1 30 -11t33 -12t31 -12t34 -14t31.5 -14.5t34.5 -17t31 -18.5t34 -22.5t31 -24t32 -28.5q45 -47 53 -92q0 -7 8 -13q2 -3 5.5 -8t8 -17t1.5 -20t-9.5 -13t-11.5 -6l-6 -1q-5 -27 -24 -39q-1 -1 -4 -3t-11 -5t-16 -2q-8 0 -13.5 3t-7.5 6l-2 3q0 -2 -4 -5t-12.5 -5 t-20.5 2l-14 10q-10 6 -27.5 14.5t-43.5 20t-44 20.5q-6 3 -32 15t-34.5 16t-30.5 14.5t-33 17t-27 16t-27.5 18.5t-21.5 18q-24 5 -95 39q-5 2 -21.5 10.5t-23.5 11.5t-20.5 8.5t-24.5 8.5t-22 4q-19 -45 -6 -168q7 -62 4 -98l-2 -27l-25 -8q-30 -10 -59 -10z" />
<glyph unicode="l" horiz-adv-x="569" d="M313 -63q-91 0 -137 49q-37 38 -44 109.5t3 140.5q0 5 3 42t3 58q0 36 13 125q12 86 10 127q-19 366 -14 604q0 20 -3 70.5t-4 66.5q-8 142 -4 178l2 25l25 10q12 4 24 4q31 0 73 -37q1 -1 3 -2l4 -4q30 -26 47 -26h2q21 2 39 -2l7 -33q89 -587 49 -1403q-2 -47 -31 -51 q2 -5 5 -10t5 -7l2 -2q4 -16 -16 -22q-20 -10 -66 -10z" />
<glyph unicode="m" horiz-adv-x="1820" d="M334 -63q-74 43 -135 98l-13 10v18q-10 167 -34 400q-34 365 -43 547v24l18 13q49 32 92 32q49 0 84 -41q27 -30 41 -80q19 -62 35 -202q1 -7 2 -22t2 -21q22 60 37 114q4 15 8 19v2q6 12 13.5 23.5t13 19t15 18t13.5 15t15.5 15.5t13.5 13q54 50 66 90l2 9l6 8 q41 43 112 43q27 0 41 -2h29q18 0 20 2l25 14l23 -16q18 -14 53 -33q75 -36 102 -92q8 -15 13 -53v-13q22 -7 30 -26q9 -16 13 -47q52 120 147 262l20 32l27 -4h4q9 0 41 4q45 9 66 9q17 0 37 -4q21 -5 41 -25l20 10l25 -35q4 -7 32 -49q38 -57 39 -59q13 10 21 -6 q4 -7 12 -28.5t14 -39.5l6 -18q29 -80 36 -140t5 -151q35 -23 35 -57q3 -16 -4 -27l10 -4l2 -27q5 -40 -10 -67q22 -15 27 -31q2 -6 1 -13t-3 -12l-2 -6q-9 -33 -8.5 -48t6.5 -52q17 -86 -2 -137q20 -9 28 -25q-1 -5 -6 -14.5t-10 -15.5l-4 -7q-4 -7 -23 -26 q-17 -17 -20 -33l-6 -29l-29 -2q-10 -2 -29 -2q-58 0 -110.5 31t-81.5 82q-35 65 -12 125q-15 81 -11 227q1 65 1.5 121t-15 119t-49.5 120q-1 -4 -8 -18q-1 -2 -5 -9t-6 -9q9 -23 7 -37l-3 -13l-6 -8q-48 -57 -84 -184q-4 -10 -13.5 -37.5t-15 -41.5t-14.5 -36t-19 -40 t-22 -34q6 -78 -14 -180q-8 -40 -20 -106l-5 -25l-22 -8q-30 -10 -55 -10q-30 0 -55.5 11.5t-46 35.5t-31 40t-25.5 44l-4 8v10q-2 31 -2 90q0 204 -11.5 336.5t-54.5 288.5q-18 -3 -18 -6q-4 -4 -4 -23q2 -16 -4 -28q-4 -5 -10 -9t-10 -5l-5 -1q-4 -4 -8 -6q-9 -9 -21 -14 l15 -12l-25 -29q-17 -20 -35 -64q-23 -52 -47 -82q2 -62 -47 -139q-3 -6 -11.5 -21t-13.5 -25.5t-8 -20.5q-11 -40 -22 -131q-8 -66 -15 -106.5t-25.5 -91.5t-47.5 -83l-8 -8l-13 -4l-18 2q6 -23 -12 -25z" />
<glyph unicode="n" horiz-adv-x="1251" d="M291 -80q-95 0 -156 125l-4 6v39q-15 549 -31 893q-2 29 2 41q8 2 18 2t16 -1l7 -1q8 14 33 20l14 5l15 -7q10 -5 35 -10q20 -6 30.5 -9.5t27.5 -17t30 -34.5l8 -13l-2 -14q-12 -79 4 -201q16 70 47 91q9 57 64 108q27 31 36 53l7 19l20 6q9 2 26.5 7t26.5 7 q82 31 133 33h9l10 -4q17 -8 86 -29q134 -35 184 -88l4 -4l4 -6q114 -264 152 -457q55 -269 -8 -477l-4 -14l-13 -8q-21 -15 -47 -15h-20h-2q-12 -4 -23 -4q-31 0 -67 41l-23 23l-37 4l2 30v23q2 91 3 178t-11.5 183.5t-38.5 168.5q-27 72 -78 133.5t-88 61.5q-27 0 -51 -37 q-18 -28 -47 -106q-29 -76 -37 -93q-46 -82 -86 -204q-7 -21 -29 -25q-6 -15 -10 -32t-6.5 -27.5t-5 -33t-3 -28t-2 -34t-1.5 -29.5q-4 -128 -37 -203l-4 -10l-13 -4q-34 -21 -69 -21z" />
<glyph unicode="o" horiz-adv-x="1251" d="M485 -57q-10 -4 -43 6q4 3 4.5 6.5t-0.5 5.5l-2 2q-65 3 -114 31q-46 26 -97 84q-52 20 -102 74q-33 38 -59 118q-33 124 -6 299l4 39q4 4 9 6t8 2h3q3 23 29 39q34 105 111.5 190.5t175.5 125.5q57 57 116 65h6q43 19 76 19q17 0 23 -2q14 2 41 2q78 0 151 -29 q56 -26 107 -80q47 -6 67 -24q15 -15 21 -33l22 4l17 -21q13 -19 43 -45q40 -44 63 -79l2 -3l2 -2q66 -156 8 -323q-48 -130 -151 -252l-10 -10l-15 -2h-10q-18 -22 -76 -76q-40 -28 -59 -49l-14 -19l-25 2q-4 2 -10 2q-5 0 -7.5 -0.5t-5 -4.5t-4.5 -13l-6 -25l-22 -4 q-106 -24 -168 -24q-28 0 -49 6q-22 -16 -54 -8zM358 244q28 -43 103 -43q37 0 84 6q10 0 16 2q5 4 16 9.5t15 8.5q10 7 13 14.5t1 10.5l-2 4l41 -4h10q32 0 80 41q52 42 70 51q28 65 106 119q2 0 4 2q1 5 3.5 15.5t3.5 15.5q13 52 16 75t-2 86q-10 8 -31 29q-43 43 -65 43 h-52q2 2 4 5t5.5 13t1.5 21q-2 2 -49 2q-93 4 -148 33q-25 -15 -57 -47q-7 -5 -27.5 -20.5t-38 -26.5t-35.5 -19q-10 -23 -41 -67q-27 -46 -38.5 -67t-28 -63t-17.5 -74t7.5 -78.5t31.5 -96.5z" />
<glyph unicode="p" horiz-adv-x="1251" d="M344 -473q-26 0 -49 10l-16 8q-1 2 -3.5 4.5t-8 10.5t-7.5 14t-4 15t4 14q7 0 10.5 2.5t3.5 4.5v3q-1 3 -6.5 4.5t-7.5 3.5l-4 6l-2 8q-21 87 -37 314q-2 19 -5 66.5t-5 68.5q-8 71 -31 197q-30 178 -39 266q-2 20 -20 110q-28 112 -33 193v22l20 11q33 20 80 20 q41 0 70 -16q31 68 51 92q48 66 109 78q4 11 18 28l19 23l26 -8h4q19 0 51 14q67 23 97 23q14 0 20 -2q28 -4 62 -33q10 -10 14 -12q44 -15 84 -25q9 -4 25 -8.5t18 -5.5q1 -1 4 -2t4 -2q27 0 88 -33q8 -4 10 -6l13 -7l6 -12q10 -20 30 -53t25 -43q28 -46 41.5 -72 t29.5 -73.5t21 -107t2 -142.5l-2 -21l-22 -10q-14 -14 -29 -57q-16 -38 -31 -101q-3 -9 -18 -55q-6 -21 -18 -27q-7 -3 -13 -3t-10 2l-4 3q-15 -10 -27 -14q-6 -6 -18 -14q-60 -46 -93.5 -68t-95 -44t-145.5 -34h-6h-6q-41 7 -105 64q-19 19 -37 31q3 -9 3 -23 q2 -23 7.5 -76.5t9 -88.5t9.5 -81.5t12 -79.5l5 -20q17 -94 12 -133q-9 -95 -101 -111q-16 -4 -20 -4q-21 -6 -39 -6zM436 406q22 -12 125 -58l19 -8q18 -7 28 -12q21 6 38 12.5t36.5 17.5t26.5 14.5t31 20t26 17.5q8 8 35 26l10 10l14 -2h2q15 0 23.5 15t17.5 57 q1 5 4.5 16.5t4.5 16.5q-12 39 4 88q-4 59 -7.5 75t-17.5 44q-7 14 -16 26q-2 1 -6.5 3t-6.5 3v-1.5t-1 -3t-3 -3.5t-5.5 -2.5t-8.5 0.5q-8 3 -16 9t-11 11l-4 5q-1 1 -22 39q0 1 -1 3t-1 3q-16 -4 -25 -4q-17 0 -32 10.5t-19 30.5h-4q-25 0 -49 20q-1 0 -2 -1t-2 -1 q-15 0 -23 4q-6 2 -16 2q-101 -51 -134 -99.5t-45 -156.5q-1 -5 -2 -16.5t-2 -15.5q-5 -34 -2.5 -52t19.5 -67q0 -1 1 -3t1 -3q14 -32 18 -56q3 -19 0 -34z" />
<glyph unicode="q" horiz-adv-x="1251" d="M821 -461q-7 0 -53 8l-25 9l-6 24q-25 129 -35 238t-9.5 170.5t5.5 177.5q0 12 1 40t1 44q-25 -37 -38 -68l-7 -18l-20 -6q-25 -7 -78 -31q-42 -18 -71 -28t-77 -18.5t-102 -8.5h-26h-13l-10 6q-85 55 -135 151q-42 80 -55 195q-13 147 36 294.5t140 233.5l2 2l4 2 q25 16 59 56q25 26 37.5 38t36.5 31t46.5 27t47.5 8q9 0 29 -4q31 16 76 16q26 0 98 -14q4 -1 12.5 -3t12.5 -3v0q56 -14 102 -80q52 -66 57 -135q3 -48 -16 -82q-25 -42 -74 -63q-4 -2 -11 -4t-21.5 -5.5t-20.5 -1.5q-6 1 -8 9t-1 16l1 8q-21 -2 -37 6q-3 4 -4 12.5t0 15.5 v7q0 51 -17 70q-21 14 -51 14q-55 0 -115 -35q-9 -14 -10 -16q10 -25 0 -37q-4 -5 -9 -9t-8 -6l-3 -1q-37 -19 -60.5 -38t-36 -42t-17.5 -38.5t-11 -43.5q-12 -60 -35 -103q-13 -23 -2 -45q1 -1 2 -2.5t6 -4t10 2.5q6 -6 9 -16t2 -17v-6q-1 -12 -0.5 -18t1.5 -11t1 -6 q2 -5 10 -10l12 -12q8 2 23 2q38 0 61 -23q5 5 6 5q35 26 76 41q4 11 8.5 22t12.5 23t12.5 18.5t15.5 20t14.5 17.5t17.5 19t15 17q3 4 12.5 13.5t13.5 14t11.5 12.5t11 13.5t9 12.5t8.5 13.5t6 12.5q4 23 18 27q6 2 12.5 1t12.5 -3l6 -1h2q12 0 31 21q26 26 49 59q3 6 6 9 q11 14 21 16h20q51 -10 74 -25.5t57 -54.5q10 -10 11 -12l16 -19l-8 -22q-26 -68 -39.5 -128.5t-18.5 -103t-12 -139.5q-1 -9 -2 -28t-2 -29q51 65 98 65q17 0 33 -8q12 6 27 6q27 0 69 -28q17 -12 27 -15q31 -10 35 -30q3 -9 -1.5 -18t-9.5 -14l-6 -5v-2q5 -23 2 -52 l-2 -20l-16 -8q-57 -36 -93.5 -77t-84.5 -112q-11 -14 -45 -63q4 -48 -23 -113q-14 -37 -10 -53l8 -18l-10 -17q-17 -26 -29 -40.5t-35 -28t-51 -13.5z" />
<glyph unicode="r" horiz-adv-x="796" d="M336 -57q-89 19 -133 92q-20 53 -10 96q-2 2 -5 8q-29 65 -14 103q-3 14 -8.5 42.5t-7.5 37.5q-1 6 -8 41t-9 45.5t-9 44t-10 47.5t-10 44t-11 46.5t-10.5 41.5t-11.5 42t-11.5 35.5t-12.5 33.5l-4 13l2 12q5 15 4 21t-10 26q-5 14 -8 19q-1 3 -2 8t-3 17.5t1 17.5 q4 8 14.5 12t18.5 4h8q1 1 3 4t3 4q54 78 129 78q11 0 39 -4q33 -7 45 -57q1 -4 6.5 -28.5t9.5 -41.5q0 -2 1 -6t1 -6l2 2q8 19 21 52l12 32l10 32h29q6 0 12 1.5t10.5 3.5t12 7t11 7.5t12.5 9t12 8.5q4 3 15.5 12t17.5 13t16 9.5t20 8t21 2.5q8 0 24 -4q54 29 97 29 q29 0 57 -12.5t72 -40.5l2 -2l4 -5q37 -33 47 -112q0 -19 2 -23q8 -33 -2 -45q-3 -4 -12 -6.5t-17 -2.5l-8 -1q-6 0 -20 -18l-15 -19l-24 6q-32 8 -49 8q-91 0 -165 -85t-114 -236q-10 -41 16 -72l11 -14l-2 -16q-4 -16 -9 -31q0 -7 -4 -15v-2q0 -9 13 -67q11 -43 16.5 -69 t4.5 -74.5t-15 -92.5l-6 -12l-13 -8q-7 -6 -21.5 -14.5t-17.5 -10.5q-2 -2 -32 -22l-15 -8z" />
<glyph unicode="s" d="M588 -49q-6 0 -20 1t-21 1q-76 3 -123 7t-121.5 25t-116.5 58q-32 0 -57 20q-2 1 -3.5 2t-2.5 2t-2 1l-23 12l4 26q4 19 -10 44q-14 19 -12 34v13l8 10q2 2 25 49q10 35 26 53q27 37 76 37h6l6 -2q10 -2 25 -12h6q13 0 53 -15q2 -1 17 -6q26 -12 28 -18q2 -4 0.5 -11 t-4.5 -14l-2 -6q-14 -36 -24 -53q31 -22 137 -25q69 0 106 -6l9 23l30 -4h19q64 0 149 61l-4 4q-22 22 -6 55q-15 21 -23 29q-8 -4 -18 -4q-12 0 -23 8q-10 2 -22 6q-25 13 -39 17q-91 40 -172 63q-8 2 -27 2q-13 0 -49 -4q-40 -8 -63 -8q-4 0 -12.5 1t-12.5 1q-15 3 -37 25 q-23 7 -41 22t-25.5 26t-21.5 34h-10q-14 0 -20 2l-13 4l-6 8q-33 30 -54.5 96t-4.5 119q16 56 61 78q3 9 6 12q0 2 2 4q8 23 -2 31l31 8q3 1 12.5 3t12.5 3q0 2 1 6t1 6q1 4 3 11.5t3 11.5l4 16l16 9q9 3 15 6q20 8 20 26q8 0 16.5 -3t13.5 -6l5 -3q4 -2 10 -2q12 0 12 4 l2 2q7 29 23 39q8 4 16.5 3t14.5 -5l6 -4q8 4 12 4q36 16 62 16l26 -4q3 5 7.5 8.5t7.5 3.5l4 1l20 -5q1 -1 3 -2t3 -2q4 -1 9.5 -2.5t9 -2.5t4.5 -1l8 4q9 11 29 13q6 2 11.5 -2.5t8.5 -9.5l2 -5l12 10q5 -10 11 -10q3 -1 5 0.5t2 3.5l1 2l12 -4q30 -5 62 -18q0 6 8 6 q2 -4 12 -8.5t19 -7.5l10 -2q19 -7 34.5 -14t31 -16t23.5 -14t25.5 -16.5t22.5 -15.5q6 -4 23 -19t30 -24l15 -10l2 -17q6 -15 1.5 -38.5t-14.5 -46t-39.5 -46t-74.5 -37.5q-2 -1 -6 -2.5t-14.5 -4t-16.5 0.5q-2 11 -5.5 21.5t-6.5 14.5l-3 5q0 4 -4 12q-3 3 -8 13 q-89 73 -217 73q-73 0 -140.5 -26t-113.5 -68q15 -20 30.5 -34t35.5 -23t33 -14.5t39.5 -9t38.5 -4.5t46 -3q95 -7 174 -29q27 -6 31 -12q-4 -4 -4 -9.5t2 -8.5l2 -4h2q2 -2 9 -7t10 -8q91 -9 178.5 -63t140.5 -133l6 -11v-4q15 -169 -88 -278q-70 -70 -174 -99 q-107 -26 -225 -26h-2z" />
<glyph unicode="t" horiz-adv-x="681" d="M342 -43q-10 12 -25 12h-10l-16 -4l-17 15q-88 85 -106 264q-8 99 8 309q13 178 10 227q-12 -4 -16 -6q-33 -14 -47 -16l-12 -2l-11 6q-78 38 -120 166l-11 26l23 19q65 68 176 71q1 1 2 4t2 5q2 5 6 51q0 15 4 65q10 72 25 113q21 76 24 115l5 39l38 -2q63 -5 142 -33 l12 -4l6 -13q21 -28 25.5 -71t0.5 -69t-14 -77q-1 -3 -2 -8.5t-2 -7.5q58 14 88 14q60 0 107 -31.5t72 -89.5l8 -20l-10 -18q-16 -31 -39.5 -54t-56.5 -39.5t-56 -25.5t-63 -21q-10 -3 -68 -20q-30 -246 -18 -619l8 -4q5 -3 15 -8t15 -8q35 14 72 14q15 0 28.5 -2t30 -7 t23 -7.5t27 -11t22.5 -9.5l27 -12l-4 -31q-5 -40 -22 -72t-45 -53t-54 -35t-63 -23t-56.5 -12t-48.5 -7l-27 -5z" />
<glyph unicode="u" horiz-adv-x="1251" d="M1069 -57q-7 0 -22.5 1t-22.5 1q-32 4 -51 4h-4q-27 0 -43 6q-4 4 -4.5 12t0.5 13l2 6q-1 1 -8.5 5.5t-11 6.5t-10.5 7.5t-10.5 10.5t-7.5 12t-6 15l-2 6v4q3 88 -6 158q-12 -12 -18 -16q-6 -7 -18 -19l-18.5 -18.5t-13 -16.5t-8.5 -20l-4 -17l-16 -8q-11 -6 -23.5 -14.5 t-28 -19.5t-24.5 -17q-56 -47 -109 -73.5t-122 -26.5q-52 0 -101 14q-37 9 -79 47q-7 7 -17 12l-8 9l-6 10q-95 197 -118.5 393t-12.5 481v21l16 10q6 2 12 37q9 45 19 63l10 13l19 4q10 2 32 2q49 0 96.5 -25t81.5 -73l15 -17l-8 -16q-7 -16 -4 -33q10 -30 6 -55 q-2 -18 -19 -43q-1 -2 -2.5 -6t-2.5 -6.5t-1 -4.5q-2 -6 2 -16q16 -31 14 -57q0 -32 -24 -50l-2 -2q-1 -4 0 -17.5t3 -33t3 -28.5q1 -5 1.5 -12t1 -12t1.5 -7q6 -88 21 -154l4 -4v-18q2 -53 49 -158q197 116 282.5 298t73.5 452l-2 26l25 12q40 19 73 19q52 0 127 -49 q2 -1 5.5 -3t5.5 -3l12 -9l4 -12q18 -51 23 -110t2.5 -90t-9.5 -95q-12 -100 -6 -149q1 -9 6 -90q8 -81 13 -113q7 -43 32 -121q36 -102 43 -170l3 -18l-13 -15q-37 -30 -92 -30z" />
<glyph unicode="v" d="M580 -55q-2 1 -6.5 2t-6.5 2q-70 22 -80 71l-6 29q-6 5 -12 11.5t-10.5 12t-10 14t-9 13.5t-8.5 16t-7.5 15t-8 16.5t-6.5 16t-7 17.5t-7 16q-17 40 -24.5 57t-24.5 45.5t-35 46.5l-26 23q12 10 16 22q-6 4 -14 6t-13 2h-4l-4 31q-5 46 -21.5 99t-31.5 86t-45 96 q-29 62 -39.5 86t-31 76.5t-30 96.5t-12.5 91v26l19 11l4 20h33h4q33 0 67 -24q15 -9 17 -9q4 0 8 2l20 3l15 -11q48 -43 86.5 -109.5t58 -118t49.5 -144.5q63 -191 111 -279q17 43 31 96q22 77 36 111l9 22l16 5l3 3q2 3 4.5 5.5t4.5 3.5q8 36 21 68t37 72t34.5 56t44.5 64 q15 20 17 24q0 2 -1 4.5t-2.5 6.5t-2.5 6q-19 34 -15 63v9l4 6q18 31 72 37h2q-6 20 12 34q11 3 23.5 0t19.5 -8l7 -4q35 -20 39 -22q57 -26 79 -66q26 -50 0 -141q-10 -36 -51 -92q-24 -33 -28 -43q-22 -46 -48 -115q-49 -133 -79 -180q-10 -15 -17 -58q-4 -40 -12 -59 q-13 -34 -31 -57q-25 -47 -28 -66q-10 -49 -15 -82q-12 -90 -26 -137l-9 -27h-22q-26 -39 -62 -39l-26 -2z" />
<glyph unicode="w" horiz-adv-x="1593" d="M588 -68q-26 2 -49 19l-23 -8l-18 16q-36 32 -69.5 77t-49.5 72.5t-45 81.5q-52 105 -92 150l-11 10l-2 12q-6 54 -43 134q-34 79 -41 116q-1 9 -1 19t0.5 20t0.5 13q2 8 2 18q-6 12 -20 29q-31 43 -35 53q-8 15 -16 45q-9 34 -17 49q-47 95 -53 178l-4 45l47 -2 q3 0 11 1t12 1h43q107 0 153 -30l13 -9l4 -14q32 -114 69 -222.5t63 -175.5t83 -210q2 0 4 -2q28 -22 45 -47q0 2 1 5t1 5q19 53 27.5 75t29 61.5t43.5 64.5q11 52 24.5 91t23.5 57.5t30 49.5q45 69 76 148l10 26h29q55 -2 98 -34q4 -3 31 -21l10 -6l6 -8q16 -32 23 -66 q5 -19 16 -35.5t23 -19.5q-6 -10 -8 -29t1 -28q4 -12 41 -74q2 -3 10.5 -18t11.5 -20t10 -18t10.5 -20.5t8 -19t7 -21.5t4.5 -20q9 -7 20 -25q42 82 63 177t36 226q14 137 34 222l7 22l22 8q46 11 78 11q72 0 143 -39l19 -11l2 -18q3 -30 4 -60t-2.5 -63t-6 -56t-12 -60.5 t-13 -54.5t-17 -59.5t-17 -54t-18.5 -57.5q-61 -182 -76 -266l-2 -14l-10 -11q-37 -32 -68 -114q-39 -85 -63 -115q-25 -32 -58 -49l-20 -12l-21 12q-37 21 -73 60.5t-61 76t-56 99.5t-46 97.5t-44 102.5q-2 4 -5 10.5t-5 10.5q-32 -65 -72 -187q-24 -69 -39 -108.5 t-40 -94.5t-53 -94t-61 -65l-12 -13z" />
<glyph unicode="x" d="M162 -80q-16 5 -29.5 14t-20.5 16t-14.5 21.5t-8.5 18t-7 18.5q-8 26 -14 35l-21 29l25 18q9 8 13.5 18.5t6 19t4.5 28.5q9 62 41 90q-21 28 10 47q9 4 12 11.5t2 12.5l-1 5l24 22q30 30 60 88q2 4 11.5 20.5t13 23.5t13 21.5t16.5 23.5t18 20t22 20q-44 72 -125 150 q-42 43 -62 65t-49.5 62t-44.5 75q-42 28 -49 70q-7 47 29 72l8 8l12 2h47q56 0 98.5 -15.5t68 -45t38.5 -52t25 -55.5l8 -16q31 -25 88 -86l23.5 -23.5t28.5 -28t24 -24.5q4 9 7 17t4 13.5t1.5 10t-0.5 6.5v2l31 -2q25 0 32 10.5t13 54.5q3 41 18 72q18 31 45 43l7 21 q14 49 47 99t75 67l13 4l12 -4q1 0 4 -1.5t4 -1.5q74 -17 109 -36q82 -35 67 -101l-4 -14l-10 -6q-26 -18 -45 -40t-28 -38.5t-21 -44.5q-15 -35 -25 -54.5t-33 -52t-55 -63.5v-21q2 -44 -4.5 -65t-32.5 -47q57 -74 174 -187q12 -12 62 -64t81.5 -87t63.5 -74l17 -20 l-13 -25q-4 -4 -6 -8q-12 -21 -20 -33t-24.5 -32.5t-36.5 -31t-42 -10.5q-14 0 -22 2q-29 8 -57.5 26.5t-60 50t-52 55.5t-56.5 69q-38 48 -62.5 76t-57.5 58t-60 42q-63 -42 -129 -166q-12 -16 -18 -26q-17 -30 -33 -64q-22 -41 -32 -59t-32 -49t-46 -48t-52 -24 q-32 -6 -61 2z" />
<glyph unicode="y" d="M563 -459h-6q-24 0 -57 10q-33 11 -60 11q-22 0 -32 -4l-23 -7l-16 17q-8 8 -33 16q-4 2 -16.5 7.5t-22.5 11t-18 12.5h-9q-7 0 -14 2t-11.5 4.5t-10 7t-8 7.5l-7.5 9t-6 7q-12 20 -31 39q-20 16 -32 24q-51 35 -62 74q-19 -12 -31 4l2 35v22q4 56 -4 72l-20 37l39 21 q46 20 84 20h14q4 -2 10 -2q7 0 31 4l20 6l19 -10q21 -16 31 -41q26 -6 32 -16l-12 -39q-1 -2 -4.5 -7t-6.5 -10.5t-7 -9.5l6 -6q1 -1 37 -31q12 -8 18 -14q90 -19 154 -19q158 0 288 119q0 2 1.5 5.5t1.5 4.5q0 2 -2 9.5t-3 13.5l-4 14l9 15q18 32 24.5 70.5t6 70 t-9.5 76.5t-16.5 70t-21.5 71q-7 21 -10 39q-7 -13 -25 -64l-8 -20l-22 -4q-7 -2 -13 -4t-12.5 -5.5t-11 -6t-11 -7.5t-9.5 -7.5t-10.5 -8.5t-10.5 -8q-23 -19 -38 -29.5t-43.5 -20.5t-60.5 -10q-9 0 -49 5q-132 24 -213 137q-14 18 -22 63q-5 32 -10 41q-2 0 -2 2 q-25 10 -37 29q-21 44 -33 131q-10 62 -12 70q-7 23 -27 65q-1 3 -7.5 18t-9 20t-7 18t-6.5 21t-4.5 19.5t-2.5 22.5q-4 55 4 147q7 66 4 113q0 33 -4 45q7 3 18.5 2.5t22.5 -2.5l10 -2q43 -6 66 -14q45 -9 57 -9l25 -2l10 -22q71 -158 88 -309q4 -23 6 -43q-9 2 -14.5 -1.5 t-6.5 -7.5l-1 -4q11 -70 37 -161q1 -4 3 -13.5t3 -13.5q11 -49 24.5 -74t44.5 -33q37 34 76 46q37 32 57 63.5t25 53t10 63.5q8 70 29 127q-5 40 -6 47q-16 131 -8 219q0 33 6 37l39 2q32 -6 51 -29q4 2 12 2q14 0 25 -8q19 -4 35 -20q22 -4 32 2l13 -27q22 -48 47 -164 q15 -77 28 -117q65 -78 56 -190q16 -45 28 -131q5 -55 16 -91t38 -63l14 -12l-2 -20q-4 -43 0 -134q1 -44 1 -82.5t-7.5 -84t-22.5 -85.5q-51 -134 -184.5 -221.5t-288.5 -87.5z" />
<glyph unicode="z" horiz-adv-x="1024" d="M874 -55q-41 0 -83 22q-12 -4 -46 -4q-43 0 -63 8q-36 4 -53 4q-19 0 -37 -6l-2 -4l-12 2q-31 6 -91 6q-56 0 -178 -12q-93 -14 -159 -14q-3 0 -84 6q-33 4 -35 10l2 33q3 24 8 33q4 15 0 32l-6 17l14 16q34 40 84 154q8 15 24.5 46.5t28 51.5t21.5 33l6 10l8 4 q53 17 84 92q17 25 25.5 37t25 29.5t33.5 30.5q6 20 16 38.5t26.5 38t27.5 30.5t34.5 32.5t30.5 28.5q42 29 92 90q-94 16 -198 16q-45 0 -197 -8h-8q-6 -2 -31 -19q-1 -1 -3 -2t-3 -2l-10 -6h-12q-26 0 -41 6q-8 2 -25 2h-10l-25 -4l-14 21q-27 39 -10 96q0 2 2 4 q-1 4 -2 9t-3 18t1 14q1 4 4.5 7t6.5 4l3 1q2 13 6 17q2 2 9 3t14 1h6q10 2 28 2h17h14q42 0 58 16l6 8l8 3q122 18 190 18q94 0 285 -29q55 -7 70 -8q27 8 61 8q53 0 94 -22.5t60 -61.5l8 -12l-8 -16q-4 -15 -14.5 -29.5t-17 -20t-20.5 -16.5q-18 -11 -23.5 -17t-6.5 -18 l-2 -18l-11 -10q-27 -17 -54 -39t-46 -39t-48 -47.5t-41 -44t-45 -51.5t-42 -48q-25 -40 -107 -129v-22v-17l-6 -8q-78 -61 -123 -147q3 0 9 -1t8 -1l6 2h2q8 0 10 12l15 2q68 -8 178 -12q90 -6 129 -9.5t105 -18.5t114 -42q17 7 33 10l18 2l12 -14q28 -35 31 -47 q15 -10 19 -14q13 -15 8 -39l2.5 -7.5t3.5 -17.5t-2 -20q-2 -6 -11 -8t-18 -1l-8 1q-24 -2 -61 -17q-49 -18 -89 -18z" />
<glyph unicode="{" horiz-adv-x="796" d="M694 -459q-47 0 -67 39q-4 -1 -13.5 -3t-13.5 -3q-32 -12 -51 -12q-28 0 -51 20q-54 2 -105 35.5t-88 91.5q-43 64 -53 141q-9 74 20 142q-2 16 7 43l4 16q6 41 18 84q27 122 25 173q-1 25 -7 46q-2 1 -7 4t-7 4q-51 29 -79 46t-68.5 47t-68.5 64t-48 75l-8 14l6 17 q8 23 32 42t52 19h2q45 26 119 53q45 17 65.5 26t49.5 31.5t47 53.5h2q4 7 2 24q0 39 6 54q-10 34 -17 88q-8 79 -22 100l-10 14l4 17q8 35 -9 123q-12 54 -12 78v16l10 10q11 14 60 58q43 35 63 63l11 16l20 2h18q45 0 88 -18t65 -36t54 -48l19 -16l-6 -23q-9 -42 -58 -57 q-18 -5 -59 -10q-6 -2 -17 -2q-21 -33 -34 -76q28 -82 39 -205q7 -103 28 -168l2 -6v-6q-1 -27 -16 -103q-8 -27 -10 -41l-4 -18l-15 -10q-28 -15 -67 -45q-89 -61 -146 -82q12 -19 58 -37q1 -1 3 -2t3 -2l10 -4l6 -9q2 -2 8 -11.5t9 -12.5q0 -1 1 -2.5t2.5 -3.5t2.5 -4 l18 2l12 -27q24 -50 35.5 -101.5t9 -107.5t-8 -93.5t-17.5 -100.5q-29 -149 -27 -222q14 -9 19 -16q1 -2 2 -5t2 -5q6 -1 41 -6q74 -8 116 -29q17 -11 23 -29q9 0 18 -6q21 -14 29.5 -32t7.5 -32t-6 -36q0 -26 -14 -37q-24 -31 -64 -31z" />
<glyph unicode="|" horiz-adv-x="573" d="M276 -459l-16 15q-14 6 -14 22q-57 10 -80 62q-20 76 10 141q-2 49 -2 131q-4 237 -16 369v18l4 12l2 4l3 7l5 10q-20 166 -6 366q0 7 4 27q6 36 6 37v18l-12 6l-2 19q-3 30 16 49q-26 105 0 281q2 16 7.5 47.5t7.5 46.5q4 37 4 49q3 7 6.5 8t5.5 -2l2 -2q-21 118 31 213 l4 29l22 -8q28 -5 66 -29q5 -3 11 -10t13 -9l31 -6l2 -30q7 -172 -4 -435q-4 -168 -4 -252q-1 -20 4 -122q5 -114 4 -140q0 -11 -1 -34t-1 -35q-12 -152 21 -213l8 -13l-6 -18q-12 -33 4 -135q18 -104 8 -180q16 -87 10 -166q-9 -103 -100 -148q-25 8 -37 8q-6 0 -11.5 -2 t-7.5 -4z" />
<glyph unicode="}" horiz-adv-x="796" d="M160 -453q-16 4 -33 21h-2l-31 4v35q0 12 -65 39q-2 0 -5 1t-4 1l-30 10l4 33q7 48 57 110q1 1 4.5 5.5t5.5 5.5l15 16l20 -2q44 0 109 -14q23 23 43.5 46.5t48 58.5t46.5 68.5t32.5 69t12.5 69t-19 60.5l-13 17l9 18q0 1 -1.5 3t-1.5 3q-4 8 -4 15q-2 2 -2 6l-18 2 l-4 28q-7 55 7 106t31 78.5t48 67.5q28 37 35 50q-41 26 -84 73q-53 55 -72 125l-4 19l4 4q-2 2 -2 6q-19 29 -21 45q-7 37 9 121q8 32 14 78q11 104 -23 264q-24 4 -34 4q-26 0 -45 -8l-39 -17l-15 37q-5 12 -26 27q-66 34 -64 106v21l17 10q28 18 59 18q11 0 21 5l14 6 l14 -2q7 -1 21.5 -3.5t21.5 -3.5q28 -3 44.5 -6.5t41.5 -12.5t45 -28t35 -47q64 -31 102 -112q40 -75 27 -148q17 -38 17.5 -94.5t-7.5 -108.5q-13 -139 4 -188q10 -2 21 -10q28 -7 37 -29q34 -14 76 -51q24 -20 34 -25l7 -6l4 -8q3 -5 14 -27l12 -24l43 -23q-15 -24 8 -30 q23 -7 -28 -48l-2 -2q-65 -47 -109 -92.5t-82 -109.5l4.5 -13.5t6.5 -16.5t6 -15q19 -47 24 -76q9 -4 15 -17l2 -4l2 -4q19 -77 -13 -174q-23 -77 -67 -121q0 -12 -4 -24q-3 -11 -2 -13l4 -34l-35 -7q-14 -4 -19.5 -9.5t-13.5 -22.5q-28 -42 -33 -47l-14 -15h-6q0 -6 -2 -10 l-4 -18l-21 -9q-24 -8 -53 -30q-58 -43 -115 -49l-20 -3l-2 -14z" />
<glyph unicode="~" horiz-adv-x="1196" d="M862 477q-24 0 -84 16.5t-92 34.5q-13 8 -22 21h-2q-10 0 -25 10q-21 13 -33 33q-2 2 -6 10h-10q-30 6 -41 14q-17 15 -23 46q-9 3 -24 6q-1 0 -10.5 2t-13 2.5t-11.5 3t-13 5.5t-10.5 7t-9.5 10q-2 2 -4 2q-1 -1 -3.5 -4.5t-4.5 -5.5q-16 -20 -41 -35q-24 -12 -49 -12 h-8q-13 -8 -54 -45q-3 -2 -17.5 -15t-21 -18t-19 -15t-24.5 -17t-24 -13l-21 -12l-16 14h-2h-25l-12 19q-6 12 -14 20q-15 22 -22.5 34.5t-15.5 42t-5 60.5v17l12 10q179 164 324 223l14 4l14 -4q8 -4 13 -4q22 -10 34 -10q1 0 8 1t13 1l14 2l14 -8q41 -28 216 -119 q37 -17 73 -45q43 -29 60 -29q8 0 18 4q45 12 74 62q27 62 24 133q-4 33 4 41q3 3 15 3t23 -2l10 -1q24 -6 47 -33q12 -12 14 -12q1 0 3.5 1t4.5 1q3 1 8 2.5t17 3.5t14 -2q4 -4 7.5 -11.5t4.5 -13.5l2 -6q0 -1 13 -33q1 -2 9 -23t10 -28t5 -21.5t2 -25.5q-3 -53 -46 -131.5 t-87 -114.5q-9 -6 -88 -32q-58 -19 -78 -19q-1 0 -3 -1t-3 -1z" />
<glyph unicode="&#xa1;" horiz-adv-x="681" d="M416 -487q-169 7 -250 165q-17 35 0 109q5 25 6 29q-22 29 -6 78q2 7 6 17t6.5 17.5t3.5 12.5q-3 33 -3.5 65.5t0.5 74.5t1 58q4 110 0 180q-2 20 4 39q8 12 21 15q-4 76 18 209q8 46 15 94l2 26l26 9q21 6 39 6q16 0 31 -2t33.5 -8t26.5 -9t29.5 -12t23.5 -10l26 -12 l-4 -27q0 -28 6 -55q4 -48 0 -74q4 -10 5.5 -22t1.5 -18.5t-1.5 -22.5t-1.5 -19q-1 -8 -2 -25t-2 -26q0 -55 6 -117q0 -4 2 -22.5t2.5 -24.5t2 -22.5t2 -23.5t1 -22t-0.5 -23.5t-2 -21.5t-3 -22.5t-5 -21t-7 -21.5q20 -77 8 -256q-2 -39 -2 -113q6 -10 8 -16q11 -27 -10 -74 q-9 -31 -37 -53l-10 -8h-16zM373 805q-48 0 -92.5 29.5t-71.5 76.5l-8 17l6 16l6 12q4 4 4 9q-2 1 -4.5 3.5t-6.5 10t-3 16.5q0 5 8.5 13t16.5 13l8 5q1 0 12 23q4 11 18 36l13 19h18q86 -6 137 -35q76 -42 76 -133l2 -18l-8 -13l6 -10l-12 -16q-43 -74 -125 -74z" />
<glyph unicode="&#xa2;" d="M598 -410q-27 0 -41 19h-8q-17 0 -32 4.5t-31 16.5t-23.5 18t-25 24.5t-19.5 20.5q-3 3 -8.5 8t-8.5 8l-10 12v17q0 47 12 141q23 163 7 219q-35 9 -66 23.5t-62 37t-48 37t-50 44.5q-29 31 -80 69l-14 8l-2 17q-3 18 -14 57q-20 88 -8 160l-7 14q-10 30 -10 39 q-3 16 4 33q-16 47 -6 88q4 15 9.5 28t17 33.5t14.5 26.5q26 39 35 57q1 1 10 29q3 31 17 53q9 16 28 21q8 12 10 20q15 48 43 68q110 88 218 88q2 0 5.5 -1t6.5 -1h2q9 0 29 12q-9 74 16 144q2 7 9 37t11 49l7 32h24q9 2 27 17q37 32 71 32q16 0 37 -6h13l10 -12 q24 -33 32 -73t6.5 -60.5t-7.5 -61.5q-9 -79 -5 -116q31 -22 78 -43q37 -17 62.5 -30.5t58.5 -37t55 -48.5t40.5 -62t25.5 -80q4 -44 -2 -54q-5 -2 -13.5 -1t-17.5 3l-8 3q-15 6 -21 6l-12 -6q-14 -5 -31 -7l-24 -2q-4 2 -7.5 9.5t-4.5 14.5l-2 7q-10 5 -19 8q-4 2 -29 17 h-14q-36 0 -90 28q-23 12 -29 13q-27 -31 -12 -158q0 -9 1 -25.5t1 -19.5q2 -53 -10 -154q-16 -123 -6 -190q149 64 180 174l8 33l31 -2h6q7 0 31 4q7 0 20.5 1t20.5 1q29 0 53 -8l39 -13q-6 -25 0 -35q4 -4 10.5 -5.5t11.5 -1.5l4 1l7 -26q1 -1 6 -11q11 -16 12 -22l8 -16 l-8 -17q-49 -146 -184 -244q-70 -56 -232 -112q-5 -158 -29 -269.5t-81 -164.5l-9 -7l-12 -2h-8zM360 457q18 -51 91 -97q6 77 12 199q11 181 29 346q-24 -5 -56 -37q-43 -40 -43 -80l2 -14l-16 -12q-14 -12 -23 -29t-11.5 -40.5t-3.5 -41t3.5 -47.5t6.5 -41.5t9 -42 t7 -31.5q11 -12 -7 -32z" />
<glyph unicode="&#xa3;" d="M889 -33q-4 7 -8.5 14t-11 13.5l-11 11t-14 11.5t-13 9.5t-16 9.5t-15 8.5t-16.5 9.5t-16 9q-54 21 -88 46q-13 0 -38.5 -3t-35.5 -4q-58 -8 -98 -8h-23q-30 -20 -63 -53q-27 -28 -46 -44.5t-50 -31t-64 -14.5q-25 0 -49 6l-23 6l-6 19q-2 22 -14 49q-12 24 -17 38 t-10 45t2 60l5 19l18 10q51 25 77 79t50 148q3 12 6 21h-2q-4 -1 -9 -2t-8.5 -2t-5.5 -1h-4q-17 0 -41 19q-4 4 -8 4t-20 -4q-37 -14 -60 -14h-2q-80 0 -125 45q-35 38 -51 137q-4 35 -6 39q3 4 9 4t11 -2l5 -2l-2 18l28 8q40 11 68 11h12h10q33 0 47 8l19 10l16 -8 q14 -8 60 -8h14h14q29 0 47 -4l-6 18q-9 44 -26 51l-23 12l2 29q7 79 -35 172q-10 27 -14 38.5t-11 36.5t-8.5 42t-1.5 41.5t5 48.5h-2l-4 29q-3 29 4.5 56.5t26.5 53.5t35 43.5t43 43.5q8 7 11 10q54 47 60 53l14 20l27 -10h6q7 0 31 4t34 4q19 0 31 -6q45 10 55 10 q27 0 52 -18q16 4 28 4q10 0 21 -3t18.5 -6t22 -9t20.5 -9q7 -3 19 -8.5t20 -8.5t12 -3l4 2l31 6l15 -24q39 -61 79 -93q27 -24 42 -39.5t40.5 -47.5t49.5 -77.5t49 -107.5l4 -6v-8q0 -61 -58 -84q-8 0 -14 -6l-16 -21l-27 6q-62 15 -86 70q-34 7 -49 45l-4 6v6q0 22 10 35 q-30 76 -99.5 125t-150.5 49q-59 0 -119 -31q-67 -91 -30 -252q26 -114 108 -282q7 -14 10 -23q30 -6 66 -6t94 12q9 1 24.5 4.5t28 5t25.5 1.5q47 0 102 -25q36 16 56 16l18 -4l10 11l35 -31q36 -22 33 -60q-3 -21 -21 -36l5 -9l-23 -16q-54 -51 -201 -63h-2q-3 0 -8.5 1 t-9.5 1q-3 0 -8.5 1t-8.5 1q-7 -11 -21.5 -17t-24.5 -7.5t-37 -4.5h-9h-26q-35 0 -49 2q-5 0 -15 1t-12 1q-10 0 -16 -2q0 -31 -23 -98q-5 -10 -6 -13l8 2l10 -2q27 -9 88 -16q41 -5 61 -9t54.5 -14t60.5 -28t48 -45q76 -18 140 -76.5t60 -138.5q0 -43 -14 -51 q-4 -1 -10.5 0.5t-10.5 3.5l-4 2q-9 -13 -22 -21l-6 -2l-8 -2q-4 -2 -13 -2q-1 -1 -4 -3.5t-5 -4.5t-3 -4l-6 -2l-4 -2q-4 -2 -17 -2q-12 0 -20 4q-1 -2 -3.5 -3.5t-9 -4t-12.5 3.5q-4 2 -8.5 8t-6.5 11z" />
<glyph unicode="&#xa4;" d="M186 190q-46 0 -75 54q-27 13 -50 45q-6 10 -16 16q-14 9 -16 17l2 24q1 6 3.5 12t4.5 10.5t5 9t5 7t6 6.5l5.5 5.5t6 5t5.5 4.5q18 21 18 28q0 33 6 45q10 4 19 2.5t15 -5.5l5 -5q5 5 15 10q4 18 10 31l-4 4q-19 4 -21 14l2 31q0 7 1 8t-2.5 8t-5 9t-7 10.5t-8.5 13.5 q-11 17 -17 28t-14.5 31.5t-7.5 37t4 43.5q-13 41 6 108q12 40 12 62q-4 28 -4 53q9 3 20 3t18 -2l7 -1q3 22 -43 90q-54 70 -59 139q-2 35 2 39q3 3 11.5 4t15.5 1l8 -1q40 -2 74 -11t53 -17t46 -30.5t34 -30t34 -36.5q1 -2 4.5 -5t4.5 -5q4 0 10 1t8 1q13 0 19 2.5 t16 15.5l16 23l27 -8q16 -4 24 -4q7 0 43 8q33 10 62 10q24 0 45 -6q9 6 22 6l11 2l10 -2q12 -3 12 -8q35 -14 51 -14q13 0 19 4l1 1l2 1t3.5 2t4 2.5t4.5 2.5t4.5 2.5t4 2t3.5 1t2 -0.5q3 0 7.5 -7.5t7.5 -15.5l3 -8q2 -1 7 -3t7 -3q2 0 4 -2q11 11 35 39q7 7 22.5 23.5 t26 27t26.5 24.5t30 23q30 21 71 21q37 0 117 -35q6 -3 18.5 -10t18.5 -10l22 -11v-26q-2 -31 -24 -82q-3 -6 -6.5 -16t-5.5 -13l-5 -27l-26 -2q-12 -1 -23 -6t-18 -9.5t-16.5 -14.5t-14 -15.5t-13.5 -18t-13 -17.5q-26 -38 -41 -56q0 -1 1 -2.5t1 -3.5l4 -4v-8 q20 -112 8 -236q-12 -143 -66 -184v-2v-6q14 -19 21 -45q10 -25 14 -25l25 -4l6 -25q14 -69 -16 -118q-28 -37 -74 -41l-17 -2l-14 8q-21 21 -45 37q-65 45 -74 59q-20 -6 -40.5 -7.5t-30.5 0.5l-11 1q1 0 2 1t2.5 4t0.5 7q-5 -2 -8.5 -1t-5.5 3l-1 2q-37 -12 -98 -12 q-75 0 -152 18q-5 2 -30 17l-60 -60q-29 -34 -40.5 -46t-34.5 -26t-46 -14zM387 584q12 -4 47 -29q29 -32 64 -41q16 16 39 16q13 0 30 -10q38 13 48.5 23.5t7.5 40.5q-8 22 4 32q3 3 9 5t10 3l5 1q2 0 4.5 1t3.5 1q3 2 3 4l8 8l6 14l26 4q-2 2 -4 5.5t-5.5 10t-2.5 9.5 q0 6 8 9.5t16 4.5h9q-2 13 10 19q-5 76 -41 143q-6 2 -14 6q-2 0 -4.5 1t-3.5 1q-2 1 -6 2t-14.5 3t-18.5 1q-2 6 0.5 16t6.5 16l3 7q-63 19 -94 19h-6q-8 -15 -41 -31q-7 0 -15 -4l-22 -10q-2 -1 -4.5 -2t-3.5 -1.5t-2 -0.5q-7 -9 -19 -9q-3 4 -8 5t-8 1l-4 -1l4 2 q-28 -22 -43 -29q-7 -20 -15 -31q0 -2 -1 -6t-1 -6q2 -3 4.5 -7.5t6 -13t0.5 -12.5q-3 -5 -8 -10t-9 -8l-4 -2q-18 -8 0 -90q0 -3 1 -9.5t1 -9.5q1 -2 3.5 -4.5t9.5 -6.5t14 1q4 -11 6 -23t2 -18v-6l2 -2v-2z" />
<glyph unicode="&#xa5;" d="M633 -68q-7 7 -12 7q-14 -7 -25 -7q-14 0 -43 11q-59 29 -74 86q-6 35 -2 102q8 78 0 113q-36 10 -80 10q-29 0 -43 -2h-37q-109 0 -161 45l-13 10l2 19q0 33 7 61q1 6 3 17.5t3 17.5l2 27l24 8q71 22 146 22q55 0 104 -8q9 12 27 16q0 25 2 39q0 50 -2 64h-12 q-30 0 -82 -10q-62 -17 -82 -17h-6q-1 -27 -17 -41q-46 17 -80 21q-51 8 -76 24l-14 11l-4 14q-6 53 27 96q9 9 12 21q0 22 4 28q4 4 10 6t11 2h4h12q0 7 4 19q7 24 33 27l6 2l8 2h12q13 0 41 -4q2 0 13 -1.5t16 -1.5q41 7 84 7q7 1 20 2t19 2q0 3 -1 7t-1 5q-6 6 -19 14 l-20 17l4 24q3 16 -29 37q-3 3 -10 10.5t-10 10.5l-6 12v16q0 31 -23 39l-26 15l4 30q5 23 -37 49q-10 7 -17 17q-15 21 -24 45q-10 20 -21 31q-1 2 -4 4t-8 5t-8 5q-22 15 -37 37q-18 27 -14 51q-15 15 -21 25q-33 46 -102 157q-1 1 -1.5 2.5t-3 6t-4 8l-3 7t-0.5 5.5 l26 20q5 3 14 8.5t11 6.5q9 3 14 8l16 22l27 -10q29 -10 49 -10q15 0 25 4l16 4l15 -6q30 -17 49.5 -42t38.5 -62q5 -7 12.5 -20.5t11.5 -18.5q9 -9 29 -21q34 -27 39 -33q19 -22 33 -53q7 -14 16 -26h2q22 -5 35 -23q24 -30 43 -86q3 -8 9 -23.5t9 -23.5q2 0 6 -4 q2 -1 9 -8l16 -11v-14q2 -40 22 -70q21 -27 27 -41q2 -1 16 -10q6 15 15 33q0 13 24 66q3 7 7.5 13.5t10.5 12.5l9.5 9.5t11 9.5t9.5 8q20 20 24 30v7q1 6 2 19.5t2 19.5q3 5 7.5 9.5t8 7.5t9.5 7t8 6q1 1 2.5 2t2.5 2t1 2q1 3 6 23q4 31 17 49q9 12 34 25q3 9 12 30t11 27 q11 29 19 46.5t25.5 38t39.5 26.5q5 0 16 1t17 1q46 0 94 -23q60 -34 63 -86l2 -4l-2 -2q-2 -22 -18 -66q-16 -23 -14 -43l2 -12l-9 -12q-19 -32 -55 -64q-3 -3 -15 -17.5t-16 -19t-13 -17t-13.5 -20.5t-10 -19.5t-8.5 -22.5q-7 -29 -47 -76q-21 -25 -28 -37q5 -21 -7 -41 q-6 -7 -21 -21t-19 -18q-7 -7 -13 -16q82 4 142 4h36h27h41h10l10 -6q14 -7 35 -33q10 -14 17 -14q31 -3 39 -5q4 -4 4 -13.5t-2 -16.5l-2 -8q-1 -4 2 -17q9 -22 6 -45l-4 -18l-17 -11q-77 -47 -196 -47h-60q-23 2 -63 2q-56 0 -92 -10q-11 -17 -15 -57q0 -52 2 -66 q7 0 27 4q32 4 53 4q27 0 47 -10q21 8 58 8h2h14l12 -12q16 -16 39 -29q36 -22 54 -47l12 -10l-2 -16q-9 -66 -58 -88q-37 -21 -94 -21q-30 0 -76 4q-36 4 -59 4q-16 0 -20 -2q-2 -33 -2 -86q0 -44 -1 -67t-7 -57.5t-21 -63t-39 -55.5q-15 -17 -23 -17q-3 -1 -9 1t-10 5z " />
<glyph unicode="&#xa6;" horiz-adv-x="573" d="M332 -463l-6 2q-7 0 -9 -2q-16 -4 -28 -4q-22 0 -35 8h-2q-72 43 -92 127q-10 38 -10 144q2 6 2 16q0 64 8 182q7 108 9.5 155t-0.5 124.5t-17 132.5q-1 3 -2 8t-3.5 17t0.5 14q3 3 13 5.5t19 3.5l9 1q6 0 17 1t16 1q48 0 107 -35q26 -18 41 -22l18 -8l6 -13 q31 -95 39 -258q1 -16 4 -69t6 -80q11 -52 13 -64q-3 -8 -8 -10t-9 0l-4 2v-25q1 -87 0 -135t-14.5 -112t-40.5 -99q-9 -20 -23 -20q-6 0 -12 3t-9 6zM315 573q-69 0 -120 48q-23 27 -36 62t-15 87.5t-1.5 75t4.5 82.5q1 4 2.5 14t2.5 14q-1 2 -2.5 7.5t-2.5 7.5 q-4 20 -4 26q0 43 13 127q10 82 10 88q0 16 -8 56q-15 38 -13 75q-10 1 -18 21l16 35q21 32 9 104l-2 56q6 3 18.5 1t25.5 -6l13 -4q99 -42 147 -75l15 -11l4 -14q16 -74 19 -170t-1 -190q-4 -117 -2 -193q0 -13 4 -63q14 -106 2 -172l-2 -11l-6 -8q-6 -8 -18 -20 q-19 -19 -21 -27q-4 -17 -8 -21q-2 -2 -8 -2.5t-12 -0.5z" />
<glyph unicode="&#xa7;" d="M449 -475q-12 0 -21.5 2t-25 8.5t-19.5 7.5q-51 21 -68 23l-18 2l-10 14q-13 20 -56 68q-21 24 -32.5 38.5t-24 40t-14.5 50.5v4l2 6q0 8 6 14l-14 15l16 24q10 22 31 33q-2 6 -2 27l2 10l8 10q8 8 10 12q8 12 8 13l11 33l36 -7q2 0 5.5 -1t5.5 -1q8 0 14 -2l8 17l25 -6 q15 10 33 10q6 0 18 -4l18 -4l9 -15l4 -8q8 -6 22 0q13 -28 0 -68q21 -4 27 -22q-20 -6 -29 -27t0 -51q106 21 202 76t161 135q-19 19 -29 27q-46 -11 -76 -11q-92 0 -135 56l-2 4l-2 4q-6 19 -14.5 33.5t-24.5 27t-27 20t-37.5 18t-40 15.5t-49.5 17q-118 37 -174 72l-12 8 l-4 14q-14 43 -74 88l-12 8l-4 15q-7 21 -12 63q-11 42 -11 43l-4 4l-6 9q-20 29 -21 79.5t7 81.5q6 21 6 35l4 31l29 4q4 0 8 2t16 6q3 9 7.5 18t10 18t7.5 13q14 25 16 33q8 25 10 41q8 3 16.5 1.5t14.5 -5.5l6 -4l13 12q27 24 61 27q-11 3 -17.5 9.5t-6.5 11.5l-1 5 q-9 35 -10 45q-20 129 -16 213l2 33l27 6q4 12 4 25q0 4 1 13.5t1 13.5l6 28l26 4q1 0 3.5 1t3.5 1q28 54 106 86v9l2 16l10 8q68 62 176 62q100 0 208.5 -45.5t179.5 -108.5l14 -12l-2 -21q0 -7 22 -45q28 -40 35 -74q13 -51 -18 -108l-15 -23l-26 7q-12 3 -22.5 7 t-22 11.5t-18 12t-18 15.5t-15 14.5t-16 17t-13.5 14.5q-2 3 -7.5 9t-8 9t-7 8t-7 7.5t-7 6.5t-7 6t-6.5 4.5t-7.5 3.5l-7 2t-7.5 1q-6 0 -10 -2l-16 -4l-15 10q-56 29 -104 29q-79 0 -103 -72l-10 -26h-22q-10 0 -25 -27q-21 -48 -4 -76q7 -12 49 -47t84 -61q22 -16 49 -21 q41 -11 68 -27q7 -5 27.5 -22.5t31.5 -26.5q8 -6 35.5 -31t36.5 -30l20 6l17 -20q19 -22 33 -46q23 -48 61 -69l10 -4l6 -10q18 -35 31 -66q29 -54 45 -88t28 -88t5 -101q-2 -11 -6 -22.5t-7.5 -19t-11.5 -19t-11 -15.5t-13.5 -17t-12.5 -15q-5 -5 -12 -15.5t-10 -13.5 q22 -13 27 -22q8 -24 6 -33q9 -18 18 -33q13 -23 19.5 -37t11.5 -41.5t2 -60.5q-5 -48 -43 -86q-3 -5 -10.5 -14.5t-9.5 -13.5t-4.5 -10.5t-2.5 -12.5v-33l-28 -4q-32 -10 -50 -47l-8 -21l-22 -4q-48 -7 -129 -67q-47 -32 -73 -48.5t-73 -33.5t-92 -17q-31 0 -41 4 q-39 -22 -69 -22zM297 557q61 -62 130.5 -103t115.5 -56t116 -31q74 -18 140 -48q37 91 37 150q0 4 -2 6q0 1 -2 2.5t-4.5 3.5t-4.5 4q-3 5 -20 25q-123 133 -187 166q-27 -31 -69 -31q-10 0 -22 2.5t-20 6t-22 9t-20 7.5q-7 2 -20.5 7.5t-18.5 6.5q-6 -9 -18 -12 q-26 -4 -43 -13t-23.5 -17.5t-15.5 -25.5q-12 -28 -27 -43v-16z" />
<glyph unicode="&#xa8;" horiz-adv-x="681" d="M520 1153l-6 6q-20 22 -41 25q-15 4 -33 4q-3 6 -4 13.5t0 11.5v4l-16 12q-18 13 -23 39q-30 12 -30 22q0 4 5 13t10 17l5 7q1 2 6 31q0 36 15 59q14 26 45 35v2q0 27 6 45l8 25l25 4h12q17 0 33 -8h8q44 0 82.5 -23t60.5 -61q22 -40 20.5 -86t-26.5 -86l-12 -21h-11 q-15 -41 -69 -80q-2 -2 -7.5 -6t-7.5 -6q-18 -16 -28 -16q-4 0 -11 4.5t-12 8.5zM139 1163q-46 16 -86 62q-30 33 -47 41q-24 6 -26 14l2 31l2 4q3 18 6 39v18q-3 17 -23 25q0 10 5 19.5t10 13.5l6 4q11 11 28 59q5 35 19 43q6 4 17.5 -1.5t19.5 -13.5l8 -8q9 -6 14 -6 q3 0 9.5 1t9.5 1q16 4 24 4q11 0 23 -4q11 7 24 7q6 0 15 -3q16 10 32 -8q-4 -6 -4.5 -14t1.5 -13l1 -5q3 -3 7 -11l30 -6q3 -1 17 -8q11 -10 34 -10q6 -14 5.5 -26.5t-4.5 -21.5l-3 -8q-17 -34 -30 -69q-12 -36 -23.5 -59.5t-36.5 -50t-59 -40.5l-12 -6z" />
<glyph unicode="&#xa9;" horiz-adv-x="1509" d="M569 -51q-14 20 -65 20q-25 0 -45 -4l-13 -2l-12 6q-191 90 -308 280.5t-136 446.5l-2 2l2 2q0 114 47 269q2 8 2 24q0 40 8 54q7 14 31 26v8q0 40 12 58q6 8 16 18v6l-4 27l23 14q139 88 174 154l14 31q9 -9 21 -9q5 0 9 1t6 2t3 1q3 2 9.5 6.5t9.5 6.5q60 57 137 57h6 q-6 27 6 35q6 -7 17 -10.5t19 -3.5h7q2 0 4 2h11q5 16 -5 28l35 8q6 3 15 3q21 0 34 -13q11 19 29 25q5 -7 12.5 -14t11.5 -10l5 -3q15 -12 33 -12q8 0 25 3t20 3q36 8 57 8q48 0 74 -26q24 0 49.5 -9.5t39 -18t40.5 -26.5q60 -37 80 -37h6l45 5q3 -6 3.5 -14t-0.5 -13 l-1 -4q16 -4 22 -10q11 -11 15 -19h12h27l12 -24q10 -21 17 -28.5t20 -12.5l28 -9v-30q0 -12 39 -45q25 -19 49 -54l15 -24l-17 -21q1 -2 5.5 -7t5.5 -7q25 -35 30 -55q17 2 29 -8q-3 -9 -1.5 -28.5t3.5 -25.5q5 -20 0 -39q9 -14 10 -16q4 -6 9 -16l14 -17l-6 -22 q-10 -25 -2 -82q5 -74 0 -103l-2 -16l-13 -10q-2 -2 -4 -2q3 -51 -6 -96t-31.5 -87.5t-39.5 -68t-50 -68.5q-53 -64 -73 -104l-9 -17l-18 -4l-8 -32l-33 2h-2q-5 0 -11 -2.5t-14 -7.5t-13.5 -9t-15.5 -12t-16 -12q-29 -24 -42.5 -34.5t-41.5 -23t-55 -12.5q-4 0 -6 2 q-43 -43 -113 -43h-10q-23 -26 -70 -39q-21 -6 -100 -10q-75 0 -109 -14q-2 -1 -5 -3t-10 -4.5t-11 -1.5t-9.5 6t-8.5 10zM438 252q9 0 21 -4q14 -7 30 -19q15 -10 17 -12q58 -22 127 -22q51 0 94 12q-29 4 -63 33q-12 12 -17 12q-2 0 -10 -4q-2 -2 -5 -4t-11 -6t-13 0 l-22 18q-2 2 -25 8q-40 9 -61 25q-101 73 -125 151q-7 18 -2 43q0 2 1 7.5t1 7.5q-3 10 -17 43q-20 51 -22 69q0 36 14 58q-7 17 -9 34t2 37t7 30t10 30q13 26 13 39l-27 26l27 27q13 15 16 31q16 64 55 88q13 -6 25 4q4 4 6 13t2 15v7l15 2h2q12 4 14 6q0 1 2.5 5t3.5 7 q1 1 8 11.5t15.5 20t19.5 17.5q23 23 51 23h13q1 1 4 3t4 3q26 24 48.5 35.5t57.5 11.5q21 12 47 12q35 0 60 -22q84 -14 126 -46q31 -25 50 -59q24 -6 37 -28q1 -2 2 -6.5t2 -6.5q37 -14 57 -34q42 -42 45 -109v-4v-2q-3 -19 0 -37v-10v-11.5t-0.5 -10.5t-1 -11t-2 -10.5 t-3.5 -11.5t-5 -10.5t-7 -12t-9 -10.5l-17 -19l-20 4q-25 4 -45 9q-21 -17 -41 -17h-15l-12 8q0 4 -6 4q-47 34 -41 80l2 23l-14 16q-13 13 -33 43q-14 21 -20.5 28t-21.5 13t-40 6q-15 0 -23 -2q-25 -15 -45.5 -34t-31 -32.5t-35.5 -47.5l-2 -7q-7 -7 -25 -16v-8 q0 -25 -4 -35q-6 -26 -29 -37q-4 -15 -8 -37q-4 -10 -8 -26q10 -36 12 -52q4 -32 -2 -43q21 -68 58 -91t86 -23q73 0 204 43q28 24 39 35q54 54 131 79q58 19 68 23q4 -2 6 -5.5t2 -5.5v-3q18 0 33 -15q5 -5 8 -14l11 16.5t12 18.5q18 33 30 47q5 71 1.5 111.5t-17.5 99.5 q-19 8 -29 20q0 1 -1 8.5t-1 8.5q-8 0 -14 10q-3 4 -3.5 8.5t0.5 7.5l1 2q0 41 -35 95q-27 36 -51 36h-2q-21 -7 -35 7q-4 4 -7 11t-4 12l-1 5q-8 24 -29 39.5t-61 32.5q-26 12 -54 29q-4 -2 -14 -2h-14q-11 2 -19 6q-4 2 -6.5 6t-2.5 7l-1 3h-6q-3 0 -14.5 -1t-18.5 -1 q-16 -4 -20 -4h-9l-28 2q-1 10 -13 12q-18 3 -28 13h-17h-10q-13 0 -22 -7l-15 -12l-20 6q-16 4 -27 4q-37 0 -110 -47q-42 -29 -74 -41q4 -25 -12 -41q-12 -15 -35 -18h-2h-4q-8 -19 -35 -41q-4 -4 -6 -4q0 -10 -2 -14q-3 -10 -11 -23q0 -1 -1 -3t-1 -3q-8 -29 2 -37 q-4 -1 -17 -11.5t-38 -15.5q-2 -4 -5 -15t-5 -15q-13 -54 -35 -76l2 -4q9 -71 -14 -101q2 -8 8 -53q4 -44 14 -61l11 -19l-11 -20q-15 -26 3.5 -85.5t60.5 -123.5l14 -19q13 -20 17 -25.5t15 -19.5t18.5 -21.5t15.5 -12.5q20 -14 26 -33z" />
<glyph unicode="&#xaa;" horiz-adv-x="757" d="M586 719q-64 79 -97 110l-6 7l-6 18v16q-7 -9 -20 -26.5t-20 -26.5t-18.5 -21t-23.5 -20q-80 -57 -151 -57q-52 0 -105 29l-8 4l-6 8q-4 6 -16 20.5t-19 24.5q-82 129 -108 209l-2 8v8q4 27 6 31q14 93 18 147l2 23q2 1 5.5 3t8 8t0.5 11q-3 4 -1 10t6 11l4 4 q2 1 7.5 5.5t8.5 6.5q0 24 6 33q4 6 12 14q0 6 3 9q7 18 32 28q4 4 6 4l2 3q1 3 3.5 8t4 13.5t1.5 19t-2 24.5q6 2 13 1t12 -4l5 -3q7 8 15 10q3 1 6.5 2.5t8.5 10.5t1 22q15 3 25 1.5t15 -5.5l5 -4q6 8 6 10q11 17 11 33q4 -5 9.5 -7t8.5 -1l4 1q3 0 10 1.5t11 1.5h12 q4 1 6.5 3.5t2.5 4.5l1 2h18q25 0 41 -8q18 6 37 6q46 0 99 -37q33 -22 47 -57q49 -9 82 -46q12 -16 24 -22l21 -8v-19q-1 -33 -15 -145q-16 -120 -12 -182q15 12 21 16l18 4q14 -2 20 -12q1 4 3.5 7t4.5 4l3 1q2 2 10 2q15 0 27 -12q0 -2 4 -6q9 -3 12 -6l4 -5l4 -4 q13 -19 15 -35.5t-1 -27.5q-3 -16 0 -27l7 -22l-17 -13q-22 -13 -41 -61q-7 -21 -13 -33t-18.5 -30t-32.5 -29.5t-48 -16.5l-21 -6zM188 963q17 -4 41 -33q10 10 25 22q67 27 111 86q11 40 35.5 87t50.5 75q1 6 2 18t2 17q6 31 8 53q-27 15 -27 25q-11 14 -22 18q-3 0 -21 6 q-2 2 -6 2h-2q-31 0 -39 -4q-9 -4 -14 -20q-2 -2 -8 -7t-9 -8l-5 -5t-11 -6.5t-14 -0.5q-4 -4 -9.5 -10.5t-14 -24t-7.5 -32.5v-27l-16 -10q-17 -12 -26 -57.5t-3 -84.5q2 -31 10 -41q-6 -4 -14 -5t-13 0l-4 1v-14v-20z" />
<glyph unicode="&#xab;" d="M532 -51q-88 31 -141 125q-6 7 -24 27t-30 32t-24 21l-20 16l4 12q-16 12 -16 37q-3 3 -8.5 9.5t-8.5 9.5q-36 39 -49.5 55.5t-43.5 58t-45.5 83.5t-21.5 89v8l2 9q16 56 55 121.5t85 105.5q8 59 67 113q3 5 14 19.5t15 21t8.5 19t5.5 24.5l2 24l27 8q19 5 27 43 q8 29 26 47l13 15h18q4 2 14 2q69 0 129 -55q17 -11 41 -25l33 -18l-16 -33q-56 -117 -162 -264q-94 -135 -141 -238q15 -23 31.5 -46t38 -48.5t34.5 -41.5t41 -45.5t36 -38.5t40.5 -43t36.5 -38l8 -6l2 -12q3 -12 4.5 -22t2 -22t0.5 -19t-1 -21.5t-1.5 -20t-2 -23.5 t-2.5 -24l-2 -16l-17 -9q-13 -10 -30 -10h-6q7 -18 -9 -24zM895 10q-167 162 -211 203q-23 30 -74 80.5t-71 73.5l-7 4l-4 4q-16 38 -24 64.5t-7 62.5t17 69l4 2l6 7q12 9 23 12q6 42 27 86.5t36.5 67t48.5 65.5q83 86 105 162l6 16l18 6q9 3 31 37q1 1 3.5 6.5t3.5 7.5t4 7 l4.5 7.5t4.5 7t5.5 7t6 6.5t7 6.5t7.5 5.5t9 5l9 4h8h2q11 0 20.5 -1.5t18.5 -6t14.5 -7t13 -9.5t10 -9.5l10.5 -10.5l7 -9q19 -19 29 -21l16 -6l4 -23q15 -44 -39 -165q-64 -132 -104 -172q-8 -12 -23 -17q-5 -23 -14 -35q-8 -18 -33 -35q-1 0 -5 -2t-5 -2q-4 0 -12 -28 q-7 -27 -17 -45q-7 -9 -22 -19q-1 -1 -4 -3t-4 -3q30 -30 63 -59q4 -4 6 -4q13 -13 17 -19q52 -35 75 -88q41 -16 50 -51q72 -37 82 -98q12 -71 -29 -121l-10 -8l-13 -2q-3 -1 -9 -2.5t-9 -2.5q-28 0 -33 -8q-12 -16 -20 -16q-3 -1 -10 3t-13 9z" />
<glyph unicode="&#xac;" horiz-adv-x="1196" d="M926 379q-22 33 -34 79t-13 112.5t1 104.5t7 116q0 2 1 7t1 7q-38 14 -90 14q-32 0 -82 -4q-32 -4 -49 -4h-6q-20 0 -52 8q-28 8 -39 8q-4 0 -4 -2q-9 -1 -211 -12q-152 -4 -264 -16l-18 -4l-15 14q-48 51 -26 113q18 50 78.5 80t124.5 30q39 0 63 -8v4q7 16 18.5 24.5 t20.5 8.5q15 0 31 -12q34 0 88 8q8 0 43.5 3t52.5 3q53 0 102 -17q2 3 2 5q13 16 25 18q6 2 14 -1.5t12 -7.5l5 -5q6 -6 18 -6q17 0 41 6q36 8 57 8h17q23 -3 35 -23q12 6 34 6h3q14 0 20 -2h27q22 0 34 9q19 14 25 14q4 0 9.5 -3t9.5 -6l4 -3q57 -39 77 -86q22 -58 11 -129 q-5 -39 -5 -160q0 -49 0.5 -93t-8 -91t-26.5 -82l-4 -6l-7 -7q-26 -18 -63 -18h-12h-11h-8q-22 -33 -30 -35q-5 -1 -14 7.5t-15 16.5z" />
<glyph unicode="&#xad;" horiz-adv-x="681" d="M365 377q-1 0 -3.5 1t-3.5 1q-27 10 -63 10h-39q-8 0 -24.5 -2t-24.5 -2q-69 0 -125 25l-10 2l-9 6q-23 27 -29.5 60.5t-3 51t12.5 48.5q7 19 10 34l4 25l23 6q62 33 153 33q77 0 164 -25q21 7 23 8q55 19 67 19q24 0 43 -16q1 2 9 10l20 16l23 -14q37 -33 61 -103 q9 -29 23 -49l10 -18l-6 -27q-39 -102 -142 -102q-15 0 -38 3t-29 3q-45 5 -60 8q-5 -2 -8 -7t-3 -9l-1 -4z" />
<glyph unicode="&#xae;" horiz-adv-x="1509" d="M752 -25q-4 2 -15 2h-8q-62 -12 -98 -12q-63 0 -131 27q-10 -6 -27 -6h-2h-4q-210 34 -346 204q-109 144 -148 383l-2 7l4 10q5 18 -2 33q-3 4 -7 7.5t-6 5.5l-3 1l10 37q19 54 23 155q3 47 5 66.5t9 59.5t20.5 73t34.5 66q9 13 32 35.5t28 27.5q5 4 18.5 15.5t20.5 19 t12 14.5q2 1 6 15q4 26 21 43q21 21 59 41q26 15 38 26t15 25l6 28l29 2q39 4 84 37q9 5 27 15.5t24 13.5l13 4l10 -2q4 0 13.5 -1t14.5 -1q24 0 37 10l21 15l20 -11q8 -8 41 -8q15 0 29 2t21 5t8 5l18 23l29 -14q57 -27 235 -80q98 -27 119 -35l4 -2l6 -6q6 -4 15 -13 q117 -97 176 -122l12 -7l6 -16q18 -38 82 -133q5 -7 17.5 -23t21.5 -29t16 -26l31 -47q-8 -2 -8 -12q0 -18 14 -37l12 -12v-19q-3 -16 5 -55q2 -13 5 -21t5 -10l2 -2q12 -18 24 -22q1 -5 -0.5 -12.5t-3.5 -11.5l-2 -5q-8 -25 -4 -84q0 -33 0.5 -64t-10.5 -63.5t-35 -54.5 q-6 -66 -55 -123q-31 -39 -105 -105q-27 -20 -41 -37q-155 -146 -507 -225l-23 -6zM639 420q0 -87 4 -107q1 -18 11 -47.5t10 -36.5q25 15 45 15q3 0 39 -6l24 4q-27 24 -61 73q-4 10 -33.5 52t-38.5 53zM379 268q16 -5 29 -14q12 -9 26 -12q-29 64 -43 157q-11 88 4 215 q-15 10 -20 37v6l2 7q9 26 18 65q4 19 14 59.5t15.5 65t10.5 55.5t5 52v16l15 12q33 26 65 66q36 36 53 51.5t50.5 41t66.5 36t70 10.5q44 0 110 -27l15 -6l6 -14q6 -12 47 -27q70 -30 97 -54q24 -23 38 -54q18 -39 14 -107q0 -31 5 -49l2 -16l-9 -15q-77 -111 -137 -151 q-63 -45 -141 -60q-11 -30 -39 -47q-4 -4 -6 -4q14 -7 28.5 -17t22.5 -17l24 -21t21 -19q6 -5 18.5 -15.5t18.5 -15t15.5 -11t17.5 -9t16 -2.5q17 0 37 10q5 5 10 5q17 14 23 14q4 -10 10 -17.5t10 -9.5l4 -2q3 -1 10 -4t13.5 -5.5t11.5 -4.5q21 -12 35 -19q2 5 12 11 q48 36 51 39q51 48 92 150t31 202q-37 41 -37 78q-17 17 -30 55q-10 24 -14.5 29.5t-12.5 5.5l-33 -2l-8 30q-5 18 -43 43q-2 2 -11.5 9t-15 11.5t-13.5 12t-14 16t-11 17.5q-9 3 -15 6l-16 -10l-16 12q-8 5 -39 23q-68 43 -105 57q-72 25 -160 25q-31 0 -43 -4 q-4 -1 -11 -3.5t-11 -3.5q-106 -23 -143 -49q-12 -6 -29 -6h-10q-20 -23 -45 -82q-36 -93 -84 -121q-5 -2 -17 -14q-4 -4 -24 -20q-6 -31 -31 -72q-25 -49 -27 -64q-12 -57 -16 -112t2.5 -125t42 -132.5t98.5 -103.5l21 -12v-16q0 -5 4 -9q0 -1 1 -3t1 -3zM705 770 q36 7 70.5 44t37.5 67q3 36 -82 67q-26 -29 -55 -98q-14 -34 -27 -86l7 2q8 3 16.5 5.5t18 2.5t14.5 -4z" />
<glyph unicode="&#xaf;" horiz-adv-x="681" d="M365 1204q-1 0 -3.5 1t-3.5 1q-21 8 -69 8h-43q-8 0 -25 -1t-26 -1q-79 0 -144 19l-10 2l-8 8q-19 19 -27.5 38.5t-7 41.5t4 33t9.5 32q9 22 11 31l4 25l22 6q79 27 174 27q75 0 183 -19q6 2 22 6q58 15 72 15q26 0 49 -13q4 4 8 6l21 17l24 -14q48 -29 70 -93 q11 -30 22 -45l13 -18l-9 -23q-39 -92 -151 -92q-11 0 -24 1t-29 2.5t-25 2.5t-59 6q-9 -1 -14 -5.5t-6 -8.5l-1 -4z" />
<glyph unicode="&#xb0;" horiz-adv-x="819" d="M434 866h-8q-2 0 -12.5 2t-16.5 4q-45 -10 -67 -10q-75 0 -137 56q-84 94 -78 303v20l16 12q27 19 47 86q2 8 8 22.5t7 18.5l8 19l18 2q2 1 33 6q62 10 76 33l8 20l22 2q16 4 39 4q15 0 27.5 -1.5t27 -5t22 -5.5t25 -8t23.5 -8q5 -2 31 -11.5t43 -13.5l25 -4l6 -14 q4 -16 22 -47q22 -43 27 -76q12 -12 18 -35q1 -5 1.5 -11t1 -9.5t1.5 -4.5q11 -16 12.5 -36.5t-1 -29t-9.5 -28.5q-15 -18 -12 -53q4 -29 0 -37q-9 2 -14.5 0.5t-7.5 -4.5l-2 -2l-7 -2q0 -1 -1 -3t-1 -3v-10l-10 -11q-16 -15 -32.5 -27.5t-35.5 -24.5t-26 -17q-11 -4 -19 -9 q-28 -10 -61 -43q-6 -12 -12 -14zM352 1235q-25 -32 -33.5 -50t-4 -45.5t31.5 -64.5q79 0 121 37q38 23 41 66q1 27 -20.5 50t-57.5 34q-19 -27 -59 -27q-2 0 -4.5 1t-4.5 1h-8z" />
<glyph unicode="&#xb1;" horiz-adv-x="1196" d="M1028 -14q-3 0 -10.5 -1t-11.5 -1q-13 0 -17 2q-27 -13 -69 -13q-17 0 -27 2h-23q-24 0 -32 -4l-15 -16l-22 6q-48 10 -94 10q-16 0 -33.5 -1t-38.5 -2.5t-33 -2.5q-38 -3 -72 -6h-26q-30 0 -84 4q-25 2 -76 2q-56 0 -102 -12h-2h-4q-2 0 -5 -1t-4 -1q-22 0 -43 16h-16 q-43 0 -83 24t-62 64q-21 35 -20 75t24 73l12 22l24 -2q35 -4 109 -4q104 0 346 21q233 22 320 22h6h16h27q92 0 139 8h14l11 -6q43 -21 59 -51q24 -3 41 -23q21 10 29 0q4 -5 6.5 -13.5t3.5 -14.5v-6q7 -50 -25 -82q-11 -11 -51 -31q-23 -5 -27 -12v-4q-4 -35 -14 -41 q-4 -3 -15.5 -3t-20.5 1zM582 268q-61 19 -95 80q-31 48 -43 119q-17 97 -8 207q-31 8 -69 8q-10 0 -30 -1t-30 -1t-31.5 -1t-31.5 -1q-131 0 -181 59q-48 57 -24 168l2 17l14 10q2 0 6 4q38 27 68 27q19 0 37 -9q6 2 24 2q50 0 123 -20q-3 14 15 18l51 -18q14 -6 29 -6 q10 0 14 4q14 21 16 67q3 26 -2 132q-8 146 8 194l13 27l30 2q76 -9 127 -60q43 -40 64 -110q23 -84 16 -242q16 -8 45 -8q43 0 105 16q14 4 39 9q22 6 30 6q4 0 6 -3.5t3 -7.5v-4q12 4 26 4q11 0 31 -4q10 -4 18.5 -9.5t22.5 -18.5l14 -13l10 -10q19 1 21 21q11 -3 21 -11 t14 -15l4 -7q8 -14 12 -29q17 8 27 -2q3 -7 4 -18t1 -18l-1 -7q-4 -42 -49 -70q-6 -3 -11 -8q4 -18 -2 -26l-26 -11q-15 -5 -31 -9.5t-28.5 -8t-30 -6.5t-27 -4.5t-29 -3.5t-26 -3t-27.5 -2t-25 -1.5t-26.5 -1.5t-24.5 -1q-27 0 -73 -4q0 -35 -9 -73q37 -42 17 -95 q-6 -38 -6 -61q-4 -57 -19 -84q-18 -38 -82 -72l-14 -6z" />
<glyph unicode="&#xb2;" horiz-adv-x="681" d="M588 678q-20 0 -60 6q-4 2 -12 2q-36 4 -61 4q-14 0 -41.5 -1t-36.5 -1q-14 0 -39.5 -1t-36.5 -1h-6q-26 0 -72 4q-40 4 -45 4q-32 0 -53 -8l-19 -6l-12 8q-57 34 -82 72q-29 44 -20 117q4 24 8 30q3 3 9.5 3.5t12.5 -0.5l5 -1q2 0 11 4t11 5q26 11 35 12 q10 13 23.5 24.5t31 25t27.5 21.5q68 59 102.5 94t72.5 97.5t60 142.5q-12 12 -12 19q-3 -1 -8 -3t-8 -3q-2 -1 -6.5 -3.5t-6.5 -3.5l-4 -4q-21 -26 -32 -34q-6 -3 -35 -13q0 -20 -17 -26q-35 -15 -41 -17h-4q6 -16 -4 -28l-28 -11q-10 -4 -33 -4h-15h-8l-45 -8q-6 3 -6 23 q-1 5 -7 7t-12 2l-6 -1l7 37q4 17 -2 43q-1 5 -5 18t-6 21l-2 12l8 8q54 88 140.5 127.5t204.5 58.5l14 2l14 -6q67 -38 109 -82q53 -53 53 -135q0 -21 -12 -69q-6 -30 -6 -41v-27l-25 -10v0q-1 -1 -2 -2.5t-2 -7.5t0 -13l2 -18l-14 -13q-17 -19 -35 -61q-1 -2 -12 -25 t-21.5 -37t-28.5 -26q0 -2 -1 -4.5t-1 -3.5v-4l-8 -23q-2 -12 -12 -16q-4 -2 -12 -3.5t-9 -2.5h-10q-8 -12 -22 -23q7 1 21.5 4t25.5 4q67 13 92 13q114 0 178 -99l8 -16l-2 -16q-5 -25 -11 -42t-17 -35t-29.5 -27t-44.5 -9z" />
<glyph unicode="&#xb3;" horiz-adv-x="681" d="M207 686q-42 0 -74 19q-4 -11 -22 -11q-6 0 -13 6t-10 12l-4 7q-6 15 -29 26l-24 9l2 22v23q-1 18 -1.5 33.5t5 31.5t18.5 29q18 18 41 18h13q13 11 30 11l17 2l10 -11q28 -22 63 -22q38 0 87.5 17.5t84.5 39.5q-1 5 -5 14t-5 11q-7 5 -37 16q-60 25 -82 25 q-37 0 -79 -25l-17 -14l-22 16q-12 12 -35 0q-4 5 -8 16.5t-5 20.5l-2 8v11q-5 61 11 116l4 17l16 8q13 8 35 8q11 0 23 -4q1 0 4.5 -1t5.5 -1q16 14 30 18q1 -5 6 -7t10 -1h5q31 13 31 14v3v2q10 6 35 17.5t38 18.5q3 2 50 33q-43 15 -86 15q-63 0 -99 -33l-16 -15l-17 7 h-10q-18 0 -28 -5q-15 -8 -15 -24l-33 2q-39 13 -68 56.5t-20 129.5l4 27l31 4q21 2 62 10q161 23 219 23q56 0 112 -12q21 6 37 6q20 0 37.5 -5t35.5 -19t26 -21t28.5 -29.5t22.5 -24.5q16 -20 22 -26l9 -8v-11q8 -38 -21 -63q1 -2 2 -5t3 -11t1 -13l-37 -10 q-39 -7 -78 -72q-8 -10 -14 -24q-2 5 -9 6.5t-13 0.5l-7 -1q-4 0 -10 -8q72 -33 103 -101q4 -4 19.5 -23t27.5 -28l16 -12l-2 -21q0 -49 -51 -104q-19 -23 -23 -41v-2t-0.5 -4.5t-1.5 -7l-2 -7t-2.5 -6t-4 -4t-5.5 -0.5q-1 -7 -4.5 -11t-6.5 -5h-3h-31q-52 -7 -64 -19 l-8 -18l-24 -2q-2 -2 -9 -2q-18 0 -18 10q-69 -31 -98 -31q-7 0 -13 2q-30 -12 -67 -12z" />
<glyph unicode="&#xb4;" horiz-adv-x="681" d="M274 1139q-20 0 -34 2q-24 3 -35 20q-20 23 -12 94q2 2 2 9v16l12 12q42 42 47 62q0 6 -4 16q-10 30 -6 49q3 33 37 62l20 18l8 -4q26 21 45 23q6 9 15 18l12 12h18h11h14h8h10h29l2 -2h10h6q8 -1 21 -4t18 -4q7 0 11 4l36 6h11l16 -4l8 -10q13 -17 13 -47v-8l6 -6v-17 q-12 -142 -146 -237q-13 -9 -30 -9q-15 -37 -66 -47q-8 0 -16 -4l-4 -2q-61 -18 -93 -18z" />
<glyph unicode="&#xb5;" horiz-adv-x="1251" d="M381 -481q-43 1 -77.5 15.5t-59.5 40t-37 42.5t-27 43l-12 23l14 20q0 1 2 5.5t2 6.5q9 9 -6 19q1 5 5 11t8 9l4 4l-15 11l11 26q4 12 10 15q-16 16 -21 47q0 4 -4 20l-6 27q17 6 21 14q-2 4 -5.5 8t-6.5 6l-3 2q0 1 2 4t4.5 6t3.5 5q-8 11 -8 33q5 14 6 16 q-12 20 -12 37l-2 26l12 17q-23 17 -30 49l-2 10l2 10q0 1 1 3.5t1 3.5q-1 1 -3 4t-3 4l-11 18l8 19q0 1 1 2t2 2.5t2 3.5q-9 2 -15 8l2 10l-10 4v27q-6 33 6 39l-14 14l10 17v6v4l-2 6v4q-3 28 12 43q-2 10 -2 21q0 6 -6 12l-10 14l2 25l6 18l-4 10l2 15q3 13 10 28 q-1 2 -3 5.5t-3 5.5l-6 12l4 12q-10 3 -16 15q0 5 2 11t4 9l2 4q0 1 1 3t1 3q-7 14 -4 29q0 12 8 31q0 4 2 6l-4 16q-5 32 12 58q-18 18 -20 36q7 5 9.5 11t1.5 9l-1 3q-4 8 -6 14q-4 33 14 54q-2 14 10 30q0 2 -2 2q0 5 -2 11l-8 22l15 14v3q-9 25 20 61l6 6h2 q-14 11 -20 33q-10 26 1 58.5t40 54.5l14 10l16 -4h2q5 5 27 14l6 2l10 -6l9 12l14 2h12q41 0 90 -33q6 -3 9 -6q18 -10 20 -20l-4 -27q-4 -15 10 -51q22 -60 4 -96q-12 -25 -8 -99q2 -39 -1 -58.5t-15 -33.5q-13 -107 -13 -174q0 -34 -2 -59q0 -33 -4 -103 q-10 -69 -4.5 -144t39.5 -134q5 -1 13.5 -4.5t9.5 -3.5l4 -2q28 22 98 39q34 7 47.5 10.5t31 13.5t24.5 26.5t10 43.5l4 41q20 4 30 -6q3 8 3 10q0 27 4 39q9 25 26 35q0 1 0.5 2.5t1.5 5t2 6.5q10 23 41 31q0 1 1.5 2t4 4.5t5.5 7.5q4 8 14 43q9 30 14 41v2q-10 10 -10 37 l2 6l2 8q15 31 17 91t-3 116q0 7 -1 23t-1 24v31q-6 12 -8 22q-6 45 43 97l4 4q2 2 2 6v20l19 11q19 14 39 14t22 -10l2 14l27 6q16 4 22 4q20 0 29.5 -4t15.5 -18l9 10l20 -8q29 -6 45 -35q19 -34 -8 -117q-2 -4 -8 -22q-3 -12 4 -29q5 -33 4 -43q-4 -62 -29 -190l-2 -11 q0 -2 4 -10q13 -26 13 -45v-63q3 -81 -2 -125q14 -59 14 -195q0 -96 4 -147l4 -39q-18 0 -22 -4l-2 -13l-37 -8q-5 -1 -13.5 -4.5t-9.5 -3.5q-24 -12 -53 -12h-10q-23 -9 -29 -9q-21 0 -35 17q-10 12 -14 37q-8 4 -12 8q-17 16 -21 50.5t0 90.5v8q-19 -23 -46.5 -53 t-29.5 -33l-12 -12h-18h-5l-4 -4q-11 -17 -28 -27q-14 -7 -17 -10q-2 -2 -4 -5.5t-5.5 -14.5t-2.5 -21q-10 3 -19 2t-15 -3l-5 -3l-2 2q-5 0 -25 -12q-37 -21 -57 -21h-4q-37 -24 -98 -24q-23 0 -33 2q22 -164 -2 -355l-6 -34z" />
<glyph unicode="&#xb6;" d="M803 -416q-19 19 -31 39q-13 19 -35 39l-10 12l-2 15q-3 147 -6 256q-6 217 -27 389q-3 -1 -10 -2t-10 -2q-60 -9 -115 -29q15 -66 -6 -106q9 -15 27 -17q2 -6 0.5 -13.5t-4.5 -14.5l-3 -7q-20 -63 -20 -184q0 -86 -10 -125q-15 -71 -66 -108l-14 -13l-19 4 q-28 6 -45.5 11.5t-45 18.5t-47 35.5t-30.5 53.5l-2 10l2 11q37 206 17 413q-161 27 -258 185q-64 103 -76 233q-12 113 20 211q-18 23 -10 51v6l4 7q1 1 2 3t2 3q12 18 17 28l-15 19l19 24q25 32 39 60q29 41 36 51t36 48t42.5 52t41.5 43t49.5 42.5t51 29t58.5 23.5 q5 4 12 7.5t15 7t12 5.5q2 0 7 2t7 2l9 21l18 2q43 6 174 32q132 25 156 27q27 18 61 18q9 0 19 -2t16 -3.5t17.5 -6.5t15 -6.5t16 -8.5t13.5 -7l4 -2h12q109 0 194 -68q46 -27 66 -94q19 -62 -2 -111l-12 -24l-31 2q-26 5 -47 22q-29 21 -74 23q-5 1 -19.5 2t-21.5 2 q-46 4 -63 4h-4q-22 -4 -25 -70q-4 -60 8 -186q4 -46 6 -66q3 -53 6 -108q0 -30 3 -60q5 -166 34 -409q17 -136 26 -223t15.5 -215.5t1.5 -243.5l-2 -41h-41q-4 2 -8 2l-8 -2q-4 -2 -10 -10l-8 -11h-15h-6q-15 0 -23 5q-12 -15 -30 -21l-23 -12zM565 1004q11 -43 12 -97 t-2.5 -90t-11.5 -96q-16 -123 -10 -172q5 0 15.5 1t15.5 1q7 1 31 4.5t34 5.5q35 42 17 152q-10 70 -2 207q0 35 2 51q1 26 -13 119q-7 30 -14 86q-15 5 -29 26q-24 -6 -30 -8q-12 -9 -13.5 -23t4.5 -45q4 -25 6 -38.5t-0.5 -38t-11.5 -45.5zM297 1001q-52 -67 -84.5 -143.5 t-32.5 -146.5q0 -90 56 -156q12 2 32 2h6l37 2q10 74 -6 154q-8 34 2 102q0 2 1.5 9t2 8.5t1.5 8t1 8.5t0.5 7.5t0 8.5t-1 8t-1.5 8.5t-2.5 8t-3.5 9.5l-14 35l26 12q-1 2 -2 8t-2 9z" />
<glyph unicode="&#xb7;" horiz-adv-x="569" d="M279 547q-91 34 -127 88q-41 62 -29 158v8l4 8q11 18 35 37q14 10 14 14q-2 19 6 35q7 2 17 2t16 -1l6 -1q177 -14 219 -80q13 -21 14 -47.5t-4 -43t-16 -46.5l-18 -60q-4 -26 -6 -34q-10 -5 -21 -5t-17 1l-7 2q-30 -35 -70 -39h-8z" />
<glyph unicode="&#xb8;" horiz-adv-x="681" d="M233 -485q-95 0 -167 30q-19 11 -23 17q-2 4 -2 10.5t1 11.5l1 4q9 24 -2 56q-9 42 -6 69l2 17l12 10q31 22 84 22q45 0 70 -22q1 -2 4.5 -6t6.5 -9t5 -10q10 -2 31 -2q32 0 78 33q2 1 16 10v6q-7 7 -37 7h-4q-17 0 -47 12q-4 4 -8 4h-2q-12 -6 -25 -6q-35 0 -45 33 q-1 1 -2 5.5t-2 6.5l-2 2v18q4 96 47 146q0 1 1 2.5t2.5 3.5t2.5 4q12 25 33 35q8 5 41 10h6q20 4 33 4q42 0 96 -26l23 -11l-2 -22q0 -37 -27 -68q16 0 31 -6q96 -47 96 -139q20 -33 18 -64q-6 -55 -67 -104q-13 -13 -19 -17q-55 -55 -108 -55q-11 0 -39 4q-2 0 -6 -4 q-13 -13 -33 -16q-35 -6 -66 -6z" />
<glyph unicode="&#xb9;" horiz-adv-x="681" d="M297 680q-1 0 -43 6l-25 6l-26 2l-6 25q-15 55 -15.5 114.5t6.5 102.5t21 98q14 52 18 78q0 14 9 23q0 2 6 14q4 8 14 18v2v5q-3 0 -9.5 -1.5t-10.5 -1.5q-18 0 -39 9l-13 4l-6 16q-9 17 -14 55q-6 12 -8 13l-5 7.5t-8 14t-4 13.5q2 6 6.5 12.5t8.5 10.5l4 3q45 37 86 92 q4 5 25 30.5t39 44t44 38.5l21 14l16 -8l10 -6q47 -19 72 -37t41 -51q18 -40 -10 -109q-13 -39 -13 -53l3 -12l-9 -10q-5 -7 -8 -37t6 -56q2 -2 4.5 -6t6 -13t0.5 -15q-7 -4 -13 -9.5t-8 -8.5l-2 -3q2 0 2 -4q0 -23 -10 -43q1 -2 -2 -18q-5 -18 -21 -43q-4 -4 -4 -9 q8 -64 -4 -143q-21 -129 -86 -164q-23 -10 -47 -10z" />
<glyph unicode="&#xba;" horiz-adv-x="747" d="M354 709q-33 0 -37 12q-15 6 -24 6q-4 0 -6 -2l-19 -6l-16 8q-81 36 -137 99.5t-80 117.5l-4 10v9q2 20 -2 77q-5 54 -2 74q-13 3 -13 23q0 5 3.5 13t7.5 14l4 5q15 44 20 56q47 76 47 116q-2 15 2 19l25 10q12 8 22 12q2 0 5 1t4 1q38 63 99.5 99.5t139.5 36.5 q88 0 162 -41l6 -2l6 -7q23 -20 27 -28h10q8 0 10 -2l17 -2l10 -17q2 -3 5.5 -13t6.5 -17q18 -54 39 -62l19 -14l-2 -29q-2 -23 6 -47q0 -2 1 -4.5t1 -3.5l4 -14l-4 -13q-4 -18 -4 -69q0 -60 -6 -74q-6 -43 -25 -62q-15 -59 -76 -129q-40 -40 -53 -71l-8 -17l-21 -2 q-4 -1 -18.5 -8.5t-24.5 -11.5q-5 -3 -23 -13.5t-26 -14.5t-22.5 -10.5t-26.5 -9t-25 -3.5h-4zM272 1165q-26 -31 -34 -73t4 -82q23 -70 75 -92q2 1 9 5t13 8t9 7q6 5 33 18q36 12 43 21q35 40 57 101t15 114q-9 60 -43 72q-15 6 -23 18q5 5 7.5 15t2.5 17v7v2 q-19 -4 -22 -14q-5 -2 -20.5 -10t-24.5 -11q-8 -40 -54 -69q-3 -33 -22 -45l-4 -3l-4 -2h-2q-1 0 -6 -2t-9 -2z" />
<glyph unicode="&#xbb;" d="M565 -23h-2q-10 0 -22 3l-11 4v12q-34 41 -36.5 102.5t36.5 118.5q2 11 33 21q1 0 4 1t4 1q13 17 37 49q4 6 20 28t29 36.5t31 25.5q10 5 19 14q-6 13 -2 21q0 17 43 69q4 4 11.5 12t10.5 11v4q-6 12 8 35q-37 103 -149 219q-56 49 -89.5 85t-65.5 99t-40 137l-2 45 q23 -7 33 3q5 5 6.5 12.5t0.5 12.5l-1 5l47 -8q83 -18 156 -80q19 -18 35 -37t34.5 -46t26.5 -38q7 -9 21 -29t21.5 -30.5t20 -26t26 -28t28.5 -23.5q24 -14 28 -24q2 -6 0.5 -10t-3.5 -5l-3 -2v-10q11 -16 37 -82q20 -65 39 -70l25 -4v-26q0 -16 22 -56q49 -80 33 -116 q-14 -28 -37 -45q-4 -16 -4 -19l-2 -2v-29l-29 -4q-16 -1 -25.5 -10.5t-25.5 -38.5q-3 -10 -10 -20l-19 -35l-22 18q-2 -2 -11 -9t-14 -13q-22 -32 -22 -47q0 -31 -6 -37q-4 -2 -11.5 -1t-14.5 3l-7 2h-6q-2 0 -8 -4q-9 -9 -19 -33q-26 -59 -51 -72v-36l-33 -9 q-10 -2 -22 -6q-19 -8 -52 -8h-41zM160 -33q-24 16 -43 39q-23 23 -37 23l-31 4l-6 26q0 13 -1 21t3 19t6.5 17t9 16t10.5 15t11 14t10 13q19 25 19 33l2 12l10 8q9 7 17.5 15.5t15.5 15t16.5 17t14.5 16t15 19t13.5 17.5t15.5 20.5t14 19.5t15.5 21.5t15.5 21.5 q44 64 78 100q-4 29 -23.5 57.5t-41.5 46.5l-6 9v12q-5 20 -12.5 39.5t-20 42t-20 35.5t-25 39.5t-23.5 35.5q-88 127 -106 213q-1 3 -2 7t-2 14.5t2 11.5q2 4 8 7t11 4l5 1q28 7 43 7q36 0 60 -21q3 0 8.5 1t9.5 1q60 0 105 -51q44 -32 61 -86q83 -80 104 -203q1 0 3 -2 q90 -79 102 -172v1q1 0 3 1.5t3.5 2.5t4 2t4.5 2t4.5 1.5t4.5 -0.5l15 -43q15 -32 -12 -88q-10 -24 -9 -26l4 -23l-24 -14q-20 -16 -29.5 -24.5t-19.5 -23t-13 -30.5l-2 -14l-12 -11q-6 -6 -22 -14q-11 -36 -45 -70q-31 -31 -41 -51l-7 -14l-14 -4q-6 -2 -35 -39 q-47 -60 -84 -68v-12q-4 -1 -26 -12q-41 -24 -58 -25l-12 -2z" />
<glyph unicode="&#xbc;" horiz-adv-x="1708" d="M303 -94h-14q-35 4 -47 22q6 8 8.5 20t1.5 20v7q0 7 -6 19q-24 33 -29 59l-4 21l12 14q7 8 12.5 15t11 17t8.5 14.5t8 16.5t6 14t7 17l5 15q36 89 73 127v2q11 35 19 54.5t22.5 47.5t35 46.5t46.5 29.5q41 96 80.5 157t99.5 107q6 35 27.5 68.5t35.5 47t46 42.5q2 2 7 6 t7 6q19 47 54 89t75 65q1 3 5 10t6 10q0 4 4 4v6q8 19 12.5 29t17.5 25.5t29 21.5q31 36 70 92q79 111 116 146l23 22l29 -16q7 -6 30 -15q42 -18 52 -41q21 -40 -11 -88q9 -4 11 -16q-4 -7 -12.5 -14t-14.5 -10l-6 -3q-56 -42 -58 -96q-2 -2 -4.5 -5.5t-6 -12.5t2.5 -13 q-3 -4 -10 -6.5t-12 -3.5h-6h-7h-4q-2 -23 -8 -31q-2 -3 -9 -3.5t-14 0.5l-6 1q-2 -4 -2 -6q-13 -30 -22 -43q-10 -14 -29 -26q-24 -55 -73 -107q-30 -30 -43.5 -51t-14.5 -47v-45l-35 8l-6 -12l4 -6l-2 -11q-3 -30 -35 -41h-4q0 -4 -2 -6l6 -18l-16 -17 q-29 -26 -58.5 -64.5t-47 -68.5t-45.5 -80l-15 -24l-20 2q-11 -16 -17 -21q-19 -50 -61 -112q-41 -64 -55 -123q0 -10 -5 -25l-2 -16q-3 -27 -30 -37q-31 -68 -56 -104q-57 -78 -141 -78zM1360 -53q-4 3 -27 26h-4q-30 0 -59 29q-2 1 -7 5.5t-6 4.5l-36 4l2 39v15q5 66 8 77 q0 2 1 7t1 8l-12 12l32 41q26 33 15 59q-8 15 -19 15q-9 0 -18 -6l-21 -11l-20 11q-21 14 -27 24q-55 6 -104 49q-48 52 -76 101l-10 20l10 17q57 96 61 139l7 47q8 -6 12 0q4 2 4 10l-2 21l22 12q13 10 29 51q22 43 29 53q25 39 69 39h3q2 23 20 25q4 -6 11.5 -14t13.5 -13 l6 -4l18 -18l2 -2q7 -6 31 -17l20 -10l2 -22q3 -37 -6 -69t-19 -48.5t-32 -44.5q-18 -27 -24 -39q0 -3 1 -15.5t1 -21.5q0 -3 -5 -43q10 -10 35 -16q31 -9 60 -15q8 8 24 51q12 33 19 43q10 16 18 19q6 117 39 266l8 33l35 -2q62 -6 154 -53q2 -1 6 -3.5t6 -3.5l27 -14 l-7 -27q-6 -35 -28 -102q-26 -79 -27 -106v-21l-18 -12q0 -27 -9 -58q-8 -49 -2 -55l19 -20l-12 -23q-15 -20 -35 -29q-27 -80 -53 -202q-23 -99 -39 -152l-9 -20l-18 -2q-20 -6 -33 -27l-22 -33zM303 670q-23 0 -47 8q-4 1 -12.5 3t-12.5 3l-26 4l-6 21q-17 56 -17.5 120.5 t6.5 103t23 103.5q14 53 18 82q2 10 9 25q4 8 8 14q8 13 12 27v4q-4 -2 -20 -2q-18 0 -39 6l-17 4l-8 14q-10 29 -14 56q-1 11 -6 20q-13 27 -23 31q1 9 23.5 33t53 53t40.5 41q42 59 110 117l17 16l22 -10q8 -4 13 -4q49 -22 74.5 -41t41.5 -54q16 -36 -10 -116 q-15 -39 -12 -49v-13l-6 -10q-9 -13 -12.5 -42.5t8.5 -53.5q1 -3 2 -7.5t2 -17t-2 -18.5l-19 -19v-6q3 -24 -10 -37q3 -17 -2 -28q-3 -23 -16 -43q-5 -5 -5 -9q8 -65 -4 -151q-21 -136 -90 -168q-23 -10 -47 -10z" />
<glyph unicode="&#xbd;" horiz-adv-x="1708" d="M326 -86h-15q-35 4 -45 20q1 12 4.5 21.5t7.5 13.5l3 4q0 1 -13 27q-22 35 -26 59l-4 21l12 12q31 37 55 107q34 83 72 125q0 2 2 2q13 43 24 70.5t36 58.5t59 45q41 96 79.5 155t96.5 105q6 34 27 66.5t34.5 45.5t44.5 41q2 2 7.5 6.5t7.5 6.5q19 45 53.5 86t73.5 65 q1 3 5 9.5t5 9.5q0 4 4 4v6q25 62 57 76q29 32 70 90q71 101 113 141l22 23l29 -17q5 -4 30 -14q39 -17 50 -39q22 -42 -11 -86l-2 -23l-20 -20q-53 -45 -55 -94l-2 -27l-35 -14h-6h-5l-4 -27l-30 -4q-2 -4 -2 -6q-12 -27 -23 -43t-29 -27q-16 -46 -71 -104q-54 -51 -56 -96 l-8 -25l-26 -10q-1 -2 -3.5 -6t-3.5 -6l5 -7l-2 -10q-3 -30 -35 -41h-4q0 -4 -2 -6l6 -16l-15 -17q-29 -26 -58.5 -65.5t-44.5 -64.5t-46 -79l-14 -24l-21 2q-1 -2 -3.5 -6.5t-5 -8t-5.5 -6.5q-17 -45 -62 -110q-37 -55 -53 -119q0 -13 -4 -25l-2 -16q-3 -26 -31 -37 q-41 -85 -53 -102q-58 -76 -139 -76zM1571 -8q-23 0 -64 6q-4 2 -12 2q-27 6 -65 6q-32 0 -82 -4q-14 0 -39.5 -1t-36.5 -1h-6q-9 0 -78 6q-18 2 -47 2q-40 0 -58 -8l-14 -6l-14 8q-59 30 -84 72q-35 47 -25 125q2 24 8 28q2 2 8.5 3t12.5 1h6q2 0 11.5 4t13.5 5q15 9 34 12 q14 13 86 76q56 49 83.5 75.5t64.5 70.5t60.5 93t41.5 113q-14 7 -18 12q-12 -6 -15 -8q-4 -2 -14 -2q-2 0 -2 -2q-19 -23 -35 -35q-6 -3 -32 -12q-9 -23 -23 -33q-17 -12 -41 -16h-4q6 -23 -2 -29q-4 -4 -10.5 -6t-11.5 -2h-5q-18 -4 -41 -4h-14h-8l-45 2v16q-35 -10 -37 8 q-1 6 1.5 14.5t5.5 13.5l3 5q4 22 -4 45q-1 5 -4 17.5t-4 17.5l-4 16l8 15q30 48 71.5 83t93 55t95 30.5t102.5 19.5l15 2l12 -6q57 -24 115 -82q57 -60 57 -141q-2 -35 -14 -74q-6 -23 -8 -41v-29l-25 -8q-7 -7 -4 -33l2 -12l-14 -12q-21 -23 -37 -64q-10 -22 -14.5 -31.5 t-19 -29t-32.5 -31.5q0 -6 -2 -8v-4q6 -27 -4 -37q-4 -4 -10 -6.5t-11 -3.5h-4q-4 -2 -10 -2q-10 0 -14 2q-6 -8 -25 -27q9 1 25.5 4t25.5 4q72 13 99 13q118 0 186 -103l8 -16l-4 -16q-16 -63 -30 -84q-23 -33 -74 -33zM326 664q-23 0 -47 8q-4 1 -11.5 3t-11.5 3l-27 4 l-6 18q-17 55 -17 118.5t7 101t23 102.5q14 53 18 80q2 12 8 24q3 6 6 15q10 16 13 26v4q-4 -2 -19 -2q-14 0 -39 7l-16 4l-8 12q-12 35 -15 55q-2 17 -6 21q-6 24 -14 24q0 7 4 15.5t8 12.5l4 5q55 49 90 96q36 50 109 115l16 16l23 -10q8 -4 12 -4q34 -16 50 -24.5 t35 -26.5t30 -41q16 -36 -10 -115q-15 -40 -13 -47v-12l-6 -10q-9 -13 -12.5 -42.5t8.5 -52.5l4 -32l-20 -29v-6q3 -21 -11 -35q3 -16 0 -29q-5 -22 -16 -43q-4 -4 -4 -8q9 -63 -4 -147q-22 -135 -90 -164q-20 -10 -45 -10z" />
<glyph unicode="&#xbe;" horiz-adv-x="1708" d="M285 -102h-15q-29 -1 -45 22q5 8 8.5 16.5t4.5 13.5v5q-1 4 -7 14.5t-8 14.5q-19 35 -24 61l-4 18l10 13q30 37 59 110q31 79 70 129q0 2 2 2q14 37 21 53.5t22.5 46t35.5 48.5t46 31q39 94 79 155.5t99 104.5q3 17 8 31.5t14 29t14.5 23.5t18.5 23t17.5 18.5t20.5 19.5 t18 17t7 6t7 6q18 46 53 86.5t76 64.5q1 6 10 23l2 4v6q18 56 62 76q12 14 65 90q6 8 27.5 36.5t31.5 41t27.5 33t34.5 36.5l23 21l26 -14q6 -6 29 -15q43 -14 55 -43q20 -41 -10 -86q2 -1 4 -2.5t6 -8t0 -13.5l-33 -21q-18 -10 -37 -36.5t-20 -59.5q-2 -1 -3.5 -3t-5 -8.5 t0.5 -13.5q-3 -4 -10 -7.5t-13 -4.5l-6 -2h-6h-4q-2 -27 -12 -37q-5 -5 -11.5 -4.5t-11.5 3.5l-6 3q0 -1 -1 -4t-1 -4q-8 -23 -19 -39q-11 -17 -28 -27q-6 -16 -16 -32t-17.5 -25.5t-21.5 -26t-19 -22.5q-4 -4 -13 -14t-12 -13.5t-10 -11.5t-9 -11.5t-6.5 -10.5t-6 -12 t-3 -11.5t-1.5 -13.5q-5 -29 -13 -43q-3 -5 -7 -4.5t-8 3.5l-3 3q-4 -4 -6 -8l4 -7l-2 -10q-3 -30 -35 -41h-4q0 -4 -2 -6v-18l-14 -17q-78 -72 -148 -213l-14 -24l-21 2q-10 -15 -20 -21q-20 -54 -58 -117q-47 -65 -59 -120q0 -11 -4 -23v-16q-3 -29 -29 -39 q-39 -81 -59 -107q-52 -73 -137 -73zM1341 -61q-15 9 -30 24h-4q-27 0 -56 29q-12 12 -14 12l-37 4l2 39v12q0 3 2 34t4 46q0 2 1 6.5t1 6.5q4 14 -4 18q1 6 7 15.5t12 15.5l6 6q32 32 18 55q-7 14 -22 14q-10 0 -19 -6l-16 -10l-21 10q-17 12 -26 29q-56 6 -105 49 q-30 22 -75 101l-11 16l11 20q52 88 57 140l4 37l23 8v8l-2 24l22 13q9 7 29 47q12 42 24 57q28 35 74 35h2q2 16 16 18q7 1 16 -4t14 -10l5 -6q6 -6 12 -11.5t7 -6.5l2 -3q4 -4 28 -16l19 -10l2 -25q4 -53 -10 -89t-43 -70q-25 -37 -27 -41q4 -20 4 -35q0 -19 -6 -43 q14 -10 37 -19q28 -11 57 -16q9 7 27 55q13 34 18 39q10 17 19 23q3 126 37 266l8 33l37 -4q71 -9 151 -52q8 -4 14 -6l27 -14l-6 -31q-6 -30 -31 -102q-24 -56 -26 -107v-16l-17 -12q0 -26 -8 -62q-9 -44 -2 -51l16 -20l-10 -25q-13 -22 -35 -29q-34 -87 -55 -200 q-16 -85 -37 -152l-8 -23l-23 -4q-18 -5 -30 -22l-21 -33zM233 698q-29 0 -57 17q-5 -14 -15.5 -16.5t-18.5 1.5l-7 5q-29 45 -45 53l-20 12v23v22q-4 70 22 96q16 19 39 19h12q15 12 25 12t16 -2l11 -8q18 -21 59 -21q74 0 152 58q-1 3 -3.5 11t-3.5 11q-7 2 -21.5 9 t-17.5 8q-51 22 -69 22q-29 0 -68 -22l-2.5 -2.5t-7.5 -3.5t-12 2q-4 1 -7 2.5l-9 4.5t-11 5q-5 3 -12.5 3t-11.5 -1l-5 -2l-10 43v10q-4 34 -3 57t11 58l4 18l17 8q22 9 33 9q9 0 24 -5q4 0 6 -2q17 1 29 21q4 -6 10 -7.5t10 0.5l5 1q3 1 6 2.5l6 3t4 2.5l2 2l2 2 q5 5 61 41q17 8 50 31q-40 12 -76 12q-54 0 -82 -31l-18 -16l-21 6q0 2 -10 2q-13 0 -23 -10q-4 -3 -12 -19l-31 5q-38 10 -65.5 53t-18.5 133l4 29l31 4q9 2 28 5t27 5q130 22 201 22q59 0 100 -10q15 6 35 6q70 0 140 -104q4 -4 10.5 -13t9.5 -12l6 -8l2 -10 q7 -39 -20 -66q-12 -14 6 -24q-2 -3 -9.5 -6.5t-14.5 -5.5l-7 -3q-43 -15 -72 -69l-12 -21q-6 10 -22 0q-8 -4 -17 -10q58 -30 101 -100l36 -54l15 -12v-18q0 -12 -2.5 -24t-5 -20t-8 -19.5t-8 -16t-9.5 -16t-8 -13.5q-21 -18 -27 -41l-8 -33l-20 3q-4 -3 -6 -7t-1 -7v-3 l-22 -4q-42 -3 -55 -16l-9 -21l-24 -4h-8q-13 0 -23 8q-50 -28 -82 -28q-10 0 -14 2q-30 -13 -60 -13z" />
<glyph unicode="&#xbf;" horiz-adv-x="1251" d="M575 -449q-4 3 -6 3q-5 0 -8 -3l-7.5 -7.5t-14.5 -11t-15 -3.5t-9 8.5t-5 9.5l-2 4h-19h-6h-6q-32 0 -39 29l-12 6l-2 2q-6 -2 -16 -2q-9 0 -15 2l-28 6l-3 29v6q-10 8 -26 23.5t-21 19.5q-36 32 -53 37q-21 11 -29 25q1 1 2.5 3t3.5 7.5t1 9.5q-5 5 -17 10t-21 7l-9 2 l2 24q0 3 -25 47q-22 29 -29 56q-10 38 -4 59q-18 45 -6 154q1 2 2 8q24 121 68 158l8 14l10 -8q1 9 4 16.5t6 10.5t7.5 7t5.5 5q26 26 55 26q2 0 6 -1t6 -1q17 9 51.5 31t49.5 31q11 6 28 17.5t30.5 19.5t25.5 12q23 16 61 16h2q19 0 23 2q14 6 16 16.5t-2 45.5q0 14 -4 18 t-11.5 5.5t-9.5 4.5l2 33q2 8 2 16q-2 8 -2 33v10l11 13q6 6 14 10l2 16h35q61 0 108 -47q31 -15 35 -16l25 -12v-27q0 -19 24 -53q24 -61 27 -80q7 -33 -23 -80q-17 -36 -72 -77q-2 -2 -6 -4l-6 -5q-4 -6 -18.5 -20t-19.5 -23l-11 -6l-16 -2q-41 -9 -81.5 -24.5t-87 -42.5 t-83 -71.5t-53.5 -101.5q-4 -38 8.5 -72.5t26.5 -53t43 -51.5q5 -6 8 -9q4 -4 11.5 -12t14 -14.5t11.5 -10.5h8q116 0 201 86t98 194q-33 -1 -39 15q-3 15 3.5 30t14 23.5t7.5 9.5q6 37 34 54l17 18l24 -18q26 -21 92 -27l37 -2v-16q2 -1 6.5 -2.5t6.5 -2.5l14 -8l4 -18 q0 -3 1 -8t1 -7q1 0 3 -1t3 -1l19 -16q6 -13 0 -25q-1 -5 -6.5 -9t-6.5 -5h19l4 -37q4 -28 -6 -57q-6 -19 -2 -49q6 -29 0 -35l-21 -6l-6 -6q0 -20 -10 -47q-16 -23 -43 -37q-26 -60 -64 -95q13 -2 13 -14q-1 -5 -19.5 -16.5t-36.5 -19.5l-18 -9q-6 -5 -13 -9.5t-15.5 -8 t-14.5 -6t-17.5 -5t-16.5 -3.5l-17.5 -3.5t-16.5 -3.5q-75 -12 -100 -39q-14 -16 -45 -22q0 9 -5 17t-9 12zM633 756q-4 4 -17.5 10t-25.5 6h-4q-37 -4 -41 4q-2 4 -2.5 14t-0.5 18l1 9q-2 11 -10 31.5t-15 25.5q-16 9 -18 19q-1 4 0 11t2 12l2 4q1 3 8.5 19.5t13.5 29 t17.5 32t23 34t27.5 28.5t33 22l4 2l4 3q3 0 5 1t3 1q20 0 35 -15q2 0 7.5 1t8.5 1q54 0 97.5 -44.5t46.5 -98.5q10 -85 -64 -111q-13 -24 -22 -37t-33 -28.5t-55 -18.5l-23 -2z" />
<glyph unicode="&#xc0;" horiz-adv-x="1478" d="M113 -41q-4 10 -37 43q-53 53 -66 90l-4 33l17 12q0 21 10 39q4 2 6 4l-4 8t-4 11q0 27 20 47l6 6q-5 53 31 92q3 27 25 55q6 9 18 21q-11 29 2 88q11 36 4 72l-6 24l19 17q9 6 16 6q4 17 -6 35q9 4 23 5t24 0l10 -1l2 2q4 11 21 32l-2 5q-5 14 -21 22q-3 8 3 15.5 t13 10.5l7 3l4 10q4 11 8 12q-1 1 -2.5 3t-5 7.5t-5 10t-0.5 9.5t5 7q5 3 11.5 3.5t10.5 -0.5l4 -1q3 25 19 68q8 17 21.5 28.5t22.5 14.5l9 2v4q0 27 2 39q8 21 18 28q-7 58 37 93l9 6h16q-10 27 0 35q4 -4 8.5 -4.5t7.5 1.5l2 1q0 2 3 4t4 4q-8 23 0 37q6 -3 11 -2.5 t8 2.5l3 2v32l4 19l21 10q59 29 77.5 47t42.5 76l9 22l14 3q-6 14 0 26l27 12q37 11 63 11q66 0 174 -64q17 -18 21 -24q-4 -8 -4.5 -15t0.5 -11l2 -3l-2 -6q0 -2 4 -10q12 -29 10 -52q48 -70 98 -200q50 -129 98 -193q5 4 33 8q11 0 17 2l28 -4l15 -20q0 -6 37 -10l38 -5 l5 -24l16 -4l10 -37q8 -32 -2 -59.5t-22.5 -39t-34.5 -28.5q-3 -2 -9 -6.5t-8.5 -7t-5.5 -6t-4 -7.5q-12 -51 68 -143l10 -10v-17q1 -23 39 -104q47 -75 49 -141q0 -10 9.5 -30t11.5 -26q15 -26 22.5 -46t3 -55.5t-30.5 -70.5l-8 -14l-18 -4q-1 0 -5 4q-3 3 -3 2 q-1 -1 -4 -8.5t-7 -9.5h-4h-4l-20 -5q-3 0 -12 3.5t-11 3.5q-1 0 -6 -5.5t-6 -5.5q3 0 -12 -10l-7 -4q-44 44 -80 104t-51 95.5t-43 109.5q-40 96 -41 99q-5 5 -10 10.5t-9.5 13t-7.5 13.5t-7.5 16t-6.5 15l-7 17.5t-7 16.5q-2 5 -9 21t-11 23.5t-10 19.5t-12 20.5t-13 15.5 q-60 -15 -131 -43q-157 -55 -254 -69l-4 -2q-3 -3 -5.5 -5t-5.5 -6.5t-4 -9.5q0 -14 -8 -14l-24 2h-7q-68 0 -110 -27l-2 -22l-47 -49q0 -3 -4 -7q-1 0 -5 -4q-4 -6 -14 -16q-4 -4 -6 -8q-14 -29 -25 -84q-8 -37 -13.5 -59.5t-18 -56t-27 -54t-38.5 -38.5t-54 -24l-39 -4z M502 662h2q224 77 319 77q19 0 25 -4q28 25 65 31q-12 33 -67 125q-61 100 -72 151q-9 6 -20 21q-10 25 -11 29q-28 -57 -67 -62q-49 -67 -98 -172q-34 -71 -68 -131q-7 -18 -10 -37q-1 -3 -3 -10t-3 -10zM827 1505q-13 0 -24.5 0.5t-22.5 3t-18 3.5t-17.5 5t-14.5 5t-16 6 t-14 6l-4 2q-109 51 -177 136.5t-75 180.5l-2 17l13 12q12 16 37 29q15 7 18 14l6 23l31 6q5 0 12 1t10 1q11 0 15 -2h6q23 -3 35 -19q6 2 16 2h12q80 0 101 -43q8 -13 8 -32l14 4l19 -19q29 -31 37 -56t4 -54q-3 -18 2 -35q9 -27 53 -74l10 -12v-17q0 -25 -10 -47 q-20 -47 -64 -47z" />
<glyph unicode="&#xc1;" horiz-adv-x="1478" d="M113 -41q-4 10 -37 43q-53 53 -66 90l-4 33l17 12q0 21 10 39q4 2 6 4l-4 8t-4 11q0 27 20 47l6 6q-5 53 31 92q3 27 25 55q6 9 18 21q-11 29 2 88q11 36 4 72l-6 24l19 17q9 6 16 6q4 17 -6 35q9 4 23 5t24 0l10 -1l2 2q4 11 21 32l-2 5q-5 14 -21 22q-3 8 3 15.5 t13 10.5l7 3l4 10q4 11 8 12q-1 1 -2.5 3t-5 7.5t-5 10t-0.5 9.5t5 7q5 3 11.5 3.5t10.5 -0.5l4 -1q3 25 19 68q8 17 21.5 28.5t22.5 14.5l9 2v4q0 27 2 39q8 21 18 28q-7 58 37 93l9 6h16q-10 27 0 35q4 -4 8.5 -4.5t7.5 1.5l2 1q0 2 3 4t4 4q-8 23 0 37q6 -3 11 -2.5 t8 2.5l3 2v32l4 19l21 10q59 29 77.5 47t42.5 76l9 22l14 3q-6 14 0 26l27 12q37 11 63 11q66 0 174 -64q17 -18 21 -24q-4 -8 -4.5 -15t0.5 -11l2 -3l-2 -6q0 -2 4 -10q12 -29 10 -52q48 -70 98 -200q50 -129 98 -193q5 4 33 8q11 0 17 2l28 -4l15 -20q0 -6 37 -10l38 -5 l5 -24l16 -4l10 -37q8 -32 -2 -59.5t-22.5 -39t-34.5 -28.5q-3 -2 -9 -6.5t-8.5 -7t-5.5 -6t-4 -7.5q-12 -51 68 -143l10 -10v-17q1 -23 39 -104q47 -75 49 -141q0 -10 9.5 -30t11.5 -26q15 -26 22.5 -46t3 -55.5t-30.5 -70.5l-8 -14l-18 -4q-1 0 -5 4q-3 3 -3 2 q-1 -1 -4 -8.5t-7 -9.5h-4h-4l-20 -5q-3 0 -12 3.5t-11 3.5q-1 0 -6 -5.5t-6 -5.5q3 0 -12 -10l-7 -4q-44 44 -80 104t-51 95.5t-43 109.5q-40 96 -41 99q-5 5 -10 10.5t-9.5 13t-7.5 13.5t-7.5 16t-6.5 15l-7 17.5t-7 16.5q-2 5 -9 21t-11 23.5t-10 19.5t-12 20.5t-13 15.5 q-60 -15 -131 -43q-157 -55 -254 -69l-4 -2q-3 -3 -5.5 -5t-5.5 -6.5t-4 -9.5q0 -14 -8 -14l-24 2h-7q-68 0 -110 -27l-2 -22l-47 -49q0 -3 -4 -7q-1 0 -5 -4q-4 -6 -14 -16q-4 -4 -6 -8q-14 -29 -25 -84q-8 -37 -13.5 -59.5t-18 -56t-27 -54t-38.5 -38.5t-54 -24l-39 -4z M502 662h2q224 77 319 77q19 0 25 -4q28 25 65 31q-12 33 -67 125q-61 100 -72 151q-9 6 -20 21q-10 25 -11 29q-28 -57 -67 -62q-49 -67 -98 -172q-34 -71 -68 -131q-7 -18 -10 -37q-1 -3 -3 -10t-3 -10zM674 1509q-21 0 -35 2q-23 3 -35 21q-20 23 -12 94q2 2 2 8v17 l12 12q42 42 47 61q0 7 -4 17q-10 30 -6 49q3 32 37 61l20 19l9 -4q25 20 45 22q10 15 14 19l12 12h19h10h14h8h11h28l2 -2h11h6q8 -1 21 -4t18 -4q6 0 10 4q36 6 37 6h10l16 -4l9 -10q12 -16 12 -47v-9l6 -6v-16q-13 -144 -145 -238q-12 -8 -31 -8q-15 -37 -66 -47 q-8 0 -16 -4l-4 -2q-4 -1 -19 -6t-22.5 -7t-22 -4t-28.5 -2z" />
<glyph unicode="&#xc2;" horiz-adv-x="1478" d="M113 -41q-4 10 -37 43q-53 53 -66 90l-4 33l17 12q0 21 10 39q4 2 6 4l-4 8t-4 11q0 27 20 47l6 6q-5 53 31 92q3 27 25 55q6 9 18 21q-11 29 2 88q11 36 4 72l-6 24l19 17q9 6 16 6q4 17 -6 35q9 4 23 5t24 0l10 -1l2 2q4 11 21 32l-2 5q-5 14 -21 22q-3 8 3 15.5 t13 10.5l7 3l4 10q4 11 8 12q-1 1 -2.5 3t-5 7.5t-5 10t-0.5 9.5t5 7q5 3 11.5 3.5t10.5 -0.5l4 -1q3 25 19 68q8 17 21.5 28.5t22.5 14.5l9 2v4q0 27 2 39q8 21 18 28q-7 58 37 93l9 6h16q-10 27 0 35q4 -4 8.5 -4.5t7.5 1.5l2 1q0 2 3 4t4 4q-8 23 0 37q6 -3 11 -2.5 t8 2.5l3 2v32l4 19l21 10q59 29 77.5 47t42.5 76l9 22l14 3q-6 14 0 26l27 12q37 11 63 11q66 0 174 -64q17 -18 21 -24q-4 -8 -4.5 -15t0.5 -11l2 -3l-2 -6q0 -2 4 -10q12 -29 10 -52q48 -70 98 -200q50 -129 98 -193q5 4 33 8q11 0 17 2l28 -4l15 -20q0 -6 37 -10l38 -5 l5 -24l16 -4l10 -37q8 -32 -2 -59.5t-22.5 -39t-34.5 -28.5q-3 -2 -9 -6.5t-8.5 -7t-5.5 -6t-4 -7.5q-12 -51 68 -143l10 -10v-17q1 -23 39 -104q47 -75 49 -141q0 -10 9.5 -30t11.5 -26q15 -26 22.5 -46t3 -55.5t-30.5 -70.5l-8 -14l-18 -4q-1 0 -5 4q-3 3 -3 2 q-1 -1 -4 -8.5t-7 -9.5h-4h-4l-20 -5q-3 0 -12 3.5t-11 3.5q-1 0 -6 -5.5t-6 -5.5q3 0 -12 -10l-7 -4q-44 44 -80 104t-51 95.5t-43 109.5q-40 96 -41 99q-5 5 -10 10.5t-9.5 13t-7.5 13.5t-7.5 16t-6.5 15l-7 17.5t-7 16.5q-2 5 -9 21t-11 23.5t-10 19.5t-12 20.5t-13 15.5 q-60 -15 -131 -43q-157 -55 -254 -69l-4 -2q-3 -3 -5.5 -5t-5.5 -6.5t-4 -9.5q0 -14 -8 -14l-24 2h-7q-68 0 -110 -27l-2 -22l-47 -49q0 -3 -4 -7q-1 0 -5 -4q-4 -6 -14 -16q-4 -4 -6 -8q-14 -29 -25 -84q-8 -37 -13.5 -59.5t-18 -56t-27 -54t-38.5 -38.5t-54 -24l-39 -4z M502 662h2q224 77 319 77q19 0 25 -4q28 25 65 31q-12 33 -67 125q-61 100 -72 151q-9 6 -20 21q-10 25 -11 29q-28 -57 -67 -62q-49 -67 -98 -172q-34 -71 -68 -131q-7 -18 -10 -37q-1 -3 -3 -10t-3 -10zM502 1468q-103 29 -111 70q-5 30 12 55v13q-2 18 27 47q4 4 4 6 q1 1 2 3t3 7.5t-1 9.5q4 4 11.5 7t12.5 4h5q1 7 14 28q20 35 25 68l2 24l16 15q3 0 12.5 -1t12.5 -1h2l8 24l-2 23l23 12q18 12 45 12t57 -10q20 -10 53 -10q36 0 64 14q12 6 22 6q34 0 68 -49q6 -12 8 -14l8 -6l4 -6q9 -21 28 -40t34.5 -29.5t40.5 -25.5q6 -3 15.5 -8.5 t17 -10.5t12.5 -9l4 -4l4 -2q12 -15 16 -66v-10l15 -2l-4 -39q-2 -39 -43 -51q-1 0 -3.5 -1t-3.5 -1q-2 -1 -4 -4t-5 -10.5t-1 -14.5l-37 12q-53 16 -104 60q-25 28 -47 34l-23 9l-6 18q-5 24 -13 30.5t-22 6.5q-15 0 -43 -4q-12 0 -32 -4q-23 -32 -29 -56q-10 -30 -27 -43 l-8 -6l-8 -2q-13 -3 -19.5 -8.5t-17.5 -26.5l-12 -36q-3 1 -6.5 1.5t-13 1.5t-11.5 -1q-6 -4 -8.5 -9t-2.5 -8l1 -4z" />
<glyph unicode="&#xc3;" horiz-adv-x="1478" d="M113 -41q-4 10 -37 43q-53 53 -66 90l-4 33l17 12q0 21 10 39q4 2 6 4l-4 8t-4 11q0 27 20 47l6 6q-5 53 31 92q3 27 25 55q6 9 18 21q-11 29 2 88q11 36 4 72l-6 24l19 17q9 6 16 6q4 17 -6 35q9 4 23 5t24 0l10 -1l2 2q4 11 21 32l-2 5q-5 14 -21 22q-3 8 3 15.5 t13 10.5l7 3l4 10q4 11 8 12q-1 1 -2.5 3t-5 7.5t-5 10t-0.5 9.5t5 7q5 3 11.5 3.5t10.5 -0.5l4 -1q3 25 19 68q8 17 21.5 28.5t22.5 14.5l9 2v4q0 27 2 39q8 21 18 28q-7 58 37 93l9 6h16q-10 27 0 35q4 -4 8.5 -4.5t7.5 1.5l2 1q0 2 3 4t4 4q-8 23 0 37q6 -3 11 -2.5 t8 2.5l3 2v32l4 19l21 10q59 29 77.5 47t42.5 76l9 22l14 3q-6 14 0 26l27 12q37 11 63 11q66 0 174 -64q17 -18 21 -24q-4 -8 -4.5 -15t0.5 -11l2 -3l-2 -6q0 -2 4 -10q12 -29 10 -52q48 -70 98 -200q50 -129 98 -193q5 4 33 8q11 0 17 2l28 -4l15 -20q0 -6 37 -10l38 -5 l5 -24l16 -4l10 -37q8 -32 -2 -59.5t-22.5 -39t-34.5 -28.5q-3 -2 -9 -6.5t-8.5 -7t-5.5 -6t-4 -7.5q-12 -51 68 -143l10 -10v-17q1 -23 39 -104q47 -75 49 -141q0 -10 9.5 -30t11.5 -26q15 -26 22.5 -46t3 -55.5t-30.5 -70.5l-8 -14l-18 -4q-1 0 -5 4q-3 3 -3 2 q-1 -1 -4 -8.5t-7 -9.5h-4h-4l-20 -5q-3 0 -12 3.5t-11 3.5q-1 0 -6 -5.5t-6 -5.5q3 0 -12 -10l-7 -4q-44 44 -80 104t-51 95.5t-43 109.5q-40 96 -41 99q-5 5 -10 10.5t-9.5 13t-7.5 13.5t-7.5 16t-6.5 15l-7 17.5t-7 16.5q-2 5 -9 21t-11 23.5t-10 19.5t-12 20.5t-13 15.5 q-60 -15 -131 -43q-157 -55 -254 -69l-4 -2q-3 -3 -5.5 -5t-5.5 -6.5t-4 -9.5q0 -14 -8 -14l-24 2h-7q-68 0 -110 -27l-2 -22l-47 -49q0 -3 -4 -7q-1 0 -5 -4q-4 -6 -14 -16q-4 -4 -6 -8q-14 -29 -25 -84q-8 -37 -13.5 -59.5t-18 -56t-27 -54t-38.5 -38.5t-54 -24l-39 -4z M502 662h2q224 77 319 77q19 0 25 -4q28 25 65 31q-12 33 -67 125q-61 100 -72 151q-9 6 -20 21q-10 25 -11 29q-28 -57 -67 -62q-49 -67 -98 -172q-34 -71 -68 -131q-7 -18 -10 -37q-1 -3 -3 -10t-3 -10zM811 1548q-2 2 -4 2h-4q-20 -4 -25 -4q-65 0 -102 51q-15 15 -23 22 t-24.5 14t-36.5 9q-17 -14 -35 -20q-4 0 -6 -2q-4 -6 -16 -18q-2 -3 -8 -10t-7 -9l-4 -10l-10 -6q-15 -13 -41 -13q-39 0 -72 29q-27 45 -12 111v2q7 39 29 65q4 17 14 27q13 16 33 20q15 20 37 25l14 6q4 2 27 10q9 2 20 9l14 10l17 -2q20 -3 43 -11q34 -11 47 -22 q4 2 10 2q13 0 19 -2l12 -6l2 -4q4 0 8 -4q60 -29 78 -52h4h4q27 0 43 -6q3 1 23 6q23 3 32 15v6q7 26 2 57l-2 19l13 10q27 37 63 37q32 0 74 -37q8 -8 14 -8l25 -6v-31q2 -11 -8 -31q14 -38 0 -76q-7 -29 -19 -45q0 -17 -14 -39q-10 -16 -33 -39l-4 -4v-18l-31 -8h-14 q-3 0 -10 -1t-9 -1l-6 -2q-22 -15 -47 -19q-3 -1 -8 -1.5t-9 -1.5t-7 -3q-2 -2 -6.5 -4t-19.5 -5.5t-32 1.5q1 4 -2 8t-7 6z" />
<glyph unicode="&#xc4;" horiz-adv-x="1478" d="M113 -41q-4 10 -37 43q-53 53 -66 90l-4 33l17 12q0 21 10 39q4 2 6 4l-4 8t-4 11q0 27 20 47l6 6q-5 53 31 92q3 27 25 55q6 9 18 21q-11 29 2 88q11 36 4 72l-6 24l19 17q9 6 16 6q4 17 -6 35q9 4 23 5t24 0l10 -1l2 2q4 11 21 32l-2 5q-5 14 -21 22q-3 8 3 15.5 t13 10.5l7 3l4 10q4 11 8 12q-1 1 -2.5 3t-5 7.5t-5 10t-0.5 9.5t5 7q5 3 11.5 3.5t10.5 -0.5l4 -1q3 25 19 68q8 17 21.5 28.5t22.5 14.5l9 2v4q0 27 2 39q8 21 18 28q-7 58 37 93l9 6h16q-10 27 0 35q4 -4 8.5 -4.5t7.5 1.5l2 1q0 2 3 4t4 4q-8 23 0 37q6 -3 11 -2.5 t8 2.5l3 2v32l4 19l21 10q59 29 77.5 47t42.5 76l9 22l14 3q-6 14 0 26l27 12q37 11 63 11q66 0 174 -64q17 -18 21 -24q-4 -8 -4.5 -15t0.5 -11l2 -3l-2 -6q0 -2 4 -10q12 -29 10 -52q48 -70 98 -200q50 -129 98 -193q5 4 33 8q11 0 17 2l28 -4l15 -20q0 -6 37 -10l38 -5 l5 -24l16 -4l10 -37q8 -32 -2 -59.5t-22.5 -39t-34.5 -28.5q-3 -2 -9 -6.5t-8.5 -7t-5.5 -6t-4 -7.5q-12 -51 68 -143l10 -10v-17q1 -23 39 -104q47 -75 49 -141q0 -10 9.5 -30t11.5 -26q15 -26 22.5 -46t3 -55.5t-30.5 -70.5l-8 -14l-18 -4q-1 0 -5 4q-3 3 -3 2 q-1 -1 -4 -8.5t-7 -9.5h-4h-4l-20 -5q-3 0 -12 3.5t-11 3.5q-1 0 -6 -5.5t-6 -5.5q3 0 -12 -10l-7 -4q-44 44 -80 104t-51 95.5t-43 109.5q-40 96 -41 99q-5 5 -10 10.5t-9.5 13t-7.5 13.5t-7.5 16t-6.5 15l-7 17.5t-7 16.5q-2 5 -9 21t-11 23.5t-10 19.5t-12 20.5t-13 15.5 q-60 -15 -131 -43q-157 -55 -254 -69l-4 -2q-3 -3 -5.5 -5t-5.5 -6.5t-4 -9.5q0 -14 -8 -14l-24 2h-7q-68 0 -110 -27l-2 -22l-47 -49q0 -3 -4 -7q-1 0 -5 -4q-4 -6 -14 -16q-4 -4 -6 -8q-14 -29 -25 -84q-8 -37 -13.5 -59.5t-18 -56t-27 -54t-38.5 -38.5t-54 -24l-39 -4z M502 662h2q224 77 319 77q19 0 25 -4q28 25 65 31q-12 33 -67 125q-61 100 -72 151q-9 6 -20 21q-10 25 -11 29q-28 -57 -67 -62q-49 -67 -98 -172q-34 -71 -68 -131q-7 -18 -10 -37q-1 -3 -3 -10t-3 -10zM920 1524q-1 1 -3.5 3t-3.5 3q-19 21 -41 24q-14 5 -32 5 q-3 6 -4 13t0 11v4l-17 12q-17 13 -22 39q-31 13 -31 23q0 4 5 13t10 16l5 8q2 4 7 31q0 38 14 59q14 26 45 35v2q0 27 6 45l8 24l25 4h12q17 0 33 -8h8q44 0 82.5 -23t60.5 -61q22 -40 20.5 -86t-26.5 -86l-12 -20h-10q-14 -40 -70 -80q-2 -2 -7 -6t-7 -6q-19 -17 -29 -17 q-4 0 -10.5 4.5t-11.5 9.5zM539 1534q-47 16 -86 61q-30 33 -47 41q-25 7 -27 15l2 30l2 5q4 24 6 38v19q-2 16 -22 24q0 10 5 19.5t10 13.5l5 4q12 12 29 60q4 35 18 43q6 4 17.5 -1.5t19.5 -13.5l8 -8q9 -6 15 -6q3 0 9 1t9 1q16 4 25 4q10 0 22 -4q9 6 25 6q8 0 14 -2 q17 10 33 -8q-4 -6 -4.5 -14.5t1.5 -13.5l1 -5q2 -2 6 -10l31 -6q3 -1 6 -2.5l6 -3t4 -2.5q12 -11 35 -11q6 -14 5.5 -26t-4.5 -20l-3 -9q-20 -39 -31 -70q-12 -35 -23.5 -58.5t-36.5 -50t-59 -40.5l-12 -6z" />
<glyph unicode="&#xc5;" horiz-adv-x="1478" d="M113 -41q-4 10 -37 43q-53 53 -66 90l-4 33l17 12q0 21 10 39q4 2 6 4l-4 8t-4 11q0 27 20 47l6 6q-5 53 31 92q3 27 25 55q6 9 18 21q-11 29 2 88q11 36 4 72l-6 24l19 17q9 6 16 6q4 17 -6 35q9 4 23 5t24 0l10 -1l2 2q4 11 21 32l-2 5q-5 14 -21 22q-3 8 3 15.5 t13 10.5l7 3l4 10q4 11 8 12q-1 1 -2.5 3t-5 7.5t-5 10t-0.5 9.5t5 7q5 3 11.5 3.5t10.5 -0.5l4 -1q3 25 19 68q8 17 21.5 28.5t22.5 14.5l9 2v4q0 27 2 39q8 21 18 28q-7 58 37 93l9 6h16q-10 27 0 35q4 -4 8.5 -4.5t7.5 1.5l2 1q0 2 3 4t4 4q-8 23 0 37q6 -3 11 -2.5 t8 2.5l3 2v32l4 19l21 10q59 29 77.5 47t42.5 76l9 22l14 3q-6 14 0 26l27 12q37 11 63 11q66 0 174 -64q17 -18 21 -24q-4 -8 -4.5 -15t0.5 -11l2 -3l-2 -6q0 -2 4 -10q12 -29 10 -52q48 -70 98 -200q50 -129 98 -193q5 4 33 8q11 0 17 2l28 -4l15 -20q0 -6 37 -10l38 -5 l5 -24l16 -4l10 -37q8 -32 -2 -59.5t-22.5 -39t-34.5 -28.5q-3 -2 -9 -6.5t-8.5 -7t-5.5 -6t-4 -7.5q-12 -51 68 -143l10 -10v-17q1 -23 39 -104q47 -75 49 -141q0 -10 9.5 -30t11.5 -26q15 -26 22.5 -46t3 -55.5t-30.5 -70.5l-8 -14l-18 -4q-1 0 -5 4q-3 3 -3 2 q-1 -1 -4 -8.5t-7 -9.5h-4h-4l-20 -5q-3 0 -12 3.5t-11 3.5q-1 0 -6 -5.5t-6 -5.5q3 0 -12 -10l-7 -4q-44 44 -80 104t-51 95.5t-43 109.5q-40 96 -41 99q-5 5 -10 10.5t-9.5 13t-7.5 13.5t-7.5 16t-6.5 15l-7 17.5t-7 16.5q-2 5 -9 21t-11 23.5t-10 19.5t-12 20.5t-13 15.5 q-60 -15 -131 -43q-157 -55 -254 -69l-4 -2q-3 -3 -5.5 -5t-5.5 -6.5t-4 -9.5q0 -14 -8 -14l-24 2h-7q-68 0 -110 -27l-2 -22l-47 -49q0 -3 -4 -7q-1 0 -5 -4q-4 -6 -14 -16q-4 -4 -6 -8q-14 -29 -25 -84q-8 -37 -13.5 -59.5t-18 -56t-27 -54t-38.5 -38.5t-54 -24l-39 -4z M502 662h2q224 77 319 77q19 0 25 -4q28 25 65 31q-12 33 -67 125q-61 100 -72 151q-9 6 -20 21q-10 25 -11 29q-28 -57 -67 -62q-49 -67 -98 -172q-34 -71 -68 -131q-7 -18 -10 -37q-1 -3 -3 -10t-3 -10zM666 1513q-13 0 -39 11l-25 16v2q-3 2 -12 8.5t-17 13t-14 13.5 l-12 8l2 4q-1 0 -2 1t-2 1q-18 18 -23 35q-4 18 -4 47v4l-6 17q-2 10 6 10q2 3 0.5 8t-0.5 8v6v39q6 12 8 13v6l2 6l2 6q8 17 25 25q10 10 10 12l4 16l15 11q2 1 5 2t5 2q-6 4 0 10l18 2q16 2 25 8q29 29 59 29h6q1 1 5 0t9.5 5t6.5 19q13 2 24 -1t16 -7l5 -4v0h2h8h10 q5 0 27 -10l10 -4l4 -6h7l10 4l10 -4q25 -6 31 -23q6 -6 10 -6l8 -2q27 0 35 -8q-4 -7 -5 -15.5t0 -12.5l1 -5q2 -4 10 -8l27 -8l-2 -33l2 -6q7 -112 -15 -148l-6 -8l-8 -4l-16 -16q-6 -4 -24.5 -22t-33.5 -29.5t-46 -22t-68 -10.5q-41 0 -62 6q-7 -11 -28 -11zM702 1696 q10 -2 25 -2q14 0 29 6q12 9 37 12q2 4 2 10v13v12v2v6v4q0 -2 -2 -2q-18 -6 -29 -6q-11 -11 -25 -14l-6 -2h-4q-27 0 -35 -15v-6q0 -6 8 -18z" />
<glyph unicode="&#xc6;" horiz-adv-x="2048" d="M1542 -76q-91 0 -297 21q-200 17 -215 18h-18l-13 12q-6 12 -22 17q-40 12 -62 37q-37 50 -59 217q-4 32 -6 39l-2 10l4 6q0 15 -4 39q-6 21 -6 43q-24 8 -66 8q-46 0 -96 -6q-62 -6 -123 -6q-87 0 -151 20q-1 -3 -3.5 -9t-3.5 -9q-16 -31 -49 -31h-6v-2l6 -6 q12 -30 -4 -57q-40 -68 -61 -80q-23 -37 -58 -72q-11 -11 -16.5 -18t-12 -24.5t-12.5 -45.5l-6 -20l-18 -9q-2 0 -10 -4q-24 -8 -27 -14q-10 -35 -16 -37q-5 -2 -15.5 1.5t-17.5 7.5l-8 5q-76 44 -146 156q-2 3 -4 7t-5.5 13t-2.5 13q2 4 8.5 9.5t12.5 8.5l6 4q8 8 12 25 q26 47 43 57q0 3 1 9t1 8q-2 22 4 32q3 5 10.5 5.5t13.5 -1.5l7 -2q7 34 24 60q20 29 56 37q6 20 41 86q32 55 40 98l3 25l12 4q0 8 2 12q14 26 53 31q-3 17 -10 35l-6 32l28 19q41 20 62.5 61t40.5 109q10 40 17.5 62.5t24 52.5t38.5 49q7 70 88 137l20 14q14 18 0 41 q4 5 11.5 10t13.5 7l6 2q27 7 59 59q2 0 2 2h-10l27 51q2 5 5.5 11t4.5 8q4 4 4 8t-2 8q-1 3 -2 7.5t-3 15.5t1 12q2 5 9 9.5t13 6.5l7 2q13 2 39 15q46 20 63 20q31 39 72 39q18 0 59 -18q33 -14 49 -19l8 -4l9 -10q17 -22 22 -68v-6q28 4 45 4q8 2 23 2l8 15l31 -7 q17 -5 43 -26q84 14 198 14h21h22q115 0 187 8l57 6l-4 -18q30 12 53 12q13 0 41 -4q32 -4 49 -4q62 -2 68 -2q4 -3 4.5 -9t-0.5 -11l-2 -5q45 -15 65 -71q8 -19 13 -19l24 -10v-27l-8 -24l8 -16l-18 -25q-12 -29 -45 -47q-8 -4 -12 -8l-7 -6h-10q-56 -9 -112 -9 q-40 0 -146 9q-86 8 -131 8q-42 0 -106 -11l-17 -2l-16 15q-19 16 -45 16q-3 0 -31 -4q-8 -2 -14 -2q12 -13 -6 -25q-22 4 -46 4t-38 -2l-13 -2q-1 0 -7 -1t-9 -1q-36 -6 -45 -6q-26 0 -49 15q-1 -1 -3 -2.5t-3 -2.5q4 -16 8 -28q16 -35 18 -72q0 -26 -8 -72q-9 -66 -4 -79 q9 -21 31 -21t49 6q42 10 69 10q24 0 45 -6q63 13 93 13q12 0 100 -15h6q37 11 74 11q26 0 47 -3q16 -4 29 -4q4 0 10.5 1t9.5 1h27l26 -12q5 0 15 -10q11 8 32 8q19 0 39 -8h21l10 -21l18 -20l-6 -16l19 -7q24 -47 2 -102q-30 -61 -148 -90q-24 -4 -34 -4q-22 0 -62 10 q-13 4 -43 8q-20 2 -63 2q-24 0 -52 -1t-62.5 -2.5t-53.5 -2.5q-114 -8 -170 -8h-43v-4q9 -26 12.5 -40t2.5 -39t-13 -44l-2 -6l-4 -4q-8 -8 -19 -11q0 -27 -1 -38t3 -35.5t6 -33t7.5 -32t7.5 -31.5q20 -65 24 -106q129 -14 281 -14q239 0 432 41l12 2l10 -2q25 -9 42 -28.5 t21 -31t11 -33.5q7 -29 19 -34q28 -17 30 -33q1 -7 -4 -16t-10 -14l-6 -5q-145 -121 -416 -121zM526 643h17q180 0 262 43q10 58 10 244q0 123 2 174l-10 20q0 3 -1 9.5t-1 9.5q-15 -15 -28.5 -32.5t-30 -47t-22.5 -41t-26 -51.5q-52 -122 -104 -176q-5 -37 -55 -129 q-7 -14 -13 -23z" />
<glyph unicode="&#xc7;" horiz-adv-x="1478" d="M592 -412q-2 0 -6 4q-1 1 -8 6l-10.5 7.5t-10.5 9t-10.5 12.5t-8.5 14t-7.5 17t-2.5 20l-2 7l2 2q6 34 29.5 59t69.5 25q27 0 55 -7q60 -6 63 -6q59 0 95 45q6 12 6 17q-12 12 -23 18q-12 8 -55 29q-86 29 -113 67l-10 13l2 16v19q-1 1 -3.5 4.5t-4.5 5.5q-24 20 -31 47 q-27 2 -61 2q-45 2 -82.5 11t-163.5 50l-18 9l-2 22q-3 26 6 41q-99 59 -158 215q-49 139 -49 305v2v4q2 12 24 97q3 8 8 23l7.5 22.5t6 21t3 18l-1.5 13.5l-4 10l2 13q8 48 45 116q30 66 35 109l4 20l22 8q27 8 42.5 27.5t29.5 52.5q1 2 10 16.5t12 18.5t11.5 16.5 t14.5 18.5t15 14.5t19 14.5t21 10q5 12 16 26l2 3l2 2q24 22 84 49q47 14 68 35l6 6l8 4q107 26 215 26q176 0 319 -67q154 -75 230 -207l8 -16l-6 -19q-15 -42 -66 -63q-38 -23 -84 -23q-61 0 -100 39q-26 26 -29 70q-61 55 -252 55q-29 -31 -71 -31h-15h-12h-14 q-51 -17 -92.5 -47t-75 -74.5t-58 -87.5t-53.5 -106l-10 -31l-20 -6q-7 -29 -16 -72t-13 -61q-1 -3 -10.5 -36.5t-14.5 -53.5q2 -41 8 -80.5t18.5 -87t34.5 -87.5t52.5 -75t76.5 -57.5t103 -28.5q47 15 146 23q82 11 114 22q6 1 25 9t50.5 26t61.5 42t56 62t35 80 q-8 48 2 82l4 23l22 8q38 10 62 10q38 0 73 -22q20 -10 35 -15l29 -8v-27v-18v-16q6 -9 20 -11q2 -4 0 -14t-5 -18l-3 -7q-44 -112 -81 -177.5t-89 -112.5q-91 -76 -303 -127q0 -17 -2 -25q27 -16 96 -49l15 -5t16 -5.5t12 -5.5q28 -2 55.5 -18.5t41.5 -47.5q44 -21 41 -76 q-3 -26 -13 -49l2 -35q1 -15 -4.5 -31t-15.5 -30t-18.5 -24t-18 -20t-10.5 -11q-32 -33 -80.5 -50t-120.5 -30q-51 -13 -70 -19l-6 -4h-8q-31 3 -63 8q-50 4 -66 4q-29 0 -41 -2q-5 -1 -12 -2.5t-24 -3.5t-21 4q-1 16 1 26.5t5 13.5z" />
<glyph unicode="&#xc8;" horiz-adv-x="1366" d="M522 -72h-18q-31 3 -109 21q-60 17 -100 22h-25l-8 27q-19 56 -28 128t-10 111.5t-1 129.5q4 163 -12 260q-2 5 -6.5 9.5t-5.5 6.5l-11 27q-4 109 -36 244t-93 337q-23 71 4 105q16 26 50 26q14 0 26 -6q95 -35 172 -35q27 0 39 2q55 5 320 54q190 41 317 49h4h2 q40 -3 66 -21q21 -6 26 -6h7l36 -4l7 -37q0 -4 10 -14q1 -2 8 -10.5t10 -14.5l11 -12l-7 -20q-14 -38 -55 -56q-15 -9 -17.5 -11t-2.5 -7l-5 -41l-38 2h-11q-12 0 -30 -6q-11 -6 -21 -8l-22 -6l-13 14l-18 -10q-62 -2 -139 -35l-25 -10l-12 14q-2 -1 -7.5 -3t-7.5 -3 q-50 -13 -55 -13q-4 0 -18 -1t-21 -1q-9 0 -28 1t-27 1q-14 2 -45 2h-27q-12 -3 -51 -16q-54 -24 -94 -24q-13 0 -21 2h-10l-8 8q-4 4 -8 4q2 -6 8 -51q0 -19 2 -25l6 -6q1 -1 10 -11.5t13 -17.5q6 -20 6 -59q0 -27 2 -37q6 -39 18 -76q3 -19 12.5 -61.5t12.5 -65.5 q17 2 104 21q60 16 119 22q19 0 55 4q39 3 74 9q8 2 23.5 6t23.5 6q86 20 127 20q103 0 144 -90l6 -33l-25 -20q-2 0 -2 -2q-4 -2 -4 -49l-2 -23l-16 -12q-48 -28 -116.5 -47.5t-117 -26.5t-133.5 -16q-106 -10 -170 -23q-52 -9 -72 -26q8 -20 4 -49l21 -23l-17 -47 q-2 -2 -2 -4q0 -5 5 -15q11 -40 10 -53q24 -6 53 -6q61 -5 82 -18q116 30 285 37q84 5 135 10.5t119 23t122 47.5l9 5h10q35 -2 63 -35q11 -11 15 -11l32 -20l-4 -43q-8 -8 -2 -27q11 -32 -4 -53q-14 -23 -26 -29v-2q-1 -3 -9 -24l-3 -9q-4 -9 -9 -18l-8 -16l-21 -4h-8 q-8 0 -20 4q-8 -17 -15 -25l-16 -22l-25 10q-4 2 -14 2q-19 0 -57 -10q-54 -13 -78 -13q-21 0 -33 5q-46 -33 -133 -33h-37h-35h-4q-25 0 -75 -4q-54 -4 -74 -4q-21 0 -29 2h-6q-7 0 -24.5 -3t-20.5 -3q-52 -9 -72 -9zM770 1505q-13 0 -24.5 0.5t-22.5 3t-18 3.5t-17.5 5 t-14.5 5t-16 6t-14 6l-4 2q-109 51 -177 136.5t-75 180.5l-2 17l12 12q12 16 37 29q16 8 19 14l6 23l30 6q6 0 13.5 1t9.5 1q10 0 14 -2h6q23 -3 35 -19q6 2 17 2h12q79 0 100 -43q9 -15 9 -32l14 4l18 -19q29 -31 37 -56t4 -54q-3 -18 2 -35q8 -25 54 -74l10 -12v-17 q0 -25 -10 -47q-20 -47 -64 -47z" />
<glyph unicode="&#xc9;" horiz-adv-x="1366" d="M522 -72h-18q-31 3 -109 21q-60 17 -100 22h-25l-8 27q-19 56 -28 128t-10 111.5t-1 129.5q4 163 -12 260q-2 5 -6.5 9.5t-5.5 6.5l-11 27q-4 109 -36 244t-93 337q-23 71 4 105q16 26 50 26q14 0 26 -6q95 -35 172 -35q27 0 39 2q55 5 320 54q190 41 317 49h4h2 q40 -3 66 -21q21 -6 26 -6h7l36 -4l7 -37q0 -4 10 -14q1 -2 8 -10.5t10 -14.5l11 -12l-7 -20q-14 -38 -55 -56q-15 -9 -17.5 -11t-2.5 -7l-5 -41l-38 2h-11q-12 0 -30 -6q-11 -6 -21 -8l-22 -6l-13 14l-18 -10q-62 -2 -139 -35l-25 -10l-12 14q-2 -1 -7.5 -3t-7.5 -3 q-50 -13 -55 -13q-4 0 -18 -1t-21 -1q-9 0 -28 1t-27 1q-14 2 -45 2h-27q-12 -3 -51 -16q-54 -24 -94 -24q-13 0 -21 2h-10l-8 8q-4 4 -8 4q2 -6 8 -51q0 -19 2 -25l6 -6q1 -1 10 -11.5t13 -17.5q6 -20 6 -59q0 -27 2 -37q6 -39 18 -76q3 -19 12.5 -61.5t12.5 -65.5 q17 2 104 21q60 16 119 22q19 0 55 4q39 3 74 9q8 2 23.5 6t23.5 6q86 20 127 20q103 0 144 -90l6 -33l-25 -20q-2 0 -2 -2q-4 -2 -4 -49l-2 -23l-16 -12q-48 -28 -116.5 -47.5t-117 -26.5t-133.5 -16q-106 -10 -170 -23q-52 -9 -72 -26q8 -20 4 -49l21 -23l-17 -47 q-2 -2 -2 -4q0 -5 5 -15q11 -40 10 -53q24 -6 53 -6q61 -5 82 -18q116 30 285 37q84 5 135 10.5t119 23t122 47.5l9 5h10q35 -2 63 -35q11 -11 15 -11l32 -20l-4 -43q-8 -8 -2 -27q11 -32 -4 -53q-14 -23 -26 -29v-2q-1 -3 -9 -24l-3 -9q-4 -9 -9 -18l-8 -16l-21 -4h-8 q-8 0 -20 4q-8 -17 -15 -25l-16 -22l-25 10q-4 2 -14 2q-19 0 -57 -10q-54 -13 -78 -13q-21 0 -33 5q-46 -33 -133 -33h-37h-35h-4q-25 0 -75 -4q-54 -4 -74 -4q-21 0 -29 2h-6q-7 0 -24.5 -3t-20.5 -3q-52 -9 -72 -9zM616 1509q-20 0 -34 2q-23 3 -35 21q-20 23 -12 94 q2 2 2 8v17l12 12q42 42 47 61q0 7 -4 17q-10 30 -6 49q3 32 37 61l20 19l8 -4q25 20 45 22q8 12 15 19l12 12h18h11h14h8h10h29l2 -2h10h6q8 -1 21 -4t18 -4q7 0 11 4q36 6 37 6h10l16 -4l8 -10q13 -17 13 -47v-9l6 -6v-16q-12 -143 -146 -238q-12 -8 -30 -8 q-15 -37 -66 -47q-8 0 -16 -4l-4 -2q-64 -19 -93 -19z" />
<glyph unicode="&#xca;" horiz-adv-x="1366" d="M522 -72h-18q-31 3 -109 21q-60 17 -100 22h-25l-8 27q-19 56 -28 128t-10 111.5t-1 129.5q4 163 -12 260q-2 5 -6.5 9.5t-5.5 6.5l-11 27q-4 109 -36 244t-93 337q-23 71 4 105q16 26 50 26q14 0 26 -6q95 -35 172 -35q27 0 39 2q55 5 320 54q190 41 317 49h4h2 q40 -3 66 -21q21 -6 26 -6h7l36 -4l7 -37q0 -4 10 -14q1 -2 8 -10.5t10 -14.5l11 -12l-7 -20q-14 -38 -55 -56q-15 -9 -17.5 -11t-2.5 -7l-5 -41l-38 2h-11q-12 0 -30 -6q-11 -6 -21 -8l-22 -6l-13 14l-18 -10q-62 -2 -139 -35l-25 -10l-12 14q-2 -1 -7.5 -3t-7.5 -3 q-50 -13 -55 -13q-4 0 -18 -1t-21 -1q-9 0 -28 1t-27 1q-14 2 -45 2h-27q-12 -3 -51 -16q-54 -24 -94 -24q-13 0 -21 2h-10l-8 8q-4 4 -8 4q2 -6 8 -51q0 -19 2 -25l6 -6q1 -1 10 -11.5t13 -17.5q6 -20 6 -59q0 -27 2 -37q6 -39 18 -76q3 -19 12.5 -61.5t12.5 -65.5 q17 2 104 21q60 16 119 22q19 0 55 4q39 3 74 9q8 2 23.5 6t23.5 6q86 20 127 20q103 0 144 -90l6 -33l-25 -20q-2 0 -2 -2q-4 -2 -4 -49l-2 -23l-16 -12q-48 -28 -116.5 -47.5t-117 -26.5t-133.5 -16q-106 -10 -170 -23q-52 -9 -72 -26q8 -20 4 -49l21 -23l-17 -47 q-2 -2 -2 -4q0 -5 5 -15q11 -40 10 -53q24 -6 53 -6q61 -5 82 -18q116 30 285 37q84 5 135 10.5t119 23t122 47.5l9 5h10q35 -2 63 -35q11 -11 15 -11l32 -20l-4 -43q-8 -8 -2 -27q11 -32 -4 -53q-14 -23 -26 -29v-2q-1 -3 -9 -24l-3 -9q-4 -9 -9 -18l-8 -16l-21 -4h-8 q-8 0 -20 4q-8 -17 -15 -25l-16 -22l-25 10q-4 2 -14 2q-19 0 -57 -10q-54 -13 -78 -13q-21 0 -33 5q-46 -33 -133 -33h-37h-35h-4q-25 0 -75 -4q-54 -4 -74 -4q-21 0 -29 2h-6q-7 0 -24.5 -3t-20.5 -3q-52 -9 -72 -9zM444 1468q-102 29 -110 70q-5 30 12 55v13q-2 18 27 47 q4 4 4 6q1 1 2 3t3 7.5t-1 9.5q4 4 11.5 7t12.5 4h5q1 7 14 28q20 35 25 68l2 24l16 15q3 0 12.5 -1t12.5 -1h2l8 24l-2 23l22 12q18 12 45 12q28 0 58 -10q20 -10 53 -10q35 0 63 14q12 6 23 6q33 0 67 -49q5 -10 9 -14l8 -6l4 -6q9 -21 27.5 -40t34 -29.5t40.5 -25.5 q6 -3 15.5 -8.5t17 -10.5t12.5 -9l5 -4l4 -2q12 -15 16 -66v-10l14 -2l-4 -39q-2 -39 -43 -51q-1 0 -3 -1t-3 -1q-2 -1 -4 -4t-5 -10.5t-1 -14.5l-37 12q-53 16 -104 60q-25 28 -48 34l-22 9l-6 18q-5 24 -13 30.5t-22 6.5q-15 0 -43 -4q-13 0 -33 -4q-23 -32 -29 -56 q-10 -31 -26 -43l-8 -6l-9 -2q-13 -3 -18.5 -8.5t-17.5 -26.5l-13 -36q-2 1 -6 1.5t-13 1.5t-11 -1q-6 -4 -9 -9t-3 -8l1 -4z" />
<glyph unicode="&#xcb;" horiz-adv-x="1366" d="M522 -72h-18q-31 3 -109 21q-60 17 -100 22h-25l-8 27q-19 56 -28 128t-10 111.5t-1 129.5q4 163 -12 260q-2 5 -6.5 9.5t-5.5 6.5l-11 27q-4 109 -36 244t-93 337q-23 71 4 105q16 26 50 26q14 0 26 -6q95 -35 172 -35q27 0 39 2q55 5 320 54q190 41 317 49h4h2 q40 -3 66 -21q21 -6 26 -6h7l36 -4l7 -37q0 -4 10 -14q1 -2 8 -10.5t10 -14.5l11 -12l-7 -20q-14 -38 -55 -56q-15 -9 -17.5 -11t-2.5 -7l-5 -41l-38 2h-11q-12 0 -30 -6q-11 -6 -21 -8l-22 -6l-13 14l-18 -10q-62 -2 -139 -35l-25 -10l-12 14q-2 -1 -7.5 -3t-7.5 -3 q-50 -13 -55 -13q-4 0 -18 -1t-21 -1q-9 0 -28 1t-27 1q-14 2 -45 2h-27q-12 -3 -51 -16q-54 -24 -94 -24q-13 0 -21 2h-10l-8 8q-4 4 -8 4q2 -6 8 -51q0 -19 2 -25l6 -6q1 -1 10 -11.5t13 -17.5q6 -20 6 -59q0 -27 2 -37q6 -39 18 -76q3 -19 12.5 -61.5t12.5 -65.5 q17 2 104 21q60 16 119 22q19 0 55 4q39 3 74 9q8 2 23.5 6t23.5 6q86 20 127 20q103 0 144 -90l6 -33l-25 -20q-2 0 -2 -2q-4 -2 -4 -49l-2 -23l-16 -12q-48 -28 -116.5 -47.5t-117 -26.5t-133.5 -16q-106 -10 -170 -23q-52 -9 -72 -26q8 -20 4 -49l21 -23l-17 -47 q-2 -2 -2 -4q0 -5 5 -15q11 -40 10 -53q24 -6 53 -6q61 -5 82 -18q116 30 285 37q84 5 135 10.5t119 23t122 47.5l9 5h10q35 -2 63 -35q11 -11 15 -11l32 -20l-4 -43q-8 -8 -2 -27q11 -32 -4 -53q-14 -23 -26 -29v-2q-1 -3 -9 -24l-3 -9q-4 -9 -9 -18l-8 -16l-21 -4h-8 q-8 0 -20 4q-8 -17 -15 -25l-16 -22l-25 10q-4 2 -14 2q-19 0 -57 -10q-54 -13 -78 -13q-21 0 -33 5q-46 -33 -133 -33h-37h-35h-4q-25 0 -75 -4q-54 -4 -74 -4q-21 0 -29 2h-6q-7 0 -24.5 -3t-20.5 -3q-52 -9 -72 -9zM862 1524l-6 6q-19 21 -41 24q-15 5 -33 5q-3 6 -4 13 t0 11v4l-16 12q-18 13 -23 39q-30 13 -30 23q0 4 5 13t10 16l5 8q1 2 6 31q0 37 15 59q14 26 45 35v2q0 27 6 45l8 24l25 4h12q17 0 33 -8h8q44 0 82.5 -23t60.5 -61q22 -40 20.5 -86t-26.5 -86l-12 -20h-11q-15 -41 -69 -80q-2 -2 -7 -6t-7 -6q-19 -17 -29 -17 q-4 0 -11 4.5t-12 9.5zM481 1534q-47 16 -86 61q-30 33 -47 41q-24 7 -26 15l2 30l2 5q4 24 6 38v19q-3 16 -23 24q0 10 5.5 19.5t10.5 13.5l5 4q11 11 28 60q5 35 19 43q6 4 17.5 -1.5t19.5 -13.5l8 -8q9 -6 14 -6q3 0 9.5 1t9.5 1q16 4 24 4q11 0 23 -4q9 6 24 6 q9 0 15 -2q16 10 32 -8q-4 -6 -4.5 -14.5t1.5 -13.5l1 -5q4 -4 7 -10l30 -6q3 -1 17 -8q11 -11 34 -11q6 -14 5.5 -26t-4.5 -20l-3 -9q-16 -31 -30 -70q-12 -35 -23.5 -58.5t-36.5 -50t-59 -40.5l-12 -6z" />
<glyph unicode="&#xcc;" horiz-adv-x="569" d="M352 -55q-11 2 -28.5 4t-20.5 2q-31 0 -67 8q-32 4 -59.5 30.5t-35.5 55.5q-6 14 4 55q5 15 5 19v16l8 6q0 5 4 9q4 13 -6 43l-6 18l-3 10v8q20 127 20.5 215.5t-9.5 147.5q-1 12 -6 70q-2 16 2 51q11 51 -7 114v7v2q-3 119 13 276q-26 40 -13 102q3 21 3 52q-3 27 0 51 q11 59 20 76q21 41 70 41h16l10 -9q11 -8 19 -8q33 -3 47 -26q39 -17 51 -82q6 -36 2 -70q-1 -2 -2 -6t-2 -6q10 -10 10 -25q3 -22 -14 -39q0 -4 4 -8q0 -1 4.5 -12t6.5 -19.5t1 -17.5l21 -8l-13 -37q-10 -25 0 -78q7 -25 6 -59t-16 -64q2 -7 3.5 -15.5t2.5 -10.5 q0 -13 2 -17l15 -12l-2 -21q-13 -94 -2 -172q8 -89 2 -174q16 -13 16 -45q-4 -29 -16 -49q-1 -1 -2 -3t-2 -3q14 -43 -2 -80v-2q2 -10 -3 -25l11 -4l2 -20q24 -133 22 -164q-2 -61 -43 -86l-8 -6l-10 -2q-1 0 -3 -1t-3 -1l-9 -2h-10zM373 1505q-13 0 -24.5 0.5t-22.5 3 t-18 3.5t-17.5 5t-14.5 5t-16 6t-14 6l-4 2q-109 51 -177 136.5t-75 180.5l-2 17l12 12q12 16 37 29q15 7 18 14l6 23l31 6q6 0 13 1t10 1q10 0 14 -2h6q23 -3 35 -19q6 2 16 2h13q79 0 100 -43q8 -13 8 -32l15 4l18 -19q29 -31 37 -56t4 -54q-3 -18 2 -35q9 -27 53 -74 l10 -12v-17q0 -25 -10 -47q-20 -47 -63 -47z" />
<glyph unicode="&#xcd;" horiz-adv-x="569" d="M352 -55q-11 2 -28.5 4t-20.5 2q-31 0 -67 8q-32 4 -59.5 30.5t-35.5 55.5q-6 14 4 55q5 15 5 19v16l8 6q0 5 4 9q4 13 -6 43l-6 18l-3 10v8q20 127 20.5 215.5t-9.5 147.5q-1 12 -6 70q-2 16 2 51q11 51 -7 114v7v2q-3 119 13 276q-26 40 -13 102q3 21 3 52q-3 27 0 51 q11 59 20 76q21 41 70 41h16l10 -9q11 -8 19 -8q33 -3 47 -26q39 -17 51 -82q6 -36 2 -70q-1 -2 -2 -6t-2 -6q10 -10 10 -25q3 -22 -14 -39q0 -4 4 -8q0 -1 4.5 -12t6.5 -19.5t1 -17.5l21 -8l-13 -37q-10 -25 0 -78q7 -25 6 -59t-16 -64q2 -7 3.5 -15.5t2.5 -10.5 q0 -13 2 -17l15 -12l-2 -21q-13 -94 -2 -172q8 -89 2 -174q16 -13 16 -45q-4 -29 -16 -49q-1 -1 -2 -3t-2 -3q14 -43 -2 -80v-2q2 -10 -3 -25l11 -4l2 -20q24 -133 22 -164q-2 -61 -43 -86l-8 -6l-10 -2q-1 0 -3 -1t-3 -1l-9 -2h-10zM219 1509q-21 0 -35 2q-22 3 -34 21 q-21 24 -13 94q2 2 2 8v17l13 12q42 42 47 61q0 7 -4 17q-11 31 -7 49q3 32 37 61l21 19l8 -4q25 20 45 22q10 15 14 19l13 12h18h10h15h8h10h29l2 -2h10h6q8 -1 21 -4t18 -4q6 0 10 4q36 6 37 6h10l17 -4l8 -10q12 -16 12 -47v-9l6 -6v-16q-13 -144 -145 -238 q-12 -8 -31 -8q-15 -37 -65 -47q-9 0 -17 -4l-4 -2q-4 -1 -19 -6t-22.5 -7t-22 -4t-28.5 -2z" />
<glyph unicode="&#xce;" horiz-adv-x="569" d="M352 -55q-11 2 -28.5 4t-20.5 2q-31 0 -67 8q-32 4 -59.5 30.5t-35.5 55.5q-6 14 4 55q5 15 5 19v16l8 6q0 5 4 9q4 13 -6 43l-6 18l-3 10v8q20 127 20.5 215.5t-9.5 147.5q-1 12 -6 70q-2 16 2 51q11 51 -7 114v7v2q-3 119 13 276q-26 40 -13 102q3 21 3 52q-3 27 0 51 q11 59 20 76q21 41 70 41h16l10 -9q11 -8 19 -8q33 -3 47 -26q39 -17 51 -82q6 -36 2 -70q-1 -2 -2 -6t-2 -6q10 -10 10 -25q3 -22 -14 -39q0 -4 4 -8q0 -1 4.5 -12t6.5 -19.5t1 -17.5l21 -8l-13 -37q-10 -25 0 -78q7 -25 6 -59t-16 -64q2 -7 3.5 -15.5t2.5 -10.5 q0 -13 2 -17l15 -12l-2 -21q-13 -94 -2 -172q8 -89 2 -174q16 -13 16 -45q-4 -29 -16 -49q-1 -1 -2 -3t-2 -3q14 -43 -2 -80v-2q2 -10 -3 -25l11 -4l2 -20q24 -133 22 -164q-2 -61 -43 -86l-8 -6l-10 -2q-1 0 -3 -1t-3 -1l-9 -2h-10zM47 1468q-102 29 -110 70q-5 30 12 55 v13q-2 19 26 47q5 5 5 6q1 1 2 3t3 7.5t-1 9.5q4 4 11 7t12 4h5q1 4 15 28q19 33 24 68l2 24l17 15q3 0 12 -1t12 -1h2l8 24l-2 23l23 12q18 12 45 12t57 -10q20 -10 54 -10q35 0 63 14q12 6 23 6q33 0 67 -49q6 -12 8 -14l9 -6l4 -6q9 -21 27.5 -40t34 -29.5t40.5 -25.5 q6 -3 15.5 -8.5t17 -10.5t12.5 -9l4 -4l4 -2q13 -17 17 -66v-10l14 -2l-4 -39q-2 -39 -43 -51q-1 0 -3 -1t-3 -1q-2 -1 -4 -4t-5 -10.5t-1 -14.5l-37 12q-54 17 -105 60q-25 28 -47 34l-22 9l-7 18q-6 24 -13 30.5t-21 6.5q-15 0 -43 -4q-13 0 -33 -4q-23 -32 -29 -56 q-10 -31 -26 -43l-9 -6l-8 -2q-13 -3 -19.5 -8.5t-17.5 -26.5l-12 -36q-3 1 -6.5 1.5t-13 1.5t-11.5 -1q-6 -4 -8.5 -9t-1.5 -8v-4z" />
<glyph unicode="&#xcf;" horiz-adv-x="569" d="M352 -55q-11 2 -28.5 4t-20.5 2q-31 0 -67 8q-32 4 -59.5 30.5t-35.5 55.5q-6 14 4 55q5 15 5 19v16l8 6q0 5 4 9q4 13 -6 43l-6 18l-3 10v8q20 127 20.5 215.5t-9.5 147.5q-1 12 -6 70q-2 16 2 51q11 51 -7 114v7v2q-3 119 13 276q-26 40 -13 102q3 21 3 52q-3 27 0 51 q11 59 20 76q21 41 70 41h16l10 -9q11 -8 19 -8q33 -3 47 -26q39 -17 51 -82q6 -36 2 -70q-1 -2 -2 -6t-2 -6q10 -10 10 -25q3 -22 -14 -39q0 -4 4 -8q0 -1 4.5 -12t6.5 -19.5t1 -17.5l21 -8l-13 -37q-10 -25 0 -78q7 -25 6 -59t-16 -64q2 -7 3.5 -15.5t2.5 -10.5 q0 -13 2 -17l15 -12l-2 -21q-13 -94 -2 -172q8 -89 2 -174q16 -13 16 -45q-4 -29 -16 -49q-1 -1 -2 -3t-2 -3q14 -43 -2 -80v-2q2 -10 -3 -25l11 -4l2 -20q24 -133 22 -164q-2 -61 -43 -86l-8 -6l-10 -2q-1 0 -3 -1t-3 -1l-9 -2h-10zM465 1524l-6 6q-19 21 -41 24 q-15 5 -33 5q-3 6 -4 13t-1 11l1 4l-16 12q-18 13 -23 39q-31 13 -31 23q0 4 5.5 13t10.5 16l5 8q1 2 6 31q0 38 14 59q14 26 45 35v2q0 27 6 45l9 24l24 4h13q16 0 32 -8h8q44 0 83 -23t61 -61q22 -40 20.5 -86t-26.5 -86l-13 -20h-10q-15 -41 -69 -80q-2 -2 -7.5 -6 t-7.5 -6q-18 -17 -28 -17q-4 0 -11 4.5t-11 9.5zM84 1534q-47 16 -86 61q-30 33 -47 41q-25 7 -27 15l2 30l2 5q4 24 6 38v19q-2 16 -22 24q0 10 5 19.5t10 13.5l5 4q12 12 29 60q5 35 19 43q6 4 17.5 -1.5t19.5 -13.5l8 -8q9 -6 14 -6q3 0 9 1t9 1q16 4 25 4q10 0 22 -4 q9 6 25 6q8 0 14 -2q17 10 33 -8q-4 -6 -4.5 -14.5t0.5 -13.5l2 -5q2 -2 6 -10l31 -6l16 -8q12 -11 35 -11q6 -14 5.5 -26t-3.5 -20l-4 -9q-20 -39 -31 -70q-13 -36 -24 -59t-35.5 -49.5t-58.5 -40.5l-13 -6z" />
<glyph unicode="&#xd0;" horiz-adv-x="1478" d="M440 -80q-3 2 -6.5 4.5t-5 3.5t-2.5 2q-1 0 -4 -1t-4 -1q-22 -7 -58 -10q-35 -16 -41 -16q-4 0 -6.5 4t-2.5 8l-1 4q-3 -1 -7 -2.5t-15 -3.5t-15 2q-5 2 -8 9.5t-4 14.5v7q-6 0 -18 4l-17 4l-8 16q-6 15 -27 41q-24 27 -32.5 54t-1.5 83q2 25 8 31q4 3 12 3.5t14 -0.5 l7 -1q6 0 14 10q22 33 55 33q14 0 29 -6q4 4 16 12q0 15 -3 43t-3 33q-11 76 -6 117q-8 20 -8 84v45q-2 4 -2 10h-2q-14 0 -46 -2.5t-44 -3.5q-65 -10 -111 -10q-62 0 -90 24l-23 21l15 26q4 11 0 33q-4 15 -1.5 37.5t9.5 45t33 48t69 45.5l8 4h11q28 0 49 -8q6 4 20 4 q13 0 19 -2l6 19l14 -4q14 18 35 18q-5 42 -14 152q-7 153 -29 221q-1 1 -4 2t-4 2q-9 0 -27 6q-2 2 -4 2l-18 -4l-17 12q-69 61 -49 133q-40 46 -4 101l10 16l19 2q39 8 78 8q21 0 79 -8q3 -1 11 -2t12 -2q10 12 29 12h4h6q59 -10 135 -10h43h43q80 0 142.5 -10.5 t121.5 -44.5q12 4 21 4h8l12 -2l8 -8q27 -23 84 -47.5t99 -34.5l14 -4l8 -11q25 -32 56 -59q61 -61 94 -111l14 -18l-14 -25l-4 -4q45 -39 84 -82q52 -63 55 -118q12 -16 14 -27q6 -18 6 -39q0 -26 7 -33l24 -16l-8 -29q-8 -20 -12 -24q6 -28 2 -58q0 -3 -1 -11.5t-1 -10.5 l10 -8l2 -17q4 -56 -33 -114q-12 -23 -14 -33.5t6 -36.5q2 -4 4 -9.5t5.5 -20.5t-1.5 -19q-4 -6 -13 -7.5t-17 -0.5l-7 2q-18 -18 -24 -21q-10 -27 -25 -50t-36.5 -42t-38 -30.5t-42.5 -28.5q-66 -43 -90 -76l-10 -12l-18 -2q-7 0 -14 -2.5t-12 -4.5t-13.5 -7t-12 -7.5 t-13.5 -9t-13 -8.5q-26 -19 -41.5 -29t-45.5 -20.5t-61 -10.5h-2q-19 -19 -65 -33q-23 -6 -27 -10l-16 -24l-29 8h-2q-41 -35 -92 -35q-19 0 -43 4q-8 2 -25 2q-5 0 -7.5 -0.5t-6.5 -5.5t-8 -16q-11 -33 -27 -35q-7 -2 -16 1.5t-14 8.5zM543 580q0 -56 12 -68l14 -14l-4 -21 q-6 -26 8 -160q6 -37 9 -63q14 5 49 14q126 38 190 74q77 39 162 100q25 14 41 25q53 34 90 100.5t27 120.5l-2 12l4 13q6 15 6.5 32.5t-2 33t-9.5 36.5t-14 36.5t-18 39.5q-39 85 -45 108q-12 14 -26.5 28.5t-26.5 26t-31 27t-30 24.5t-34.5 25t-32.5 22.5t-36 23.5t-34 22 t-36.5 23.5t-34.5 21.5q-62 6 -127 6q-38 0 -61 -2h-66h-24q8 -210 37 -383h4q2 0 6 4l16 9l19 -7q1 -1 4 -2t4 -2q48 23 123 23q13 0 26.5 -0.5t23.5 -1.5t18 -2t13 -1l5 -1h6l6 -4q41 -18 55 -78q3 -14 7 -21l10 -18l-8 -14q-10 -27 -24.5 -46.5t-26.5 -30.5t-36 -20.5 t-35.5 -12.5t-43.5 -11q-12 -3 -52 -15q-24 -24 -75 -32z" />
<glyph unicode="&#xd1;" horiz-adv-x="1478" d="M240 -61q-5 7 -27 18q-47 23 -68 63l-4 7v8q-5 71 -2 162q0 17 1 48.5t1 47.5q0 49 6 92q7 66 3 111q0 2 -1.5 9t-1.5 11q-8 38 -6 53q2 14 19 37q4 4 4 6q0 3 -2.5 11t-3.5 10q-17 21 -17 51q0 20 19 49q1 1 3 5t3 5q0 12 -12 52q-2 7 -5 19t-4.5 19t-3 18t-0.5 21 q0 23 13 58l4 12l-8 8l-3 17q-6 50 5 131q9 42 4.5 92t-33.5 96l-8 14l4 15q2 8 6 14t11 11l7 6q20 12 13 30l-4 39l49 2q13 -2 26.5 -5t28 -8.5t23 -9t26 -11t21.5 -9.5q4 -3 26 -14l15 -6l4 -8q120 -216 286 -404l15 -10l-4 -21q-7 -28 63 -90q4 -4 19.5 -21t21.5 -23.5 t19 -22t19 -26t13.5 -25.5t11 -30t3.5 -30q42 -37 88 -96q14 -15 45 -49.5t47 -51.5q2 20 2 66v19v20.5t0.5 19t1 20t2.5 18t4 18.5t5.5 16t8.5 16q3 51 29 261q16 103 23 171t5.5 155.5t-18.5 168.5l-6 29l29 12q34 12 65 12q21 0 74 -16q42 -13 57 -14l13 -2l10 -9 q20 -18 20 -51q15 8 17 -8q2 -8 1.5 -16.5t-1.5 -14.5l-2 -6q0 -1 -1 -4t-1 -4q0 -2 -1 -6t-1 -6q11 -11 14 -29v-8v-4q-11 -57 -18 -137q-15 -189 -52 -275q3 -143 -4 -311q-12 -314 11 -477l2 -39q0 -1 0.5 -2.5t-1.5 -4t-6 -1.5q-27 0 -32 -5l-2 -16l-25 -10 q-40 -19 -70 -19q-11 0 -21 1.5t-20 5.5t-16.5 6.5t-15.5 10t-13 10.5t-13 12.5t-10.5 11.5t-10.5 13l-9 11q-15 31 -36 41l-27 13l-8 26q-13 20 -23 31q-19 28 -67 72q-121 116 -160 178q-20 33 -42 62t-61 75t-49 59q-46 49 -102 125l-2 4l-2 2q-2 3 -5 10.5t-5 10.5 q-8 25 -13.5 32.5t-25.5 14.5l-4 2q1 -10 4 -26t4 -23q2 -6 5 -16t3 -11v-10l-2 -8q-2 -5 -5 -14t-5 -13l-11 -33q-3 -19 9 -98q14 -77 14 -112q0 -14 -14 -56q-7 -27 -7.5 -36.5t7.5 -26.5l10 -17l-6 -18q-10 -34 -12 -77.5t10 -78.5l12 -24l-16 -17q-13 -16 -13 -63 q-5 -66 -10 -86l-6 -17l-12 -6q-20 -8 -33 -8q-5 0 -29 6q-12 4 -14 4l-2 -2l-35 -6zM811 1548q-2 2 -4 2h-4q-20 -4 -25 -4q-65 0 -102 51q-15 15 -23 22t-24.5 14t-36.5 9q-17 -14 -35 -20q-4 0 -6 -2q-4 -6 -16 -18q-2 -3 -8 -10t-7 -9l-4 -10l-10 -6q-15 -13 -41 -13 q-39 0 -72 29q-27 45 -12 111v2q7 39 29 65q4 17 14 27q13 16 33 20q15 20 37 25l14 6q4 2 27 10q9 2 20 9l14 10l17 -2q20 -3 43 -11q34 -11 47 -22q4 2 10 2q13 0 19 -2l12 -6l2 -4q4 0 8 -4q60 -29 78 -52h4h4q27 0 43 -6q3 1 23 6q23 3 32 15v6q7 26 2 57l-2 19l13 10 q27 37 63 37q32 0 74 -37q8 -8 14 -8l25 -6v-31q2 -11 -8 -31q14 -38 0 -76q-7 -29 -19 -45q0 -17 -14 -39q-10 -16 -33 -39l-4 -4v-18l-31 -8h-14q-3 0 -10 -1t-9 -1l-6 -2q-22 -15 -47 -19q-3 -1 -8 -1.5t-9 -1.5t-7 -3q-2 -2 -6.5 -4t-19.5 -5.5t-32 1.5q1 4 -2 8t-7 6z " />
<glyph unicode="&#xd2;" horiz-adv-x="1593" d="M659 -37q-10 -2 -24 -2.5t-19 -1.5h-34h-50l3 18q-5 0 -14 -1t-13 -1q-7 0 -27 5l-26 6v10q-24 8 -47 31q-6 3 -11 8q-18 12 -26 12q-1 -2 -2.5 -4.5t-6 -6.5t-8.5 1l-22 14q-102 73 -149 149.5t-93 215.5l-2 8l2 6q3 16 10 23q-11 22 -2 73q6 15 6 33q0 11 -6 23 q-9 33 -8 45q2 16 21 55q10 25 10 29q3 9 0 22q0 58 26 82q1 15 -1.5 17.5t1.5 18t3.5 17.5t5 17.5t6 17.5t6 17t6.5 16q21 37 23 63l2 23l20 10q4 2 13 5t14 5q-6 19 0 39q10 30 35 45q18 13 16 29q-4 37 -4 43q4 3 9 3t8 -1l3 -2l25 37q54 73 104 90v2q7 17 29 25 q2 2 4 5.5t4 4.5q25 19 76 45l20 8q3 3 3 4l14 17l22 -2q28 -4 64 -19q7 7 22 10q1 1 9 5l32 8q16 2 17 -6l8 -19q6 -11 16 -18q6 -9 23 -21q30 15 47 15h8h2h2q15 -5 19 -5q6 0 15.5 3.5t10.5 3.5q36 12 72 14h25l8 -14q3 -1 11 -4.5t11 -4.5q5 -2 18.5 -6.5t20.5 -7.5 q1 0 3.5 1t4.5 1q9 0 16.5 -2.5t11.5 -4.5t10.5 -7t8.5 -6l3 -2q16 -6 20 10q7 -4 15 -11.5t12 -13.5l4 -6q29 -41 73 -78q43 -40 68.5 -71.5t26.5 -63.5l12 -18q10 -15 12 -17l31 -16l2 -23v-12v-2q27 -10 39 -22q-6 -6 -8.5 -13t-1.5 -11v-3q12 -9 22 -35v0l4 -4l13 -53 q8 -29 10 -39q25 -86 25 -123q1 -23 -3 -47q11 0 13 -12q2 -6 1.5 -10.5t-1.5 -7.5l-2 -3q0 -10 -2 -16q-7 -43 -17 -78q16 -54 -43 -113q-9 -9 -16 -49q-6 -30 -25 -61q-12 -25 -49 -63t-65 -60q-23 -16 -64 -53q-34 -32 -49.5 -46t-50 -32.5t-68.5 -22.5q-2 -2 -5 -6 t-5 -6l-10 -17h-21h-22q-39 0 -43 -4l-9 -32h-30q-42 0 -109 -13q-25 -8 -90 -18q-28 -4 -53 -6q-6 0 -9.5 1.5t-4.5 4t-1.5 5t-0.5 4.5zM475 250q69 -57 232 -57q103 0 192 26q2 3 16 17q60 40 99 49q36 50 84 86l28.5 28.5t30 31.5t19.5 26.5t19 36.5t7 38v15l15 8 q2 1 5 3t5 3q2 2 4 2q8 157 -47.5 315.5t-145.5 237.5q-77 25 -116 25q-20 0 -37.5 -6t-27.5 -12t-30 -21q-51 -41 -94 -53q-5 -1 -11.5 -2t-22.5 -3.5t-17 0.5v17q-15 -6 -31 -6q-32 0 -49 30l-2 7v8q-3 13 0 20h-6q-4 -4 -14 -11.5t-13 -10.5q-1 -2 -2 -6t-2 -5 q-9 -36 -20 -47q-10 -10 -33 -16q-82 -123 -116 -288t-9 -320q19 -49 45 -78q6 -12 22 -42.5t23 -45.5zM885 1505q-13 0 -24.5 0.5t-22.5 3t-18 3.5t-17.5 5t-14.5 5t-16 6t-14 6l-4 2q-109 51 -177 136.5t-75 180.5l-2 17l12 12q12 16 37 29q15 7 18 14l6 23l31 6q6 0 13 1 t10 1q10 0 14 -2h6q23 -3 35 -19q6 2 16 2h13q79 0 100 -43q8 -13 8 -32l15 4l18 -19q29 -31 37 -56t4 -54q-3 -18 2 -35q9 -27 53 -74l10 -12v-17q0 -25 -10 -47q-20 -47 -63 -47z" />
<glyph unicode="&#xd3;" horiz-adv-x="1593" d="M659 -37q-10 -2 -24 -2.5t-19 -1.5h-34h-50l3 18q-5 0 -14 -1t-13 -1q-7 0 -27 5l-26 6v10q-24 8 -47 31q-6 3 -11 8q-18 12 -26 12q-1 -2 -2.5 -4.5t-6 -6.5t-8.5 1l-22 14q-102 73 -149 149.5t-93 215.5l-2 8l2 6q3 16 10 23q-11 22 -2 73q6 15 6 33q0 11 -6 23 q-9 33 -8 45q2 16 21 55q10 25 10 29q3 9 0 22q0 58 26 82q1 15 -1.5 17.5t1.5 18t3.5 17.5t5 17.5t6 17.5t6 17t6.5 16q21 37 23 63l2 23l20 10q4 2 13 5t14 5q-6 19 0 39q10 30 35 45q18 13 16 29q-4 37 -4 43q4 3 9 3t8 -1l3 -2l25 37q54 73 104 90v2q7 17 29 25 q2 2 4 5.5t4 4.5q25 19 76 45l20 8q3 3 3 4l14 17l22 -2q28 -4 64 -19q7 7 22 10q1 1 9 5l32 8q16 2 17 -6l8 -19q6 -11 16 -18q6 -9 23 -21q30 15 47 15h8h2h2q15 -5 19 -5q6 0 15.5 3.5t10.5 3.5q36 12 72 14h25l8 -14q3 -1 11 -4.5t11 -4.5q5 -2 18.5 -6.5t20.5 -7.5 q1 0 3.5 1t4.5 1q9 0 16.5 -2.5t11.5 -4.5t10.5 -7t8.5 -6l3 -2q16 -6 20 10q7 -4 15 -11.5t12 -13.5l4 -6q29 -41 73 -78q43 -40 68.5 -71.5t26.5 -63.5l12 -18q10 -15 12 -17l31 -16l2 -23v-12v-2q27 -10 39 -22q-6 -6 -8.5 -13t-1.5 -11v-3q12 -9 22 -35v0l4 -4l13 -53 q8 -29 10 -39q25 -86 25 -123q1 -23 -3 -47q11 0 13 -12q2 -6 1.5 -10.5t-1.5 -7.5l-2 -3q0 -10 -2 -16q-7 -43 -17 -78q16 -54 -43 -113q-9 -9 -16 -49q-6 -30 -25 -61q-12 -25 -49 -63t-65 -60q-23 -16 -64 -53q-34 -32 -49.5 -46t-50 -32.5t-68.5 -22.5q-2 -2 -5 -6 t-5 -6l-10 -17h-21h-22q-39 0 -43 -4l-9 -32h-30q-42 0 -109 -13q-25 -8 -90 -18q-28 -4 -53 -6q-6 0 -9.5 1.5t-4.5 4t-1.5 5t-0.5 4.5zM475 250q69 -57 232 -57q103 0 192 26q2 3 16 17q60 40 99 49q36 50 84 86l28.5 28.5t30 31.5t19.5 26.5t19 36.5t7 38v15l15 8 q2 1 5 3t5 3q2 2 4 2q8 157 -47.5 315.5t-145.5 237.5q-77 25 -116 25q-20 0 -37.5 -6t-27.5 -12t-30 -21q-51 -41 -94 -53q-5 -1 -11.5 -2t-22.5 -3.5t-17 0.5v17q-15 -6 -31 -6q-32 0 -49 30l-2 7v8q-3 13 0 20h-6q-4 -4 -14 -11.5t-13 -10.5q-1 -2 -2 -6t-2 -5 q-9 -36 -20 -47q-10 -10 -33 -16q-82 -123 -116 -288t-9 -320q19 -49 45 -78q6 -12 22 -42.5t23 -45.5zM731 1509q-21 0 -35 2q-22 3 -34 21q-21 24 -13 94q2 2 2 8v17l13 12q42 42 47 61q0 7 -4 17q-11 31 -7 49q3 32 37 61l21 19l8 -4q25 20 45 22q10 15 14 19l13 12h18 h10h15h8h10h29l2 -2h10h6q8 -1 21 -4t18 -4q6 0 10 4q36 6 37 6h10l17 -4l8 -10q12 -16 12 -47v-9l6 -6v-16q-13 -144 -145 -238q-12 -8 -31 -8q-15 -37 -65 -47q-9 0 -17 -4l-4 -2q-4 -1 -19 -6t-22.5 -7t-22 -4t-28.5 -2z" />
</font>
</defs>
</svg>
